<?xml version="1.0" encoding="utf-8"?>
<!-- Generator: Adobe Illustrator 22.0.1, SVG Export Plug-In . SVG Version: 6.00 Build 0)  -->
<svg version="1.1" id="Layer_1" xmlns="http://www.w3.org/2000/svg" xmlns:xlink="http://www.w3.org/1999/xlink" x="0px" y="0px"
	 viewBox="0 0 131 272" style="enable-background:new 0 0 131 272;" xml:space="preserve">
<style type="text/css">
	.st0{fill:#E5E5E5;}
	.st1{fill:url(#SVGID_1_);}
	.st2{fill:url(#SVGID_2_);}
	.st3{fill:url(#SVGID_3_);}
	.st4{opacity:0.33;fill:#E5E5E5;enable-background:new    ;}
	.st5{fill:url(#SVGID_4_);}
	.st6{fill:url(#SVGID_5_);}
	.st7{fill:url(#SVGID_6_);}
	.st8{fill:url(#SVGID_7_);}
	.st9{fill:url(#SVGID_8_);}
	.st10{fill:url(#SVGID_9_);}
	.st11{fill:url(#SVGID_10_);}
	.st12{fill:url(#SVGID_11_);}
	.st13{fill:url(#SVGID_12_);}
	.st14{fill:url(#SVGID_13_);}
	.st15{fill:url(#SVGID_14_);}
	.st16{clip-path:url(#SVGID_16_);}
	.st17{fill:url(#SVGID_17_);}
	.st18{fill:#FFFFFF;}
	.st19{fill:url(#SVGID_18_);}
	.st20{fill:url(#SVGID_19_);}
	.st21{fill:url(#SVGID_20_);}
	.st22{fill:url(#SVGID_21_);}
	.st23{fill:url(#SVGID_22_);}
	.st24{fill:url(#SVGID_23_);}
	.st25{fill:url(#SVGID_24_);}
	.st26{fill:url(#SVGID_25_);}
	.st27{fill:url(#SVGID_26_);}
	.st28{opacity:0.32;fill:#D6D6D6;enable-background:new    ;}
	.st29{opacity:0.27;fill:url(#SVGID_27_);stroke:#FFB83B;stroke-width:0.2;stroke-miterlimit:10;enable-background:new    ;}
	.st30{opacity:0.27;fill:url(#SVGID_28_);stroke:#FFB83B;stroke-width:0.2;stroke-miterlimit:10;enable-background:new    ;}
	.st31{fill:url(#SVGID_29_);}
	.st32{fill:url(#SVGID_30_);}
</style>
<title>3_White_LUXE (VIP sedan)
_1</title>
<g>
	<g id="Layer_2_1_">
		<g id="OBJECTS">
			
				<image style="overflow:visible;opacity:0.34;enable-background:new    ;" width="131" height="272" xlink:href="53E612FBDBA1C57F.png" >
			</image>
			<path class="st0" d="M110.4,39.1c0,0-6.7-18.9-22.5-20S65.5,18,65.5,18s-6.7,0-22.5,1.1s-22.5,20-22.5,20
				c-2.2,1.1-2.2,167.5-2.2,193c0,22.2,35.8,21.7,45,21.2c1.4-0.1,2.9-0.1,4.3,0c9.2,0.5,45,1,45-21.2
				C112.7,206.6,112.7,40.2,110.4,39.1z"/>
			
				<radialGradient id="SVGID_1_" cx="65.366" cy="139.9567" r="85.4607" gradientTransform="matrix(1 0 0 -1 0 274)" gradientUnits="userSpaceOnUse">
				<stop  offset="0" style="stop-color:#F3F3F3"/>
				<stop  offset="1" style="stop-color:#FFFFFF"/>
			</radialGradient>
			<path class="st1" d="M107.6,48c0-4.6-1.3-9.1-3.5-13.1c-3.6-6.5-10.2-10.7-17.6-11.4c-18.9-2.2-21.1-2.2-21.1-2.2
				s-2.2,0-21.1,2.2c-7.4,0.7-14,4.9-17.6,11.4c-2.3,4-3.5,8.5-3.5,13.1c-0.5,23.4-3,161.5,0.1,180.8c3,18.7,33.8,18.2,40.8,17.8
				c0.9,0,1.8,0,2.8,0c7,0.4,37.8,0.9,40.8-17.8C110.6,209.5,108.1,71.4,107.6,48z"/>
			
				<linearGradient id="SVGID_2_" gradientUnits="userSpaceOnUse" x1="24.3126" y1="78.0513" x2="31.9904" y2="78.0513" gradientTransform="matrix(1 0 0 -1 0 274)">
				<stop  offset="0" style="stop-color:#363B39"/>
				<stop  offset="1" style="stop-color:#1B1C1C"/>
			</linearGradient>
			<path class="st2" d="M27.8,176.1l2.2,1.1c0.8,0.4,1.3,1.1,1.3,2l0.7,26c0,0.2,0,0.3,0,0.5c-0.7,3-1.7,6-3,8.9l-0.1,0.2
				c-0.5,1.2-1.8,1.7-3,1.2c-0.8-0.4-1.4-1.2-1.4-2.1c-0.1-10.3-0.3-26.9,0-35.8c0-1.3,1.1-2.2,2.4-2.2
				C27.2,175.9,27.5,175.9,27.8,176.1z"/>
			
				<linearGradient id="SVGID_3_" gradientUnits="userSpaceOnUse" x1="99.01" y1="78.0422" x2="106.69" y2="78.0422" gradientTransform="matrix(1 0 0 -1 0 274)">
				<stop  offset="0" style="stop-color:#363B39"/>
				<stop  offset="1" style="stop-color:#1B1C1C"/>
			</linearGradient>
			<path class="st3" d="M103.2,176.1l-2.2,1.1c-0.8,0.4-1.3,1.1-1.3,2l-0.7,26c0,0.2,0,0.3,0,0.5c0.7,3,1.7,6,3,8.9l0.1,0.2
				c0.5,1.2,1.8,1.7,3,1.2c0.8-0.4,1.4-1.2,1.4-2.1c0.1-10.3,0.3-26.9,0-35.8c-0.1-1.3-1.1-2.2-2.4-2.2
				C103.8,175.9,103.5,175.9,103.2,176.1z"/>
			<path class="st0" d="M64.3,124.5c-10.5-0.3-17.6,1.3-22.2,3.2c-4.7,1.9-7.7,6.9-7.7,12.4c0.1,18.7,0.6,67.1,2,72.9
				c1.2,4.8,15.3,7,24.6,7.9c0.3,0,0.7,0,1,0h6.6c0.4,0,0.7,0,1,0c9.3-0.9,23.5-3.1,24.7-7.9c1.4-5.8,1.9-53.3,2-72.4
				c0-5.6-3.1-10.6-7.8-12.4C83.5,126.1,75.6,124.2,64.3,124.5z"/>
			<path class="st4" d="M40.6,24.8c0,0-16.3,5.4-16.1,26.5c0.1,18.7-0.2,28.1-0.2,28.1S27.6,32.4,40.6,24.8z"/>
			<path class="st4" d="M89.7,24.8c0,0,16.3,5.4,16.1,26.5C105.7,70,106,79.3,106,79.3S102.6,32.4,89.7,24.8z"/>
			<path class="st4" d="M57.3,74.6H46.9c-3.9,0-7-3.1-7-7V38.3c0-3.9,3.1-7,7-7h10.4c3.9,0,7,3.1,7,7v29.3
				C64.3,71.5,61.1,74.6,57.3,74.6z"/>
			<path class="st4" d="M87.2,74.6h-17c-2,0-3.7-1.6-3.7-3.7V35c0-2,1.6-3.7,3.7-3.7h17c2,0,3.7,1.6,3.7,3.7v35.9
				C90.9,72.9,89.2,74.6,87.2,74.6z"/>
			
				<linearGradient id="SVGID_4_" gradientUnits="userSpaceOnUse" x1="24.32" y1="144.6448" x2="38.4153" y2="144.6448" gradientTransform="matrix(1 0 0 -1 0 274)">
				<stop  offset="0" style="stop-color:#000000"/>
				<stop  offset="1" style="stop-color:#1B1C1C"/>
			</linearGradient>
			<path class="st5" d="M25.9,172.5c-0.6,0.3-1.2,0.1-1.5-0.5c-0.1-0.2-0.1-0.3-0.1-0.5v-77c0.1-3.5,2.2-6.7,5.3-8.3
				c0.6-0.3,1.2,0,1.5,0.5c0,0.1,0.1,0.2,0.1,0.3l7.1,36.5c0.1,0.6-0.2,1.1-0.7,1.3c-2.3,0.9-4.4,2.2-6.2,3.8
				c-0.3,0.2-0.4,0.5-0.4,0.9v39.8c0,0.4-0.2,0.8-0.6,1L25.9,172.5z"/>
			
				<linearGradient id="SVGID_5_" gradientUnits="userSpaceOnUse" x1="27.65" y1="133.72" x2="27.65" y2="170.5677" gradientTransform="matrix(1 0 0 -1 0 274)">
				<stop  offset="0" style="stop-color:#363B39"/>
				<stop  offset="1" style="stop-color:#1B1C1C"/>
			</linearGradient>
			<path class="st6" d="M27.2,103.9l1.6,17.7v16.6c0,1.1-0.5,2-1.1,2h-1.1V104C26.5,103.3,27.1,103.2,27.2,103.9z"/>
			
				<linearGradient id="SVGID_6_" gradientUnits="userSpaceOnUse" x1="27.6497" y1="847.86" x2="27.6497" y2="870.8" gradientTransform="matrix(1 0 0 1 0 -705.23)">
				<stop  offset="0" style="stop-color:#363B39"/>
				<stop  offset="1" style="stop-color:#1B1C1C"/>
			</linearGradient>
			<path class="st7" d="M26.5,165.6v-21.7c0-0.7,0.4-1.2,1.1-1.3c0,0,0,0,0,0l0,0c0.7,0,1.2,0.6,1.1,1.3v10.5L26.5,165.6z"/>
			
				<linearGradient id="SVGID_7_" gradientUnits="userSpaceOnUse" x1="-347.02" y1="144.2244" x2="-332.93" y2="144.2244" gradientTransform="matrix(-1 0 0 -1 -241.44 273.57)">
				<stop  offset="0" style="stop-color:#000000"/>
				<stop  offset="1" style="stop-color:#1B1C1C"/>
			</linearGradient>
			<path class="st8" d="M104.6,172.5c0.6,0.3,1.2,0.1,1.5-0.5c0.1-0.2,0.1-0.3,0.1-0.5l-0.3-77c-0.1-3.5-2.2-6.7-5.4-8.3
				c-0.6-0.3-1.2,0-1.5,0.5c0,0.1-0.1,0.2-0.1,0.3l-7,36.5c-0.1,0.6,0.2,1.1,0.7,1.3c2.3,0.9,4.4,2.2,6.3,3.8
				c0.3,0.2,0.4,0.5,0.4,0.9l0.2,39.8c0,0.4,0.2,0.8,0.6,1L104.6,172.5z"/>
			
				<linearGradient id="SVGID_8_" gradientUnits="userSpaceOnUse" x1="-344.205" y1="133.83" x2="-344.205" y2="170.6841" gradientTransform="matrix(-1 0 0 -1 -241.44 273.57)">
				<stop  offset="0" style="stop-color:#363B39"/>
				<stop  offset="1" style="stop-color:#1B1C1C"/>
			</linearGradient>
			<path class="st9" d="M103.1,103.9l-1.5,17.7l0.1,16.6c0,1.1,0.5,2,1.1,2h1.1l-0.1-36.3C103.8,103.3,103.2,103.2,103.1,103.9z"/>
			
				<linearGradient id="SVGID_9_" gradientUnits="userSpaceOnUse" x1="-342.6743" y1="848.6766" x2="-342.6743" y2="871.6111" gradientTransform="matrix(-1 3.839736e-03 3.839736e-03 1 -243.1448 -704.7345)">
				<stop  offset="0" style="stop-color:#363B39"/>
				<stop  offset="1" style="stop-color:#1B1C1C"/>
			</linearGradient>
			<path class="st10" d="M104,165.6l-0.1-21.7c0-0.7-0.5-1.2-1.1-1.3l0,0c-0.7,0-1.1,0.6-1.1,1.3v10.5L104,165.6z"/>
			
				<linearGradient id="SVGID_10_" gradientUnits="userSpaceOnUse" x1="28.42" y1="171.535" x2="102.42" y2="171.535" gradientTransform="matrix(1 0 0 -1 0 274)">
				<stop  offset="0" style="stop-color:#363B39"/>
				<stop  offset="1" style="stop-color:#1B1C1C"/>
			</linearGradient>
			<path class="st11" d="M47.9,118.5c8.2-1.3,26.8-1.3,35,0c5.1,0.8,10.1,2.3,14.7,4.6l4.8-31.5c-0.7-0.7-1.5-1.3-2.4-1.7
				c-5-2.6-10.3-4.5-15.8-5.9c-12.4-2.8-25.2-2.8-37.5,0c-5.5,1.3-10.8,3.3-15.8,5.8c-0.9,0.4-1.8,1-2.5,1.7l4.8,31.5
				C37.9,120.8,42.8,119.3,47.9,118.5z"/>
			
				<linearGradient id="SVGID_11_" gradientUnits="userSpaceOnUse" x1="33.19" y1="151.8138" x2="97.68" y2="151.8138" gradientTransform="matrix(1 0 0 -1 0 274)">
				<stop  offset="0" style="stop-color:#000000"/>
				<stop  offset="1" style="stop-color:#1B1C1C"/>
			</linearGradient>
			<path class="st12" d="M47.9,118.5c-5.1,0.8-10.1,2.3-14.7,4.6l0.6,3.8c4.7-2.5,9.7-4.2,14.9-5c7.8-1.3,25.7-1.3,33.5,0
				c5.2,0.8,10.3,2.5,14.9,5l0.6-3.8c-4.6-2.2-9.6-3.8-14.7-4.6C74.8,117.2,56.1,117.2,47.9,118.5z"/>
			
				<linearGradient id="SVGID_12_" gradientUnits="userSpaceOnUse" x1="28.1128" y1="189.205" x2="102.7738" y2="189.205" gradientTransform="matrix(1 0 0 -1 0 274)">
				<stop  offset="0" style="stop-color:#000000"/>
				<stop  offset="1" style="stop-color:#1B1C1C"/>
			</linearGradient>
			<path class="st13" d="M30.9,89.9c5-2.6,10.3-4.5,15.8-5.9c12.4-2.8,25.2-2.8,37.5,0c5.5,1.3,10.8,3.3,15.8,5.9
				c0.9,0.4,1.8,1,2.5,1.7v-0.1c0,0,0.5-2.8,0.2-3.5s-1.2-1.2-2.7-2c-5-2.5-10.3-4.5-15.8-5.8c-12.4-2.8-25.2-2.8-37.5,0
				c-5.8,1.4-11.5,3.4-16.9,5.9c-1.5,0.8-1.3,1.4-1.6,2s0.2,3.5,0.2,3.5v0.1C29.1,90.9,29.9,90.3,30.9,89.9z"/>
			
				<linearGradient id="SVGID_13_" gradientUnits="userSpaceOnUse" x1="31.1814" y1="41.7744" x2="98.395" y2="41.7744" gradientTransform="matrix(1 0 0 -1 0 274)">
				<stop  offset="0" style="stop-color:#000000"/>
				<stop  offset="1" style="stop-color:#1B1C1C"/>
			</linearGradient>
			<path class="st14" d="M31.4,233.7l7-11c0.3-0.5,0.9-0.7,1.4-0.5c16.3,4.8,33.3,4.4,51,0c0.6-0.1,1.1,0.1,1.4,0.6l6,10.9
				c0.3,0.6,0.1,1.4-0.5,1.7c0,0-0.1,0-0.1,0.1c-20.7,8.1-42.5,10.2-65.7-0.1c-0.6-0.2-0.8-0.9-0.6-1.5
				C31.3,233.8,31.3,233.8,31.4,233.7z"/>
			
				<linearGradient id="SVGID_14_" gradientUnits="userSpaceOnUse" x1="34.7539" y1="41.8254" x2="95.9146" y2="41.8254" gradientTransform="matrix(1 0 0 -1 0 274)">
				<stop  offset="0" style="stop-color:#363B39"/>
				<stop  offset="1" style="stop-color:#0C0D0D"/>
			</linearGradient>
			<path class="st15" d="M40.2,225.6c3.2,0.9,25.7,7.2,50.3,0c0.2-0.1,0.5,0,0.6,0.2l4.6,6.6c0.3,0.4,0.2,0.9-0.2,1.2
				c-0.1,0-0.1,0.1-0.2,0.1c-30,8.1-46.7,5.4-60.2,0.1c-0.4-0.2-0.6-0.7-0.4-1.1c0,0,0-0.1,0.1-0.1l4.7-6.7
				C39.7,225.6,40,225.5,40.2,225.6z"/>
			<g>
				<defs>
					<path id="SVGID_15_" d="M40.2,225.6c3.2,0.9,25.7,7.2,50.3,0c0.2-0.1,0.5,0,0.6,0.2l4.6,6.6c0.3,0.4,0.2,0.9-0.2,1.2
						c-0.1,0-0.1,0.1-0.2,0.1c-30,8.1-46.7,5.4-60.2,0.1c-0.4-0.2-0.6-0.7-0.4-1.1c0,0,0-0.1,0.1-0.1l4.7-6.7
						C39.7,225.6,40,225.5,40.2,225.6z"/>
				</defs>
				<clipPath id="SVGID_16_">
					<use xlink:href="#SVGID_15_"  style="overflow:visible;"/>
				</clipPath>
				<g class="st16">
					
						<linearGradient id="SVGID_17_" gradientUnits="userSpaceOnUse" x1="65.2703" y1="44.7104" x2="78.5103" y2="35.2904" gradientTransform="matrix(1 0 0 -1 0 274)">
						<stop  offset="0" style="stop-color:#363B39"/>
						<stop  offset="1" style="stop-color:#000000"/>
					</linearGradient>
					<path class="st17" d="M87.6,227.3c-3.3-1.4-6.7-2.4-10.2-3.1c-1.9-0.4-3.8-0.7-5.7-0.8c-5.1,5.3-11.2,15-13.7,19.1
						c6.2-0.3,12.4-0.2,18.6,0.4c3.3,0.4,6.5,1.2,9.5,2.5l3.1-17C88.8,227.8,88.2,227.5,87.6,227.3z"/>
				</g>
			</g>
			<path class="st18" d="M44.9,208.1c0,0.4-0.5,0.7-1,0.7l0,0c-0.6,0-1-0.3-1-0.7v-34.6c0-0.4,0.5-0.7,1-0.7l0,0c0.6,0,1,0.3,1,0.7
				V208.1z"/>
			<path class="st18" d="M49,208.1c0,0.4-0.5,0.7-1,0.7l0,0c-0.6,0-1-0.3-1-0.7v-34.6c0-0.4,0.5-0.7,1-0.7l0,0c0.6,0,1,0.3,1,0.7
				V208.1z"/>
			<path class="st18" d="M53.2,208.1c0,0.4-0.5,0.7-1,0.7l0,0c-0.6,0-1-0.3-1-0.7v-34.6c0-0.4,0.5-0.7,1-0.7l0,0c0.6,0,1,0.3,1,0.7
				V208.1z"/>
			<path class="st18" d="M57.3,208.1c0,0.4-0.5,0.7-1,0.7l0,0c-0.6,0-1-0.3-1-0.7v-34.6c0-0.4,0.5-0.7,1-0.7l0,0c0.6,0,1,0.3,1,0.7
				V208.1z"/>
			<path class="st18" d="M61.5,208.1c0,0.4-0.5,0.7-1,0.7l0,0c-0.6,0-1-0.3-1-0.7v-34.6c0-0.4,0.5-0.7,1-0.7l0,0c0.6,0,1,0.3,1,0.7
				V208.1z"/>
			<path class="st18" d="M65.7,208.1c0,0.4-0.4,0.7-1,0.7l0,0c-0.6,0-1-0.3-1-0.7v-34.6c0-0.4,0.5-0.7,1-0.7l0,0c0.6,0,1,0.3,1,0.7
				V208.1z"/>
			<path class="st18" d="M69.8,208.1c0,0.4-0.4,0.7-1,0.7l0,0c-0.6,0-1-0.3-1-0.7v-34.6c0-0.4,0.5-0.7,1-0.7l0,0c0.6,0,1,0.3,1,0.7
				V208.1z"/>
			<path class="st18" d="M74,208.1c0,0.4-0.5,0.7-1,0.7l0,0c-0.6,0-1-0.3-1-0.7v-34.6c0-0.4,0.5-0.7,1-0.7l0,0c0.6,0,1,0.3,1,0.7
				V208.1z"/>
			<path class="st18" d="M78.1,208.1c0,0.4-0.5,0.7-1,0.7l0,0c-0.6,0-1-0.3-1-0.7v-34.6c0-0.4,0.5-0.7,1-0.7l0,0c0.6,0,1,0.3,1,0.7
				V208.1z"/>
			<path class="st18" d="M82.3,208.1c0,0.4-0.5,0.7-1,0.7l0,0c-0.6,0-1-0.3-1-0.7v-34.6c0-0.4,0.5-0.7,1-0.7l0,0c0.6,0,1,0.3,1,0.7
				V208.1z"/>
			<path class="st18" d="M86.4,208.1c0,0.4-0.5,0.7-1,0.7l0,0c-0.6,0-1-0.3-1-0.7v-34.6c0-0.4,0.5-0.7,1-0.7l0,0c0.6,0,1,0.3,1,0.7
				V208.1z"/>
			
				<linearGradient id="SVGID_18_" gradientUnits="userSpaceOnUse" x1="36.3976" y1="168.3415" x2="58.4476" y2="134.5215" gradientTransform="matrix(1 0 0 -1 0 274)">
				<stop  offset="0" style="stop-color:#363B39"/>
				<stop  offset="1" style="stop-color:#1B1C1C"/>
			</linearGradient>
			<path class="st19" d="M88.7,158.8c0,3.3-4,6-9,6H48.9c-4.9,0-9-2.7-9-6v-20.5c0-3.3,4-6,9-6h30.8c4.9,0,9,2.7,9,6L88.7,158.8z"/>
			
				<linearGradient id="SVGID_19_" gradientUnits="userSpaceOnUse" x1="45.3514" y1="137.2822" x2="86.4614" y2="111.6822" gradientTransform="matrix(1 0 0 -1 0 274)">
				<stop  offset="0" style="stop-color:#363B39"/>
				<stop  offset="1" style="stop-color:#0C0D0D"/>
			</linearGradient>
			<path class="st20" d="M86.3,157.4c0,2.9-3.6,5.1-8.1,5.1H50.4c-4.5,0-8.1-2.3-8.1-5.1v-17.7c0-2.9,3.6-5.1,8.1-5.1h27.8
				c4.5,0,8.1,2.3,8.1,5.1V157.4z"/>
			
				<linearGradient id="SVGID_20_" gradientUnits="userSpaceOnUse" x1="58.7809" y1="132.7711" x2="76.7509" y2="117.0211" gradientTransform="matrix(1 0 0 -1 0 274)">
				<stop  offset="0" style="stop-color:#363B39"/>
				<stop  offset="1" style="stop-color:#000000"/>
			</linearGradient>
			<path class="st21" d="M82.4,135.3c-2,1.3-3.8,2.9-5.4,4.7c-3.3,4-4.9,8.7-9.8,11.3c-3.4,1.8-7,2.1-10,4.6c-1.8,1.5-3.9,3.4-5,5.5
				c-0.2,0.4-0.3,0.7-0.4,1.1h26.4c4.5,0,8.1-2.3,8.1-5.1v-17.7C86.3,137.8,84.8,136.2,82.4,135.3z"/>
			
				<linearGradient id="SVGID_21_" gradientUnits="userSpaceOnUse" x1="23.9627" y1="181.153" x2="32.0827" y2="163.313" gradientTransform="matrix(1 0 0 -1 0 274)">
				<stop  offset="0" style="stop-color:#363B39"/>
				<stop  offset="1" style="stop-color:#1B1C1C"/>
			</linearGradient>
			<path class="st22" d="M26,89.5c0,0-4,0.8-4.1,4.4s4,10.9,4.1,6.3S26.4,90.9,26,89.5z"/>
			
				<linearGradient id="SVGID_22_" gradientUnits="userSpaceOnUse" x1="12.5352" y1="177.4704" x2="23.55" y2="177.4704" gradientTransform="matrix(1 0 0 -1 0 274)">
				<stop  offset="0" style="stop-color:#FFFFFF"/>
				<stop  offset="1" style="stop-color:#D2D6D5"/>
			</linearGradient>
			<path class="st23" d="M21.3,93.6c0,0-7.6,2.6-8.4,3.9c-0.4,0.7-0.5,1.5-0.2,2.2l10.9-3.7C23.4,94.6,22.9,93,21.3,93.6z"/>
			
				<linearGradient id="SVGID_23_" gradientUnits="userSpaceOnUse" x1="12.54" y1="175.935" x2="23.62" y2="175.935" gradientTransform="matrix(1 0 0 -1 0 274)">
				<stop  offset="0" style="stop-color:#363B39"/>
				<stop  offset="1" style="stop-color:#1B1C1C"/>
			</linearGradient>
			<path class="st24" d="M12.7,99.6c0.1,0.2,0.1,0.4,0.2,0.7l10.7-3c0-0.5,0-0.9-0.1-1.4L12.7,99.6z"/>
			
				<linearGradient id="SVGID_24_" gradientUnits="userSpaceOnUse" x1="103.351" y1="182.9205" x2="112.671" y2="164.8805" gradientTransform="matrix(1 0 0 -1 0 274)">
				<stop  offset="0" style="stop-color:#363B39"/>
				<stop  offset="1" style="stop-color:#1B1C1C"/>
			</linearGradient>
			<path class="st25" d="M104.5,89.5c0,0,3.8,0.8,3.9,4.4s-3.8,10.9-3.9,6.3S104.2,90.9,104.5,89.5z"/>
			
				<linearGradient id="SVGID_25_" gradientUnits="userSpaceOnUse" x1="107.01" y1="177.5538" x2="118.007" y2="177.5538" gradientTransform="matrix(1 0 0 -1 0 274)">
				<stop  offset="0" style="stop-color:#FFFFFF"/>
				<stop  offset="1" style="stop-color:#D2D6D5"/>
			</linearGradient>
			<path class="st26" d="M117.6,97.4c-0.8-1.3-8.4-3.9-8.4-3.9c-1.5-0.6-2,0.9-2.2,2.2l10.9,3.7C118.1,98.8,118,98.1,117.6,97.4z"/>
			
				<linearGradient id="SVGID_26_" gradientUnits="userSpaceOnUse" x1="106.9166" y1="175.975" x2="117.9966" y2="175.975" gradientTransform="matrix(1 0 0 -1 0 274)">
				<stop  offset="0" style="stop-color:#363B39"/>
				<stop  offset="1" style="stop-color:#1B1C1C"/>
			</linearGradient>
			<path class="st27" d="M107,95.8c-0.1,0.5-0.1,1-0.1,1.6l10.7,3c0.1-0.3,0.2-0.5,0.3-0.8L107,95.8z"/>
			<path class="st28" d="M23.1,41.5L23.1,41.5c-1,1.4-3.3,1.6-2.9-0.1c0.3-1.7,0.8-3.3,1.5-4.8c2.6-4.1,6.5-12.2,15.1-15.9
				c7.4-3.2,1.1,3.3-0.8,5.1c-0.3,0.3-0.6,0.4-1,0.5c-1.5,0.1-6.3,1.4-11.7,14.9C23.2,41.3,23.2,41.4,23.1,41.5z"/>
			<path class="st28" d="M108.4,41.5L108.4,41.5c1,1.4,2.2,0.5,1.8-1.2c-0.3-1.3-0.8-2.6-1.5-3.7c-2.6-4.1-5.4-12.2-14-15.9
				c-7.4-3.2-1.1,3.3,0.8,5.1c0.3,0.3,0.6,0.4,1,0.5c1.5,0.1,6.3,1.4,11.7,14.9C108.3,41.3,108.3,41.4,108.4,41.5z"/>
			
				<linearGradient id="SVGID_27_" gradientUnits="userSpaceOnUse" x1="129.5963" y1="317.4944" x2="140.5347" y2="347.5477" gradientTransform="matrix(0.99 0.14 0.14 -0.99 -149.04 341.89)">
				<stop  offset="0.48" style="stop-color:#FCEE21"/>
				<stop  offset="1" style="stop-color:#42210B"/>
			</linearGradient>
			<path class="st29" d="M19.9,43.5c0.4-3.5,1.6-6.9,3.3-10C31,19.1,42.1,19.1,42.1,19.1c1.2,2.2,0.3,7.6-4.6,10.5
				C31.4,33.3,19.9,43.5,19.9,43.5z"/>
			
				<linearGradient id="SVGID_28_" gradientUnits="userSpaceOnUse" x1="-284.4023" y1="258.7264" x2="-273.3723" y2="289.0364" gradientTransform="matrix(-0.99 0.14 -0.14 -0.99 -138.52 341.89)">
				<stop  offset="0.48" style="stop-color:#FCEE21"/>
				<stop  offset="1" style="stop-color:#42210B"/>
			</linearGradient>
			<path class="st30" d="M110.9,43.5c0,0,0.2-3.8-3.3-10C98.7,18,88,19.1,88,19.1c-1.2,2.2-0.3,7.6,4.6,10.5
				C98.7,33.3,110.9,43.5,110.9,43.5z"/>
		</g>
	</g>
</g>
<g>
	
		<linearGradient id="SVGID_29_" gradientUnits="userSpaceOnUse" x1="37.3013" y1="-9.2491" x2="40.0349" y2="7.9511" gradientTransform="matrix(0.9876 -0.1571 -0.1571 -0.9876 53.279 249.7762)">
		<stop  offset="0" style="stop-color:#FF0000"/>
		<stop  offset="1" style="stop-color:#42210B"/>
	</linearGradient>
	<path class="st31" d="M103.9,235.7c2.3-0.5,4.3,1.5,6.3,2.8c0.2,0.1,0.3,0.2,0.5,0.3c-2.1,2-4.2,3.8-6.4,5.5
		c-3.1,2.3-6.3,4.2-9.7,5.5c-6.9,2.6-14.5,2.9-22,3.3c0.8-5.9,1.4-9.8,7.9-9.3C89.7,244.4,96,237.4,103.9,235.7z"/>
</g>
<g>
	
		<linearGradient id="SVGID_30_" gradientUnits="userSpaceOnUse" x1="54.0896" y1="-11.9201" x2="56.8232" y2="5.28" gradientTransform="matrix(-0.9876 -0.1571 0.1571 -0.9876 94.8585 249.7762)">
		<stop  offset="0" style="stop-color:#FF0000"/>
		<stop  offset="1" style="stop-color:#42210B"/>
	</linearGradient>
	<path class="st32" d="M50.7,243.7c6.5-0.4,7.2,3.4,7.9,9.3c-7.5-0.4-15.1-0.7-22-3.3c-3.4-1.3-6.6-3.2-9.7-5.5
		c-2.2-1.6-4.3-3.5-6.4-5.5c0.2-0.1,0.3-0.2,0.5-0.3c2-1.3,4-3.3,6.3-2.8C35.1,237.4,41.4,244.4,50.7,243.7z"/>
</g>
</svg>
