<?xml version="1.0" encoding="utf-8"?>
<!-- Generator: Adobe Illustrator 22.0.1, SVG Export Plug-In . SVG Version: 6.00 Build 0)  -->
<svg version="1.1" id="Layer_1" xmlns="http://www.w3.org/2000/svg" xmlns:xlink="http://www.w3.org/1999/xlink" x="0px" y="0px"
	 viewBox="0 0 126 250" style="enable-background:new 0 0 126 250;" xml:space="preserve">
<style type="text/css">
	.st0{fill:#E5E5E5;}
	.st1{fill:#9B9B9B;}
	.st2{fill:url(#SVGID_1_);}
	.st3{fill:url(#SVGID_2_);}
	.st4{fill:url(#SVGID_3_);}
	.st5{fill:url(#SVGID_4_);}
	.st6{fill:url(#SVGID_5_);}
	.st7{fill:url(#SVGID_6_);}
	.st8{fill:url(#SVGID_7_);}
	.st9{fill:url(#SVGID_8_);}
	.st10{fill:url(#SVGID_9_);}
	.st11{fill:url(#SVGID_10_);}
	.st12{fill:url(#SVGID_11_);}
	.st13{fill:url(#SVGID_12_);}
	.st14{fill:url(#SVGID_13_);}
	.st15{fill:url(#SVGID_14_);}
	.st16{fill:url(#SVGID_15_);}
	.st17{fill:url(#SVGID_16_);}
	.st18{fill:#595959;}
	.st19{fill:url(#SVGID_17_);}
	.st20{fill:#FFB600;}
	.st21{fill:#D6D6D6;}
	.st22{opacity:0.27;fill:url(#SVGID_18_);stroke:#FFB83B;stroke-width:0.2;stroke-miterlimit:10;enable-background:new    ;}
	.st23{opacity:0.27;fill:url(#SVGID_19_);stroke:#FFB83B;stroke-width:0.2;stroke-miterlimit:10;enable-background:new    ;}
	.st24{fill:url(#SVGID_20_);}
	.st25{fill:url(#SVGID_21_);}
</style>
<title>3_White_LUXE (VIP sedan)</title>
<g>
	<g id="Layer_2_1_">
		<g id="OBJECTS">
			
				<image style="overflow:visible;opacity:0.34;enable-background:new    ;" width="126" height="250" xlink:href="820A1F00F3D77903.png" >
			</image>
			<path class="st0" d="M106.2,49.9c-1-9.6-2.6-14.5-5.4-18.5c-1.2,0.3-2.5,0-3.5-0.8l-10.2-8.3c-1.1-0.9-1.7-2.2-1.9-3.6
				c-0.5-0.2-1-0.4-1.5-0.5v10.5H42V18.1l-1.5,0.5c-0.1,1.4-0.8,2.7-1.9,3.6l-10.2,8.3c-1,0.8-2.3,1.1-3.5,0.8
				c-2.8,4-4.4,8.9-5.4,18.5c-2.6,25.4,1.8,65.2,1.7,75c-0.6,52.4-1,84.2,2.1,95.3c0.7,2.2,2.2,4,4.1,5.2c0.5-0.2,1.1-0.4,1.6-0.4
				c3.6,0,5.4,2.6,9.4,1.9c2.7-0.5,3.5,1.9,3.8,3.7c2.4,0.4,4.8,0.7,7,0.9c0.4-0.6,1-0.9,1.7-0.9h23.6c0.7,0,1.3,0.4,1.7,1
				c1.7-0.2,3.4-0.4,5.2-0.7c0.2-1.7,1.1-4.5,3.9-4c4,0.8,7.8-3.9,11.4-3.9c1.1,0-1.4,2.3-0.9,2.9c2.5-1.5,6-2,6.4-5.8
				c1.2-11.4,2.7-42.9,2.1-95.3C104.4,115.2,108.9,75.3,106.2,49.9z"/>
			<path class="st1" d="M83.8,28.6V18.1C71.9,14,54,14,42,18.1v10.5H83.8z"/>
			
				<radialGradient id="SVGID_1_" cx="62.9299" cy="6457.249" r="43.6201" gradientTransform="matrix(1 0 0 -4.22 0 27400.0098)" gradientUnits="userSpaceOnUse">
				<stop  offset="0" style="stop-color:#F3F3F3"/>
				<stop  offset="1" style="stop-color:#FFFFFF"/>
			</radialGradient>
			<path class="st2" d="M103.6,51c-1.6-15.7-4.9-18.3-12.9-25.6c-10.9-10-44.8-10-55.7,0c-8,7.3-11.3,10-12.9,25.7
				c-2.5,24.1,1.7,61.9,1.6,71.2c-0.5,49.7-0.9,79.9,2,90.4c3.4,12.1,37.1,11.4,37.1,11.4s33.7,0.7,37.1-11.4
				c2.9-10.5,2.6-40.7,2-90.4C101.9,112.9,106.1,75.1,103.6,51z"/>
			
				<linearGradient id="SVGID_2_" gradientUnits="userSpaceOnUse" x1="32.32" y1="144.4875" x2="93.47" y2="144.4875" gradientTransform="matrix(1 0 0 -1 0 252)">
				<stop  offset="0" style="stop-color:#000000"/>
				<stop  offset="1" style="stop-color:#1B1C1C"/>
			</linearGradient>
			<path class="st3" d="M46.3,104.1c-4.8,0.7-9.6,2.1-14,4.2l0.5,3.5c4.4-2.3,9.2-3.8,14.1-4.6c7.4-1.2,24.3-1.2,31.8,0
				c5,0.7,9.8,2.3,14.2,4.6l0.5-3.5c-4.4-2-9.2-3.4-14-4.2C71.8,102.9,54.1,102.9,46.3,104.1z"/>
			
				<linearGradient id="SVGID_3_" gradientUnits="userSpaceOnUse" x1="27.52" y1="178.7263" x2="98.3915" y2="178.7263" gradientTransform="matrix(1 0 0 -1 0 252)">
				<stop  offset="0" style="stop-color:#000000"/>
				<stop  offset="1" style="stop-color:#1B1C1C"/>
			</linearGradient>
			<path class="st4" d="M30.2,78c4.8-2.3,9.8-4.1,15-5.3C56.9,70,69,70,80.8,72.7c5.2,1.2,10.2,3,15,5.3c0.8,0.3,1.6,0.8,2.2,1.5
				v-0.1c0,0,0.5-2.5,0.2-3.2s-1.1-1.1-2.5-1.8c-4.8-2.3-9.8-4.1-15-5.3c-11.7-2.6-23.9-2.6-35.6,0c-5.2,1.2-10.2,3-15,5.3
				c-1.4,0.7-2.3,1.2-2.5,1.8s0.2,3.2,0.2,3.2v0.1C28.4,78.8,29.2,78.3,30.2,78z"/>
			
				<linearGradient id="SVGID_4_" gradientUnits="userSpaceOnUse" x1="27.83" y1="162.47" x2="98.08" y2="162.47" gradientTransform="matrix(1 0 0 -1 0 252)">
				<stop  offset="0" style="stop-color:#363B39"/>
				<stop  offset="1" style="stop-color:#1B1C1C"/>
			</linearGradient>
			<path class="st5" d="M46.3,104.1c7.8-1.2,25.4-1.2,33.2,0c4.8,0.7,9.6,2.1,14,4.2L98,79.5c-0.7-0.7-1.5-1.2-2.3-1.5
				c-4.8-2.3-9.8-4.1-15-5.3C69,70,56.8,70,45.1,72.7c-5.2,1.2-10.2,3-15,5.3c-0.9,0.3-1.7,0.9-2.3,1.5l4.5,28.8
				C36.7,106.3,41.5,104.9,46.3,104.1z"/>
			
				<linearGradient id="SVGID_5_" gradientUnits="userSpaceOnUse" x1="30.1649" y1="52.0338" x2="95.5454" y2="52.0338" gradientTransform="matrix(1 0 0 -1 0 252)">
				<stop  offset="0" style="stop-color:#000000"/>
				<stop  offset="1" style="stop-color:#1B1C1C"/>
			</linearGradient>
			<path class="st6" d="M94.1,187.4c-0.3-1.2-0.6-2.5-0.9-3.8c0,0-0.4,0.2-1.3,0.6c-3.2,1.3-12.6,4.4-29,4.4c-15,0-25.4-3.2-29-4.5
				c-0.9-0.3-1.3-0.5-1.3-0.5c-0.3,1.2-0.6,2.4-0.9,3.6c-1.5,7.6-1.9,15.4-1.3,23.2c5.1,2.2,10.5,3.8,16,4.8
				c7.3,1.4,25.5,1.4,32.8,0c5.5-1,10.9-2.6,16-4.8C95.9,202.8,95.5,195,94.1,187.4z M93.1,207.4c-4.8,2.2-9.8,3.8-14.9,4.8
				c-6.8,1.4-23.7,1.4-30.5,0c-5.1-1-10.1-2.6-14.9-4.8c-0.5-6.6-0.3-13.2,0.6-19.7c9.7,2.5,19.6,3.7,29.6,3.6
				c14.7,0,24.4-2,29.6-3.4C93.4,194.4,93.6,200.9,93.1,207.4L93.1,207.4z"/>
			
				<linearGradient id="SVGID_6_" gradientUnits="userSpaceOnUse" x1="32.5045" y1="51.5037" x2="93.3505" y2="51.5037" gradientTransform="matrix(1 0 0 -1 0 252)">
				<stop  offset="0" style="stop-color:#363B39"/>
				<stop  offset="1" style="stop-color:#1B1C1C"/>
			</linearGradient>
			<path class="st7" d="M33.4,187.8c-0.9,6.5-1.1,13.1-0.6,19.7c4.8,2.2,9.8,3.8,14.9,4.8c6.8,1.4,23.7,1.4,30.5,0
				c5.1-1,10.1-2.6,14.9-4.8c0.5-6.5,0.3-13.1-0.6-19.6c-5.2,1.5-14.8,3.4-29.6,3.4C53,191.4,43,190.2,33.4,187.8z"/>
			
				<linearGradient id="SVGID_7_" gradientUnits="userSpaceOnUse" x1="25.1222" y1="140.955" x2="32.0422" y2="140.955" gradientTransform="matrix(1 0 0 -1 0 252)">
				<stop  offset="0" style="stop-color:#363B39"/>
				<stop  offset="1" style="stop-color:#1B1C1C"/>
			</linearGradient>
			<path class="st8" d="M26.1,141.4l5.9,2.3l-1-29.8l-5.7-35.3c0,0-0.5,9.1,0,22c0.3,8.2,1.2,19.5,1.2,26.8
				C26.5,134.2,26.3,138.9,26.1,141.4z"/>
			
				<linearGradient id="SVGID_8_" gradientUnits="userSpaceOnUse" x1="93.82" y1="140.955" x2="100.74" y2="140.955" gradientTransform="matrix(1 0 0 -1 0 252)">
				<stop  offset="0" style="stop-color:#363B39"/>
				<stop  offset="1" style="stop-color:#1B1C1C"/>
			</linearGradient>
			<path class="st9" d="M99.8,141.4l-6,2.3l1-29.8l5.7-35.3c0,0,0.5,9.1,0,22c-0.3,8.2-1.2,19.5-1.2,26.8
				C99.3,134.2,99.5,139,99.8,141.4z"/>
			
				<linearGradient id="SVGID_9_" gradientUnits="userSpaceOnUse" x1="25.61" y1="86.16" x2="32.76" y2="86.16" gradientTransform="matrix(1 0 0 -1 0 252)">
				<stop  offset="0" style="stop-color:#363B39"/>
				<stop  offset="1" style="stop-color:#1B1C1C"/>
			</linearGradient>
			<path class="st10" d="M25.9,144.1l6.2,2.9l0.7,24.9c-0.6,2.8-1.6,5.6-2.8,8.2c-2.6,5.8-4,7.4-4,7.4S25.2,153.4,25.9,144.1z"/>
			
				<linearGradient id="SVGID_10_" gradientUnits="userSpaceOnUse" x1="93.09" y1="86.16" x2="100.2397" y2="86.16" gradientTransform="matrix(1 0 0 -1 0 252)">
				<stop  offset="0" style="stop-color:#363B39"/>
				<stop  offset="1" style="stop-color:#1B1C1C"/>
			</linearGradient>
			<path class="st11" d="M99.9,144.1l-6.2,2.9l-0.7,24.9c0.6,2.8,1.6,5.6,2.8,8.2c2.6,5.8,4,7.4,4,7.4S100.6,153.4,99.9,144.1z"/>
			<path class="st0" d="M62.9,109.5c-21.8-0.6-29.1,3.9-29.1,3.9s0.3,59,1.9,64.9c1.1,4,14.9,5.7,23.6,6.5h7.2
				c8.7-0.7,22.5-2.5,23.6-6.5c1.7-5.9,1.9-64.9,1.9-64.9S84.7,109,62.9,109.5z"/>
			<path class="st0" d="M38.7,24.1C30.4,29.4,25,38.2,24.1,48c-1.4,16.8-1.2,25.3-1.2,25.3S27.4,33.1,38.7,24.1z"/>
			<path class="st0" d="M87.3,24.1c8.3,5.3,13.6,14.1,14.5,23.9c1.4,16.8,1.2,25.3,1.2,25.3S98.5,33.1,87.3,24.1z"/>
			
				<linearGradient id="SVGID_11_" gradientUnits="userSpaceOnUse" x1="99.2386" y1="169.9093" x2="107.6386" y2="153.6493" gradientTransform="matrix(1 0 0 -1 0 252)">
				<stop  offset="0" style="stop-color:#363B39"/>
				<stop  offset="1" style="stop-color:#1B1C1C"/>
			</linearGradient>
			<path class="st12" d="M100.3,80.7c0,0,3.4,0.8,3.5,4s-3.4,9.9-3.5,5.7S100,81.9,100.3,80.7z"/>
			
				<linearGradient id="SVGID_12_" gradientUnits="userSpaceOnUse" x1="102.45" y1="165.0638" x2="112.44" y2="165.0638" gradientTransform="matrix(1 0 0 -1 0 252)">
				<stop  offset="0" style="stop-color:#FFFFFF"/>
				<stop  offset="1" style="stop-color:#D2D6D5"/>
			</linearGradient>
			<path class="st13" d="M112.1,87.8c-0.8-1.1-7.6-3.5-7.6-3.5c-1.3-0.5-1.8,0.8-2,2l9.8,3.3C112.5,89,112.4,88.4,112.1,87.8z"/>
			
				<linearGradient id="SVGID_13_" gradientUnits="userSpaceOnUse" x1="102.4561" y1="163.66" x2="112.4461" y2="163.66" gradientTransform="matrix(1 0 0 -1 0 252)">
				<stop  offset="0" style="stop-color:#363B39"/>
				<stop  offset="1" style="stop-color:#1B1C1C"/>
			</linearGradient>
			<path class="st14" d="M102.5,86.3c-0.1,0.5-0.1,0.9-0.1,1.4l9.7,2.7c0.1-0.2,0.2-0.5,0.2-0.7L102.5,86.3z"/>
			
				<linearGradient id="SVGID_14_" gradientUnits="userSpaceOnUse" x1="23.7086" y1="168.5594" x2="31.0286" y2="152.4794" gradientTransform="matrix(1 0 0 -1 0 252)">
				<stop  offset="0" style="stop-color:#363B39"/>
				<stop  offset="1" style="stop-color:#1B1C1C"/>
			</linearGradient>
			<path class="st15" d="M25.5,80.5c0,0-3.6,0.8-3.7,4s3.6,9.9,3.7,5.7S25.9,81.7,25.5,80.5z"/>
			
				<linearGradient id="SVGID_15_" gradientUnits="userSpaceOnUse" x1="13.3723" y1="165.2083" x2="23.3623" y2="165.2083" gradientTransform="matrix(1 0 0 -1 0 252)">
				<stop  offset="0" style="stop-color:#D2D6D5"/>
				<stop  offset="1" style="stop-color:#FFFFFF"/>
			</linearGradient>
			<path class="st16" d="M21.3,84.1c0,0-6.9,2.4-7.6,3.5c-0.4,0.6-0.4,1.3-0.2,2l9.8-3.4C23.2,85,22.7,83.6,21.3,84.1z"/>
			
				<linearGradient id="SVGID_16_" gradientUnits="userSpaceOnUse" x1="13.38" y1="163.825" x2="23.37" y2="163.825" gradientTransform="matrix(1 0 0 -1 0 252)">
				<stop  offset="0" style="stop-color:#363B39"/>
				<stop  offset="1" style="stop-color:#1B1C1C"/>
			</linearGradient>
			<path class="st17" d="M13.5,89.6c0.1,0.2,0.1,0.4,0.2,0.6l9.7-2.7c0-0.4,0-0.8,0-1.3L13.5,89.6z"/>
			<path class="st18" d="M21.4,123.4c-0.5,0.1-0.9,0.5-0.9,1v8.4c0,0.5,0.4,0.9,0.9,1V123.4z"/>
			<path class="st18" d="M21,165.4c-0.5,0.1-0.9,0.5-0.9,1v8.4c0,0.5,0.4,0.9,0.9,1V165.4z"/>
			<path class="st18" d="M104.4,123.4c0.5,0.1,0.9,0.5,0.9,1v8.4c0,0.5-0.4,0.9-0.9,1V123.4z"/>
			<path class="st18" d="M104.9,165.4c0.5,0,0.9,0.5,0.9,1v8.4c0,0.5-0.4,1-0.9,1V165.4z"/>
			<path class="st1" d="M74.7,230.7H51.1c-0.7,0-1.3,0.4-1.7,0.9c4.5,0.5,9,0.7,13.5,0.6c4.5,0,9-0.2,13.4-0.6
				C76,231.1,75.4,230.7,74.7,230.7z"/>
			
				<linearGradient id="SVGID_17_" gradientUnits="userSpaceOnUse" x1="47.9888" y1="80.7092" x2="64.1188" y2="55.9792" gradientTransform="matrix(1 0 0 -1 0 252)">
				<stop  offset="0" style="stop-color:#363B39"/>
				<stop  offset="1" style="stop-color:#000000"/>
			</linearGradient>
			<path class="st19" d="M92.5,187.9c-5.2,1.5-14.8,3.4-29.6,3.4c-3,0-5.8-0.1-8.5-0.3c-8.5,3.9-13.6,16-14.8,19.1
				c2.6,0.9,5.3,1.6,8,2.1c6.8,1.4,23.7,1.4,30.5,0c5.1-1,10.1-2.6,14.9-4.8C93.5,201,93.4,194.4,92.5,187.9z"/>
			<path class="st20" d="M25,31.4c1.2,0.3,2.5,0,3.5-0.8l1.6-1.3l-0.5-2.9C27.8,27.9,26.3,29.6,25,31.4z"/>
			<path class="st21" d="M29.5,26.4l0.5,2.9l8.6-7c1.1-0.9,1.7-2.2,1.9-3.6c-2.6,1-5.1,2.4-7.2,4.2C31.9,24.1,30.7,25.3,29.5,26.4z"
				/>
			<path class="st20" d="M96.1,26.2l-0.2,3.2l1.4,1.2c1,0.8,2.3,1.1,3.5,0.8C99.4,29.5,97.9,27.8,96.1,26.2z"/>
			<path class="st21" d="M92.5,22.9c-2.1-1.8-4.6-3.3-7.2-4.2c0.1,1.4,0.8,2.7,1.9,3.6l8.8,7.1l0.2-3.2C95,25.2,93.8,24.1,92.5,22.9
				z"/>
			
				<linearGradient id="SVGID_18_" gradientUnits="userSpaceOnUse" x1="73.0078" y1="285.1465" x2="82.4033" y2="310.9617" gradientTransform="matrix(0.99 0.14 0.14 -0.99 -86.48 313.11)">
				<stop  offset="0.48" style="stop-color:#FCEE21"/>
				<stop  offset="1" style="stop-color:#42210B"/>
			</linearGradient>
			<path class="st22" d="M22,39c0.3-2.9,1.3-5.6,3-8c6-9,16-13,16-13s2.4,6.2-3.1,9.5S22,39,22,39z"/>
			
				<linearGradient id="SVGID_19_" gradientUnits="userSpaceOnUse" x1="-933.7286" y1="142.4416" x2="-924.3331" y2="168.2567" gradientTransform="matrix(-0.99 0.14 -0.14 -0.99 -804.01 313.11)">
				<stop  offset="0.48" style="stop-color:#FCEE21"/>
				<stop  offset="1" style="stop-color:#42210B"/>
			</linearGradient>
			<path class="st23" d="M104.5,40c-0.3-2.9-1.3-5.6-3-8c-6-9-16-13-16-13s-2.4,6.2,3.1,9.5S104.5,40,104.5,40z"/>
		</g>
	</g>
</g>
<linearGradient id="SVGID_20_" gradientUnits="userSpaceOnUse" x1="19.5514" y1="23.5287" x2="55.5807" y2="23.5287" gradientTransform="matrix(1.0294 -0.2727 -0.1702 -1.028 9.0763 260.0147)">
	<stop  offset="0" style="stop-color:#FF0000"/>
	<stop  offset="1" style="stop-color:#42210B"/>
</linearGradient>
<path class="st24" d="M54.3,222.9c5.6-3.1,8.6,4.5,9.9,9.4c-6.1,0.3-14.9-0.1-22.8-1.7c-2.8-0.6-5.4-1.3-7.8-2.2
	c-4.5-1.6-8.1-3.9-9.9-6.9c1.1-2.2,2.9-3.7,4.9-4C36.1,215.6,46.4,227.3,54.3,222.9z"/>
<linearGradient id="SVGID_21_" gradientUnits="userSpaceOnUse" x1="47.3185" y1="16.0255" x2="83.3477" y2="16.0255" gradientTransform="matrix(-1.0294 -0.2727 0.1702 -1.028 146.5573 260.0147)">
	<stop  offset="0" style="stop-color:#FF0000"/>
	<stop  offset="1" style="stop-color:#42210B"/>
</linearGradient>
<path class="st25" d="M97.2,217.7c2,0.3,3.8,1.8,4.9,4c-1.8,3-5.4,5.3-9.9,6.9c-2.4,0.9-5.1,1.6-7.8,2.2c-7.9,1.6-16.6,2-22.8,1.7
	c1.4-4.9,4.3-12.5,9.9-9.4C79.4,227.4,89.7,215.7,97.2,217.7z"/>
</svg>
