<?xml version="1.0" encoding="UTF-8" standalone="no"?>
<svg width="25px" height="25px" viewBox="0 0 25 25" version="1.1" xmlns="http://www.w3.org/2000/svg" xmlns:xlink="http://www.w3.org/1999/xlink" xmlns:sketch="http://www.bohemiancoding.com/sketch/ns">
    <!-- Generator: sketchtool 3.5.1 (25234) - http://www.bohemiancoding.com/sketch -->
    <title>icom_checked</title>
    <desc>Created with sketchtool.</desc>
    <defs></defs>
    <g id="educator" stroke="none" stroke-width="1" fill="none" fill-rule="evenodd" sketch:type="MSPage">
        <g id="03_register" sketch:type="MSArtboardGroup" transform="translate(-383.000000, -1066.000000)">
            <g id="icom_checked" sketch:type="MSLayerGroup" transform="translate(383.000000, 1066.000000)">
                <rect id="Rectangle-605-Copy-2" stroke="#17A5E0" sketch:type="MSShapeGroup" x="0" y="3.94736842" width="21.0526316" height="21.0526316" rx="2"></rect>
                <g id="noun_147283" transform="translate(2.631579, 0.000000)" fill="#3FB4E1" sketch:type="MSShapeGroup">
                    <path d="M5.37214912,12.8609907 C6.0720943,13.5551084 7.31695906,15.2024768 7.31695906,15.2024768 C7.31695906,15.2024768 10.7570358,10.4359133 13.8824013,7.25572755 C17.5918311,3.01826625 21.9412463,0.0126934985 21.9412463,0.0126934985 C22.0965826,0.154489164 22.5218933,0.504643963 21.9412463,1.08328173 C20.3102156,2.70897833 16.0773026,8.0495356 13.5919225,11.9582043 C11.5063779,15.1034056 9.39131944,19.7027864 9.39131944,19.7027864 L6.25228436,20.9947368 C6.25228436,20.9947368 4.61752558,17.9408669 4.07757675,17.0860681 C2.65997807,14.8414861 1.71118421,13.7588235 1.71118421,13.7588235 L0.619170322,13.5572755 L0.064619883,13.4547988 C0.064619883,13.4544892 3.45809576,11.0080495 3.62461623,11.093808 C3.97940424,11.2767802 4.67220395,12.1668731 5.37214912,12.8609907 Z" id="Shape"></path>
                </g>
            </g>
        </g>
    </g>
</svg>