<?xml version="1.0" encoding="UTF-8" standalone="no"?>
<svg width="60px" height="45px" viewBox="0 0 60 45" version="1.1" xmlns="http://www.w3.org/2000/svg" xmlns:xlink="http://www.w3.org/1999/xlink">
    <!-- Generator: sketchtool 3.6.1 (26313) - http://www.bohemiancoding.com/sketch -->
    <title>icon_location_normal copy</title>
    <desc>Created with sketchtool.</desc>
    <defs></defs>
    <g id="educator" stroke="none" stroke-width="1" fill="none" fill-rule="evenodd">
        <g id="01_landing_page" transform="translate(-321.000000, -1437.000000)" fill="#29ABE2">
            <g id="Group-19" transform="translate(214.000000, 1437.000000)">
                <g id="icon_location_normal-copy" transform="translate(107.000000, 0.000000)">
                    <g id="Group">
                        <path d="M56.0663051,45 L4.39919118,45 C3.09584559,45 1.91079044,44.2853571 1.30643382,43.1335714 C0.702077206,41.9828571 0.790257353,40.605 1.5333364,39.5389286 L11.6063051,25.1025 L13.3731342,26.3271429 L3.30016544,40.7625 C3.00981618,41.1782143 2.97755515,41.6935714 3.21198529,42.1425 C3.44749081,42.5892857 3.89161765,42.8571429 4.39919118,42.8571429 L56.0663051,42.8571429 C56.5738787,42.8571429 57.0180055,42.5892857 57.253511,42.1414286 C57.4890165,41.6925 57.4556801,41.1771429 57.1653309,40.7603571 L47.0923621,26.3260714 L48.8591912,25.1014286 L58.9321599,39.5367857 C59.6763143,40.6039286 59.7634191,41.9817857 59.1590625,43.1325 C58.5557812,44.2853571 57.3707261,45 56.0663051,45 L56.0663051,45 Z" id="Shape"></path>
                        <g transform="translate(15.909926, 0.000000)" id="Shape">
                            <path d="M13.4420956,36.4285714 C9.54711397,36.4285714 0,20.0667857 0,13.3928571 C0,6.0075 6.0295864,0 13.4420956,0 C20.8546048,0 26.8841912,6.0075 26.8841912,13.3928571 C26.8841912,20.0667857 17.3370772,36.4285714 13.4420956,36.4285714 L13.4420956,36.4285714 Z M13.4420956,2.14285714 C7.21571691,2.14285714 2.15073529,7.18928571 2.15073529,13.3928571 C2.15073529,19.9125 11.2537224,33.8035714 13.4324173,34.2803571 C15.783171,33.6567857 24.7334559,19.8 24.7334559,13.3928571 C24.7334559,7.18928571 19.6684743,2.14285714 13.4420956,2.14285714 L13.4420956,2.14285714 Z"></path>
                            <path d="M13.4420956,21.9642857 C8.994375,21.9642857 5.37683824,18.36 5.37683824,13.9285714 C5.37683824,9.49714286 8.994375,5.89285714 13.4420956,5.89285714 C17.8898162,5.89285714 21.5073529,9.49714286 21.5073529,13.9285714 C21.5073529,18.36 17.8898162,21.9642857 13.4420956,21.9642857 L13.4420956,21.9642857 Z M13.4420956,8.03571429 C10.1805055,8.03571429 7.52757353,10.68 7.52757353,13.9285714 C7.52757353,17.1771429 10.1805055,19.8214286 13.4420956,19.8214286 C16.7036857,19.8214286 19.3566176,17.1771429 19.3566176,13.9285714 C19.3566176,10.68 16.7036857,8.03571429 13.4420956,8.03571429 L13.4420956,8.03571429 Z"></path>
                        </g>
                    </g>
                </g>
            </g>
        </g>
    </g>
</svg>