<?xml version="1.0" encoding="UTF-8" standalone="no"?>
<svg width="37px" height="37px" viewBox="0 0 37 37" version="1.1" xmlns="http://www.w3.org/2000/svg" xmlns:xlink="http://www.w3.org/1999/xlink" xmlns:sketch="http://www.bohemiancoding.com/sketch/ns">
    <!-- Generator: sketchtool 3.5.1 (25234) - http://www.bohemiancoding.com/sketch -->
    <title>icon_number</title>
    <desc>Created with sketchtool.</desc>
    <defs></defs>
    <g id="Page-2" stroke="none" stroke-width="1" fill="none" fill-rule="evenodd" sketch:type="MSPage">
        <g id="08_choose_preferences-copy" sketch:type="MSArtboardGroup" transform="translate(-1219.000000, -58.000000)" fill="#29ABE2">
            <g id="Group" sketch:type="MSLayerGroup" transform="translate(1219.000000, 58.000000)">
                <g id="icon_number" transform="translate(0.000000, 0.070707)" sketch:type="MSShapeGroup">
                    <path d="M27.9270537,24.5503276 C27.9708779,24.8822762 27.8685617,25.1708964 27.6205346,25.4161881 L24.7086031,28.2734217 C24.5772378,28.4177318 24.4057689,28.5405015 24.1941247,28.6414124 C23.9824806,28.7424649 23.7745213,28.8074044 23.5702467,28.836231 C23.5556506,28.836231 23.5117548,28.8399449 23.4387383,28.8471604 C23.3658649,28.8543405 23.27099,28.858019 23.1542208,28.858019 C22.8768224,28.858019 22.4279551,28.8111183 21.8076189,28.7172813 C21.1872826,28.6234444 20.4283187,28.3925129 19.5307272,28.0245929 C18.632921,27.6566022 17.6148755,27.1045454 16.4764118,26.3686347 C15.3379481,25.6327594 14.126432,24.622518 12.8419711,23.3381229 C11.8202408,22.3423833 10.9736642,21.3899367 10.3022414,20.4808186 C9.63081865,19.5716297 9.09076119,18.7310234 8.68206906,17.9589645 C8.27334116,17.1869055 7.96682207,16.4870016 7.762476,15.8592527 C7.55812994,15.2315039 7.41946654,14.690341 7.3464858,14.2357643 C7.27350506,13.7811875 7.24431277,13.42402 7.25890892,13.1642619 C7.27350506,12.9045037 7.28080314,12.7601937 7.28080314,12.7313316 C7.30999543,12.5292975 7.3756781,12.3236556 7.47785113,12.114406 C7.58002416,11.9051564 7.70409141,11.7355921 7.85005289,11.605713 L10.7619843,8.72672677 C10.9663304,8.52469265 11.1998687,8.42367559 11.4625994,8.42367559 C11.6523493,8.42367559 11.820205,8.47779188 11.9661665,8.58602444 C12.1121279,8.694257 12.2361952,8.82774383 12.3383682,8.98648493 L14.6810499,13.380727 C14.8124152,13.6116232 14.8489056,13.8641658 14.790521,14.138355 C14.7321364,14.4125441 14.6080691,14.6434403 14.4183192,14.8310434 L13.3455024,15.8917225 C13.3163101,15.9205845 13.2907668,15.9674853 13.2688726,16.0324248 C13.2469784,16.0973644 13.2360313,16.1514807 13.2360313,16.1947737 C13.2944159,16.4978249 13.4257812,16.8441691 13.6301273,17.2338063 C13.805281,17.5801505 14.0753098,18.0022575 14.4402134,18.5001273 C14.8051171,18.9979971 15.3232804,19.5715943 15.9947031,20.2209897 C16.6515298,20.8848868 17.2353757,21.4007246 17.7462408,21.7687861 C18.2569987,22.1366353 18.6840791,22.4073229 19.0270885,22.580495 C19.370098,22.7536671 19.6328287,22.8582919 19.8152447,22.8942633 L20.0888509,22.9484149 C20.1180432,22.9484149 20.165588,22.9375563 20.2311992,22.9159452 C20.2968818,22.8942633 20.3443193,22.8690444 20.3735474,22.840147 L21.6214822,21.5846493 C21.8843559,21.3537885 22.1907319,21.2383404 22.5410753,21.2383404 C22.7892813,21.2383404 22.986222,21.2815981 23.1321835,21.3682195 L23.1540419,21.3682195 L27.3795908,23.835922 C27.6862172,24.0236665 27.8686333,24.2617074 27.9270537,24.5503276 L27.9270537,24.5503276 Z M18.1802035,36.0701402 C28.1927088,36.0701402 36.3094481,27.9976986 36.3094481,18.0398372 C36.3094481,8.08197581 28.1927088,0.00953418061 18.1802035,0.00953418061 C8.16769811,0.00953418061 0.0509588051,8.08197581 0.0509588051,18.0398372 C0.0509588051,27.9976986 8.16769811,36.0701402 18.1802035,36.0701402 Z" id="Shape"></path>
                </g>
            </g>
        </g>
    </g>
</svg>