<?xml version="1.0" encoding="UTF-8" standalone="no"?>
<svg width="23px" height="18px" viewBox="0 0 23 18" version="1.1" xmlns="http://www.w3.org/2000/svg" xmlns:xlink="http://www.w3.org/1999/xlink" xmlns:sketch="http://www.bohemiancoding.com/sketch/ns">
    <!-- Generator: sketchtool 3.5.1 (25234) - http://www.bohemiancoding.com/sketch -->
    <title>icon_eye</title>
    <desc>Created with sketchtool.</desc>
    <defs></defs>
    <g id="Page-2" stroke="none" stroke-width="1" fill="none" fill-rule="evenodd" sketch:type="MSPage">
        <g id="08_choose_preferences-copy" sketch:type="MSArtboardGroup" transform="translate(-961.000000, -1324.000000)" fill="#29ABE2">
            <g id="eye-+-youtube1-+-speech-bubble19" sketch:type="MSLayerGroup" transform="translate(961.000000, 1324.000000)">
                <g id="icon_eye" sketch:type="MSShapeGroup">
                    <g id="eye">
                        <g id="Group">
                            <path d="M11.5,0 C5.149125,0 0,8.512875 0,8.512875 C0,8.512875 5.149125,17.25 11.5,17.25 C17.850875,17.25 23,8.512875 23,8.512875 C23,8.512875 17.850875,0 11.5,0 L11.5,0 Z M11.5,14.375 C8.3245625,14.375 5.75,11.8004375 5.75,8.625 C5.75,5.4495625 8.3245625,2.875 11.5,2.875 C14.6754375,2.875 17.25,5.4495625 17.25,8.625 C17.25,11.8004375 14.6754375,14.375 11.5,14.375 L11.5,14.375 Z" id="Shape"></path>
                            <circle id="Oval" cx="11.5" cy="8.6365" r="2.875"></circle>
                        </g>
                    </g>
                </g>
            </g>
        </g>
    </g>
</svg>