<?xml version="1.0" encoding="UTF-8" standalone="no"?>
<svg width="25px" height="25px" viewBox="0 0 25 25" version="1.1" xmlns="http://www.w3.org/2000/svg" xmlns:xlink="http://www.w3.org/1999/xlink" xmlns:sketch="http://www.bohemiancoding.com/sketch/ns">
    <!-- Generator: sketchtool 3.5.2 (25235) - http://www.bohemiancoding.com/sketch -->
    <title>icon_post_code_red</title>
    <desc>Created with sketchtool.</desc>
    <defs></defs>
    <g id="educator" stroke="none" stroke-width="1" fill="none" fill-rule="evenodd" sketch:type="MSPage">
        <g id="06_profile-copy-2error_message" sketch:type="MSArtboardGroup" transform="translate(-1019.000000, -1161.000000)" fill="#D62A2A">
            <g id="Group-Copy-4" sketch:type="MSLayerGroup" transform="translate(591.000000, 1143.000000)">
                <g id="noun_35630_cc" transform="translate(428.000000, 18.000000)" sketch:type="MSShapeGroup">
                    <g id="Group">
                        <path d="M20.9875,0.451 C17.715,0.416 8.35,0.4115 8.35,0.4115 C8.468,0.689 13.1105,-0.4785 13.15,9.203 C13.15,9.9125 13.0935,10.5975 12.9965,11.256 L12.472,11.256 C12.5405,10.6405 12.5815,10.0005 12.5815,9.3365 C12.5815,4.8655 10.9495,1.241 8.937,1.241 C6.9245,1.241 5.293,4.8655 5.293,9.3365 C5.293,10.0005 5.334,10.64 5.4025,11.256 L1.271,11.256 C0.723,11.256 0.279,11.4625 0.279,11.7165 C0.279,11.971 0.7235,12.1765 1.271,12.1765 L5.5275,12.1765 L12.346,12.1765 L12.404,12.1765 L12.404,24.589 L14.734,24.589 L14.734,12.198 L23.9475,12.198 C24.814,10.5135 25.9865,4.212 20.9875,0.451 L20.9875,0.451 Z" id="icon_post_code_red"></path>
                    </g>
                </g>
            </g>
        </g>
    </g>
</svg>