<?xml version="1.0" encoding="UTF-8" standalone="no"?>
<svg width="28px" height="20px" viewBox="0 0 28 20" version="1.1" xmlns="http://www.w3.org/2000/svg" xmlns:xlink="http://www.w3.org/1999/xlink" xmlns:sketch="http://www.bohemiancoding.com/sketch/ns">
    <!-- Generator: sketchtool 3.5.1 (25234) - http://www.bohemiancoding.com/sketch -->
    <title>icon_phone_number</title>
    <desc>Created with sketchtool.</desc>
    <defs></defs>
    <g id="educator" stroke="none" stroke-width="1" fill="none" fill-rule="evenodd" sketch:type="MSPage">
        <g id="03_register" sketch:type="MSArtboardGroup" transform="translate(-390.000000, -572.000000)" fill="#17A5E0">
            <g id="icon_phone_number" sketch:type="MSLayerGroup" transform="translate(390.000000, 572.000000)">
                <g id="Group" sketch:type="MSShapeGroup">
                    <path d="M27.1912874,4.69981777 C28.0514354,5.3359064 28.1453204,6.57833408 27.3923811,7.33587453 L26.0352313,8.70159422 C25.4688227,9.2714364 24.585126,9.39043465 23.8857911,8.99111576 L20.4473684,7.0288713 C20.4135946,7.00954941 20.3795109,6.99145432 20.3432583,6.97734628 C20.2035152,6.92275429 19.6213042,6.57956087 19.2017652,4.57407219 C19.0635714,3.91406124 18.5566543,3.38838337 17.895431,3.22675429 C17.0070866,3.00991984 15.6552043,2.76057555 14.05699,2.73327956 C12.4587757,2.76057555 11.1068934,3.00961314 10.218549,3.22675429 C9.55732578,3.38807667 9.05040864,3.91406124 8.91221484,4.57407219 C8.49267584,6.57956087 7.91046478,6.92275429 7.77072173,6.97734628 C7.7344691,6.99145432 7.70038543,7.00954941 7.66661161,7.0288713 L4.22818893,8.99111576 C3.52854413,9.39043465 2.6448475,9.2711297 2.07874872,8.70159422 L0.72159892,7.33587453 C-0.0313403509,6.57833408 0.0625446694,5.3355997 0.922692578,4.69981777 C5.63646424,1.21359821 10.1178472,0.0128812547 14.0566802,0.0134946477 C17.9955131,0.0128812547 22.4768961,1.21359821 27.1912874,4.69981777 L27.1912874,4.69981777 Z M12.416326,9.22573861 L12.416326,9.22573861 C12.416326,9.8734817 12.9517495,10.40376 13.6064659,10.40376 L14.5072043,10.40376 C15.1616108,10.40376 15.6973441,9.8737884 15.6973441,9.22573861 L15.6973441,9.22573861 C15.6973441,8.57799552 15.1619206,8.0477172 14.5072043,8.0477172 L13.6064659,8.0477172 C12.9517495,8.0480239 12.416326,8.57799552 12.416326,9.22573861 L12.416326,9.22573861 Z M16.6612923,9.22573861 L16.6612923,9.22573861 C16.6612923,9.8734817 17.1967158,10.40376 17.8514321,10.40376 L18.7521706,10.40376 C19.4065771,10.40376 19.9423104,9.8737884 19.9423104,9.22573861 L19.9423104,9.22573861 C19.9423104,8.57799552 19.4068869,8.0477172 18.7521706,8.0477172 L17.8514321,8.0477172 C17.1967158,8.0480239 16.6612923,8.57799552 16.6612923,9.22573861 L16.6612923,9.22573861 Z M8.17135978,9.22573861 L8.17135978,9.22573861 C8.17135978,9.8734817 8.70678327,10.40376 9.3614996,10.40376 L10.2622381,10.40376 C10.9166445,10.40376 11.4523779,9.8737884 11.4523779,9.22573861 L11.4523779,9.22573861 C11.4523779,8.57799552 10.9169544,8.0477172 10.2622381,8.0477172 L9.3614996,8.0477172 C8.70709312,8.0480239 8.17135978,8.57799552 8.17135978,9.22573861 L8.17135978,9.22573861 Z M12.416326,12.2963844 L12.416326,12.2963844 C12.416326,12.9441275 12.9517495,13.4744058 13.6064659,13.4744058 L14.5072043,13.4744058 C15.1616108,13.4744058 15.6973441,12.9444342 15.6973441,12.2963844 L15.6973441,12.2963844 C15.6973441,11.6486413 15.1619206,11.118363 14.5072043,11.118363 L13.6064659,11.118363 C12.9517495,11.118363 12.416326,11.6483346 12.416326,12.2963844 L12.416326,12.2963844 Z M16.6612923,12.2963844 L16.6612923,12.2963844 C16.6612923,12.9441275 17.1967158,13.4744058 17.8514321,13.4744058 L18.7521706,13.4744058 C19.4065771,13.4744058 19.9423104,12.9444342 19.9423104,12.2963844 L19.9423104,12.2963844 C19.9423104,11.6486413 19.4068869,11.118363 18.7521706,11.118363 L17.8514321,11.118363 C17.1967158,11.118363 16.6612923,11.6483346 16.6612923,12.2963844 L16.6612923,12.2963844 Z M8.17135978,12.2963844 L8.17135978,12.2963844 C8.17135978,12.9441275 8.70678327,13.4744058 9.3614996,13.4744058 L10.2622381,13.4744058 C10.9166445,13.4744058 11.4523779,12.9444342 11.4523779,12.2963844 L11.4523779,12.2963844 C11.4523779,11.6486413 10.9169544,11.118363 10.2622381,11.118363 L9.3614996,11.118363 C8.70709312,11.118363 8.17135978,11.6483346 8.17135978,12.2963844 L8.17135978,12.2963844 Z M12.416326,15.3667234 L12.416326,15.3667234 C12.416326,16.0144665 12.9517495,16.5447448 13.6064659,16.5447448 L14.5072043,16.5447448 C15.1616108,16.5447448 15.6973441,16.0147732 15.6973441,15.3667234 L15.6973441,15.3667234 C15.6973441,14.7189803 15.1619206,14.188702 14.5072043,14.188702 L13.6064659,14.188702 C12.9517495,14.188702 12.416326,14.7186736 12.416326,15.3667234 L12.416326,15.3667234 Z M16.6612923,15.3667234 L16.6612923,15.3667234 C16.6612923,16.0144665 17.1967158,16.5447448 17.8514321,16.5447448 L18.7521706,16.5447448 C19.4065771,16.5447448 19.9423104,16.0147732 19.9423104,15.3667234 L19.9423104,15.3667234 C19.9423104,14.7189803 19.4068869,14.188702 18.7521706,14.188702 L17.8514321,14.188702 C17.1967158,14.188702 16.6612923,14.7186736 16.6612923,15.3667234 L16.6612923,15.3667234 Z M8.17135978,15.3667234 L8.17135978,15.3667234 C8.17135978,16.0144665 8.70678327,16.5447448 9.3614996,16.5447448 L10.2622381,16.5447448 C10.9166445,16.5447448 11.4523779,16.0147732 11.4523779,15.3667234 L11.4523779,15.3667234 C11.4523779,14.7189803 10.9169544,14.188702 10.2622381,14.188702 L9.3614996,14.188702 C8.70709312,14.188702 8.17135978,14.7186736 8.17135978,15.3667234 L8.17135978,15.3667234 Z M16.6612923,18.4370625 L16.6612923,18.4370625 C16.6612923,19.0848056 17.1967158,19.6150839 17.8514321,19.6150839 L18.7521706,19.6150839 C19.4065771,19.6150839 19.9423104,19.0851123 19.9423104,18.4370625 L19.9423104,18.4370625 C19.9423104,17.7893194 19.4068869,17.2590411 18.7521706,17.2590411 L17.8514321,17.2590411 C17.1967158,17.2590411 16.6612923,17.7893194 16.6612923,18.4370625 L16.6612923,18.4370625 Z M8.17135978,18.4370625 L8.17135978,18.4370625 C8.17135978,19.0848056 8.70678327,19.6150839 9.3614996,19.6150839 L10.2622381,19.6150839 C10.9166445,19.6150839 11.4523779,19.0851123 11.4523779,18.4370625 L11.4523779,18.4370625 C11.4523779,17.7893194 10.9169544,17.2590411 10.2622381,17.2590411 L9.3614996,17.2590411 C8.70709312,17.2590411 8.17135978,17.7893194 8.17135978,18.4370625 L8.17135978,18.4370625 Z" id="Shape"></path>
                </g>
            </g>
        </g>
    </g>
</svg>