<?xml version="1.0" encoding="UTF-8" standalone="no"?>
<svg width="24px" height="26px" viewBox="0 0 24 26" version="1.1" xmlns="http://www.w3.org/2000/svg" xmlns:xlink="http://www.w3.org/1999/xlink" xmlns:sketch="http://www.bohemiancoding.com/sketch/ns">
    <!-- Generator: sketchtool 3.5.1 (25234) - http://www.bohemiancoding.com/sketch -->
    <title>icon_date</title>
    <desc>Created with sketchtool.</desc>
    <defs></defs>
    <g id="Page-2" stroke="none" stroke-width="1" fill="none" fill-rule="evenodd" sketch:type="MSPage">
        <g id="07_post_requirement" sketch:type="MSArtboardGroup" transform="translate(-488.000000, -1463.000000)" fill="#29ABE2">
            <g id="Group-Copy" sketch:type="MSLayerGroup" transform="translate(474.000000, 1390.000000)">
                <g id="icon_date" transform="translate(14.000000, 73.000000)" sketch:type="MSShapeGroup">
                    <g id="Group">
                        <path d="M0.28312381,11.2793985 L0.28312381,23.5560902 C0.28312381,24.7419549 1.24525714,25.7043609 2.43291429,25.7043609 L21.797181,25.7043609 C22.9833143,25.7043609 23.9472762,24.7422556 23.9472762,23.5560902 L23.9472762,11.2793985 L0.28312381,11.2793985 L0.28312381,11.2793985 Z M7.95367619,24.0965414 L2.03824762,24.0965414 L2.03824762,19.2186466 L7.95367619,19.2186466 L7.95367619,24.0965414 L7.95367619,24.0965414 Z M7.95367619,17.8390977 L2.03824762,17.8390977 L2.03824762,12.9596992 L7.95367619,12.9596992 L7.95367619,17.8390977 L7.95367619,17.8390977 Z M15.0384762,24.0965414 L9.1239619,24.0965414 L9.1239619,19.2186466 L15.0381714,19.2186466 L15.0381714,24.0965414 L15.0384762,24.0965414 Z M15.0384762,17.8390977 L9.1239619,17.8390977 L9.1239619,12.9596992 L15.0381714,12.9596992 L15.0381714,17.8390977 L15.0384762,17.8390977 Z M22.1244952,24.0965414 L16.2090667,24.0965414 L16.2090667,19.2186466 L22.1244952,19.2186466 L22.1244952,24.0965414 L22.1244952,24.0965414 Z M22.1244952,17.8390977 L16.2090667,17.8390977 L16.2090667,12.9596992 L22.1244952,12.9596992 L22.1244952,17.8390977 L22.1244952,17.8390977 Z" id="Shape"></path>
                        <path d="M23.8774857,9.85022556 L23.8774857,5.12030075 C23.8774857,3.93443609 22.9153524,2.97323308 21.7276952,2.97323308 L18.4335238,2.97383459 L18.4274286,1.14706767 C18.4262095,0.543157895 17.9297524,0.0556390977 17.3177905,0.0571428571 C16.7085714,0.057443609 16.2142476,0.547368421 16.2151619,1.1512782 L16.2212571,2.97383459 L16.2212571,2.97804511 L7.42521905,2.97383459 L7.41942857,1.14706767 C7.41820952,0.543157895 6.92175238,0.0556390977 6.31131429,0.0571428571 C5.70057143,0.057443609 5.20594286,0.547368421 5.2071619,1.1512782 L5.21447619,2.97774436 L2.36434286,2.97293233 C1.1751619,2.97293233 0.214552381,3.93413534 0.214552381,5.12 L0.214552381,9.84992481 L0.214552381,10.115188 L23.8768762,10.115188 L23.8768762,9.85022556 L23.8774857,9.85022556 Z M6.33051429,8.07007519 C5.11085714,8.0718797 4.11702857,7.0962406 4.11428571,5.88992481 C4.11306667,5.08270677 4.55710476,4.37954887 5.21660952,3.99969925 L5.22087619,5.88842105 C5.22087619,6.49172932 5.71855238,6.97894737 6.32777143,6.97774436 C6.93942857,6.97714286 7.4343619,6.48721805 7.4328381,5.88421053 L7.42826667,3.99518797 C8.08929524,4.37082707 8.5351619,5.07458647 8.53820952,5.88120301 C8.53973333,7.0875188 7.5544381,8.06706767 6.33051429,8.07007519 L6.33051429,8.07007519 Z M17.3385143,8.07007519 C16.1188571,8.0718797 15.1235048,7.0962406 15.1222857,5.88992481 C15.1198476,5.08270677 15.5651048,4.37954887 16.2249143,3.99969925 L16.2288762,5.88842105 C16.2307048,6.49172932 16.7268571,6.97894737 17.3357714,6.97774436 C17.9480381,6.97714286 18.4408381,6.48721805 18.4399238,5.88421053 L18.4365714,3.99518797 C19.0994286,4.37082707 19.5434667,5.07458647 19.546819,5.88120301 C19.5474286,7.0875188 18.5609143,8.06706767 17.3385143,8.07007519 L17.3385143,8.07007519 Z" id="Shape"></path>
                    </g>
                </g>
            </g>
        </g>
    </g>
</svg>