<?xml version="1.0" encoding="UTF-8" standalone="no"?>
<svg width="21px" height="26px" viewBox="0 0 21 26" version="1.1" xmlns="http://www.w3.org/2000/svg" xmlns:xlink="http://www.w3.org/1999/xlink" xmlns:sketch="http://www.bohemiancoding.com/sketch/ns">
    <!-- Generator: sketchtool 3.5.1 (25234) - http://www.bohemiancoding.com/sketch -->
    <title>icon-job_title</title>
    <desc>Created with sketchtool.</desc>
    <defs></defs>
    <g id="Page-2" stroke="none" stroke-width="1" fill="none" fill-rule="evenodd" sketch:type="MSPage">
        <g id="07_post_requirement" sketch:type="MSArtboardGroup" transform="translate(-846.000000, -1463.000000)" fill="#17A5E0">
            <g id="icon-job_title" sketch:type="MSLayerGroup" transform="translate(846.000000, 1463.000000)">
                <g id="Group" sketch:type="MSShapeGroup">
                    <path d="M10.5490285,0.499999289 C10.4731532,0.499999289 10.3954875,0.512665417 10.3246704,0.542713606 L3.49037964,3.65231592 C3.30828017,3.73248297 3.22287584,3.89062627 3.22287584,4.07091623 C3.22287584,4.25120619 3.32553848,4.40934949 3.50763795,4.48951654 L10.3505579,7.59911885 C10.492192,7.65921578 10.6490049,7.65921578 10.7906448,7.59911885 L17.6335648,4.48951654 C17.81567,4.40934949 17.9183269,4.25120619 17.9183269,4.07091623 C17.9183269,3.89062627 17.81567,3.73248297 17.6335648,3.65231592 L10.7733865,0.542713606 C10.7025694,0.51266528 10.6249037,0.499999289 10.5490285,0.499999289 L10.5490285,0.499999289 Z M16.4341122,5.93326047 L15.976767,6.15537492 L15.976767,7.41971872 C15.976767,7.47981537 15.933915,7.55903546 15.8732171,7.59911885 C15.7518155,7.69924203 15.6661174,7.84041387 15.6661174,8.00063343 L15.6661174,11.4434074 C15.6661174,11.5836137 15.7919871,11.6826076 15.9336212,11.6826076 L16.477258,11.6826076 C16.6188921,11.6826076 16.7447618,11.5836137 16.7447618,11.4434074 L16.7447618,8.00063343 C16.7447618,7.84041387 16.6590636,7.69924203 16.5376621,7.59911885 C16.4769584,7.55903546 16.4341122,7.47981537 16.4341122,7.41971872 L16.4341122,5.93326047 L16.4341122,5.93326047 Z M6.21719264,6.63377528 C6.03509316,7.11449136 5.93243052,7.65630683 5.93243052,8.19711929 C5.93243052,10.6209413 7.91657176,12.6052369 10.3850745,12.6052369 C12.833345,12.6052369 14.8377185,10.6409545 14.8377185,8.19711929 C14.8377185,7.69633308 14.7579691,7.21969379 14.5961022,6.77900395 L11.1185527,8.37651943 C10.9364532,8.45668648 10.7483865,8.49611952 10.5662868,8.49611952 C10.3841815,8.49611952 10.2047553,8.45668648 10.02265,8.37651943 L6.21719264,6.63377528 L6.21719264,6.63377528 Z M6.82123349,13.7328948 C6.69489161,13.7329364 6.56548218,13.7490921 6.44155067,13.784152 C3.32557438,14.8858476 0.916503442,17.4950514 0.228559037,21.481272 C0.0869249183,24.0853268 7.21136877,25.1034461 10.3678162,25.1034461 C13.5444962,25.1034461 20.6487078,24.0853268 20.5070734,21.481272 C19.8191293,17.4950514 17.4100638,14.8858476 14.2940818,13.784152 C13.3431014,13.5237521 12.3275059,14.5076074 10.3850745,14.4675811 C8.68544715,14.4850933 7.70562661,13.7326048 6.82123349,13.7328948 L6.82123349,13.7328948 Z" id="Shape"></path>
                </g>
            </g>
        </g>
    </g>
</svg>