<?xml version="1.0" encoding="UTF-8" standalone="no"?>
<svg width="156px" height="156px" viewBox="0 0 156 156" version="1.1" xmlns="http://www.w3.org/2000/svg" xmlns:xlink="http://www.w3.org/1999/xlink" xmlns:sketch="http://www.bohemiancoding.com/sketch/ns">
    <!-- Generator: sketchtool 3.4.4 (395) - http://www.bohemiancoding.com/sketch -->
    <title>icon_post_requirement</title>
    <desc>Created with sketchtool.</desc>
    <defs></defs>
    <g id="provider" stroke="none" stroke-width="1" fill="none" fill-rule="evenodd" sketch:type="MSPage">
        <g id="01_landing_page" sketch:type="MSArtboardGroup" transform="translate(-723.000000, -1515.000000)">
            <g id="icon_post_requirement" sketch:type="MSLayerGroup" transform="translate(726.000000, 1518.000000)">
                <circle id="Oval-47" stroke="#5ECFFF" stroke-width="5" fill="#29ABE2" sketch:type="MSShapeGroup" cx="75" cy="75" r="75"></circle>
                <g id="man343" transform="translate(25.000000, 35.000000)" fill="#FFFFFF" sketch:type="MSShapeGroup">
                    <g id="Group">
                        <circle id="Oval" cx="41.725" cy="10.809375" r="8.846875"></circle>
                        <path d="M34.453125,38.790625 C37.4,40.84375 40.896875,41.86875 44.9125,41.86875 C47.103125,41.86875 54.03125,40.3625 55.68125,39.83125 C57.546875,39.190625 58.478125,38.290625 59.0375,37.190625 C59.728125,35.340625 59.396875,33.3875 59.396875,33.3875 C58.8375,29.91875 55.45,29.13125 52.81875,30.084375 C48.890625,31.4875 43.53125,32.696875 40.296875,30.478125 C38.928125,29.540625 38.06875,28.078125 37.53125,26.659375 C38.3375,23.996875 37.81875,20.996875 35.884375,18.715625 C32.85625,15.153125 27.834375,15.146875 23.953125,17.75 C17.290625,22.21875 12.11875,38.06875 12.11875,46.990625 C12.15,46.996875 11.853125,51.359375 16.7375,51.78125 C18.203125,51.85625 31.028125,51.825 35.065625,51.8125 C35.08125,51.884375 35.103125,52.01875 35.103125,52.240625 C35.0875,55.934375 35.10625,69.365625 35.115625,75.6 C35.11875,77.3625 36.553125,78.790625 38.321875,78.790625 L41.496875,78.790625 C42.35,78.790625 43.165625,78.4625 43.765625,77.85 C44.365625,77.246875 44.703125,76.434375 44.703125,75.578125 C44.69375,69.353125 44.675,55.95 44.6875,52.275 C44.715625,45.740625 39.7375,42.70625 36.384375,42.265625 L35.734375,42.21875 C33.815625,42.225 31.528125,42.23125 29.228125,42.2375 C29.753125,39.721875 30.525,37.640625 31.334375,35.95625 C32.20625,36.978125 33.234375,37.9375 34.453125,38.790625 L34.453125,38.790625 Z" id="Shape"></path>
                        <path d="M9.596875,11.68125 C9.596875,9.03125 7.446875,6.8875 4.8,6.8875 C2.15,6.8875 0,9.034375 0,11.68125 L0,59.615625 C0,62.0875 1.878125,64.11875 4.284375,64.36875 C4.2875,64.384375 4.29375,64.390625 4.3,64.390625 L6.01875,64.390625 L6.01875,75.596875 C6.01875,77.35625 7.428125,78.790625 9.190625,78.790625 C10.95625,78.790625 12.3625,77.3625 12.3625,75.596875 L12.3625,64.390625 L22.45,64.390625 L22.45,75.596875 C22.45,77.35625 23.859375,78.790625 25.625,78.790625 C27.3875,78.790625 28.796875,77.3625 28.796875,75.596875 L28.796875,64.390625 L31.8875,64.390625 L31.8875,54.796875 L9.596875,54.796875 L9.596875,11.68125 L9.596875,11.68125 Z" id="Shape"></path>
                        <path d="M95.903125,43.56875 C95.171875,39.796875 92.753125,36.61875 89.459375,34.878125 L89.459375,31.853125 L94.0125,31.853125 L94.0125,10.765625 L76.615625,4.528125 L76.615625,1.4375 L70.26875,1.4375 L70.26875,33.4875 L76.615625,33.4875 L76.615625,31.859375 L79.86875,31.859375 L79.86875,34.034375 C75.559375,35.40625 72.28125,39.053125 71.403125,43.571875 L51.128125,43.571875 C49.3625,43.571875 47.93125,45.0625 47.93125,46.825 C47.93125,48.590625 49.3625,50.078125 51.128125,50.078125 L57.575,50.078125 L57.575,78.875 L92.7125,78.875 L92.7125,50.078125 L95.859375,50.078125 C97.621875,50.078125 99.05625,48.590625 99.05625,46.825 C99.06875,45.071875 97.65625,43.5875 95.903125,43.56875 L95.903125,43.56875 Z" id="Shape"></path>
                    </g>
                </g>
            </g>
        </g>
    </g>
</svg>