<?xml version="1.0" encoding="UTF-8" standalone="no"?>
<svg width="36px" height="34px" viewBox="0 0 36 34" version="1.1" xmlns="http://www.w3.org/2000/svg" xmlns:xlink="http://www.w3.org/1999/xlink" xmlns:sketch="http://www.bohemiancoding.com/sketch/ns">
    <!-- Generator: sketchtool 3.5.1 (25234) - http://www.bohemiancoding.com/sketch -->
    <title>icon_promo_tick</title>
    <desc>Created with sketchtool.</desc>
    <defs></defs>
    <g id="Page-2" stroke="none" stroke-width="1" fill="none" fill-rule="evenodd" sketch:type="MSPage">
        <g id="10_book_educator-copy" sketch:type="MSArtboardGroup" transform="translate(-1022.000000, -2233.000000)" fill="#FFFFFF">
            <g id="icon_promo_tick" sketch:type="MSLayerGroup" transform="translate(1022.000000, 2233.000000)">
                <path d="M5.8335,17.9165 C6.4045,18.212 7.5195,19.6495 8.646,20.7705 C9.7725,21.8915 11.776,24.552 11.776,24.552 C11.776,24.552 17.3125,16.854 22.3425,11.718 C28.3125,4.8745 35.3125,0.0205 35.3125,0.0205 C35.5625,0.2495 36.247,0.815 35.3125,1.7495 C32.6875,4.375 25.875,13 21.875,19.3125 C18.5185,24.392 15.1145,31.82 15.1145,31.82 L10.0625,33.9065 C10.0625,33.9065 7.4315,28.9745 6.5625,27.594 C4.281,23.969 2.754,22.2205 2.754,22.2205 L0.9965,21.895 L0.104,21.7295 C0.104,21.729 5.5655,17.778 5.8335,17.9165 L5.8335,17.9165 Z" id="Shape" sketch:type="MSShapeGroup"></path>
            </g>
        </g>
    </g>
</svg>