<?xml version="1.0" encoding="UTF-8" standalone="no"?>
<svg width="20px" height="22px" viewBox="0 0 20 22" version="1.1" xmlns="http://www.w3.org/2000/svg" xmlns:xlink="http://www.w3.org/1999/xlink" xmlns:sketch="http://www.bohemiancoding.com/sketch/ns">
    <!-- Generator: sketchtool 3.5.1 (25234) - http://www.bohemiancoding.com/sketch -->
    <title>icon_CV</title>
    <desc>Created with sketchtool.</desc>
    <defs></defs>
    <g id="educator" stroke="none" stroke-width="1" fill="none" fill-rule="evenodd" sketch:type="MSPage">
        <g id="03_register" sketch:type="MSArtboardGroup" transform="translate(-396.000000, -653.000000)" fill="#17A5E0">
            <g id="icon_CV" sketch:type="MSLayerGroup" transform="translate(396.000000, 653.000000)">
                <g id="Group" sketch:type="MSShapeGroup">
                    <path d="M11.6552632,11.5063158 C11.2594737,11.3347368 11.7715789,10.5821053 11.9194737,10.3584211 C12.1663158,9.98105263 12.2589474,9.85789474 12.3442105,9.42052632 C12.3778947,9.25315789 12.5189474,8.96315789 12.67,8.80684211 C12.82,8.65263158 13.0647368,7.88631579 12.9352632,7.49842105 C12.92,7.45 12.75,7.17368421 12.7668421,6.93631579 C12.8047368,6.43157895 12.7615789,5.90736842 12.6115789,5.42631579 C12.4121053,4.78473684 11.82,4.25421053 11.1847368,4.02 C10.7542105,3.86315789 10.3726316,3.84421053 10.0063158,3.84421053 L9.99421053,3.84421053 C9.62947368,3.84421053 9.24526316,3.86315789 8.81736842,4.02 C8.17789474,4.25421053 7.59,4.78473684 7.38842105,5.42631579 C7.23578947,5.90736842 7.19526316,6.43157895 7.23,6.93631579 C7.25157895,7.17368421 7.08,7.45052632 7.06368421,7.49842105 C6.93421053,7.88631579 7.17894737,8.65263158 7.32684211,8.80684211 C7.47894737,8.96315789 7.61894737,9.25315789 7.65526316,9.42052632 C7.74105263,9.85789474 7.83368421,9.98105263 8.08052632,10.3584211 C8.22947368,10.5821053 8.73894737,11.3342105 8.34473684,11.5063158 C8.08368421,11.6194737 4.97631579,12.3789474 4.28105263,13.1936842 C3.81368421,13.7389474 4.12210526,14.3131579 4.88263158,14.4757895 C6.19736842,14.7573684 7.82789474,14.8089474 10.0010526,14.8089474 C12.1742105,14.8089474 13.8047368,14.7573684 15.1194737,14.4757895 C15.88,14.3131579 16.1863158,13.7389474 15.7210526,13.1936842 C15.0226316,12.3789474 11.9173684,11.6194737 11.6552632,11.5063158 L11.6552632,11.5063158 Z M2.36315789,0.433157895 C1.13421053,0.433157895 0.134736842,1.27209081 0.134736842,2.30353675 L0.134736842,19.9131802 C0.134736842,20.9446261 1.13421053,21.783559 2.36315789,21.783559 L17.6368421,21.783559 C18.8657895,21.783559 19.8652632,20.9446261 19.8652632,19.9131802 L19.8652632,2.30353675 C19.8652632,1.27209081 18.8657895,0.433157895 17.6368421,0.433157895 L2.36315789,0.433157895 Z M18.2863158,19.9131802 C18.2863158,20.2143129 17.9947368,20.4589281 17.6368421,20.4589281 L2.36315789,20.4589281 C2.00473684,20.4589281 1.71368421,20.2138714 1.71368421,19.9131802 L1.71368421,2.30353675 C1.71368421,2.00240399 2.00526316,1.75778881 2.36315789,1.75778881 L17.6368421,1.75778881 C17.9952632,1.75778881 18.2863158,2.00284553 18.2863158,2.30353675 L18.2863158,19.9131802 L18.2863158,19.9131802 Z M14.9878947,17.0663158 L5.01105263,17.0663158 C4.57473684,17.0663158 4.22157895,17.42 4.22157895,17.8557895 C4.22157895,18.2915789 4.57473684,18.6452632 5.01105263,18.6452632 L14.9878947,18.6452632 C15.4236842,18.6452632 15.7773684,18.2915789 15.7773684,17.8557895 C15.7773684,17.42 15.4236842,17.0663158 14.9878947,17.0663158 L14.9878947,17.0663158 Z" id="Shape"></path>
                </g>
            </g>
        </g>
    </g>
</svg>