<?xml version="1.0" encoding="UTF-8" standalone="no"?>
<svg width="26px" height="24px" viewBox="0 0 26 24" version="1.1" xmlns="http://www.w3.org/2000/svg" xmlns:xlink="http://www.w3.org/1999/xlink" xmlns:sketch="http://www.bohemiancoding.com/sketch/ns">
    <!-- Generator: sketchtool 3.5.1 (25234) - http://www.bohemiancoding.com/sketch -->
    <title>icon_unlike_normal</title>
    <desc>Created with sketchtool.</desc>
    <defs></defs>
    <g id="Page-2" stroke="none" stroke-width="1" fill="none" fill-rule="evenodd" sketch:type="MSPage">
        <g id="08_choose_preferences-copy" sketch:type="MSArtboardGroup" transform="translate(-1015.000000, -1352.000000)" fill="#BFBFBF">
            <g id="icon_unlike_normal" sketch:type="MSLayerGroup" transform="translate(1027.500000, 1363.500000) rotate(-180.000000) translate(-1027.500000, -1363.500000) translate(1014.000000, 1351.000000)">
                <g id="Group" sketch:type="MSShapeGroup">
                    <g transform="translate(0.087542, 0.209385)" id="Shape">
                        <path d="M16.6142317,0.176635859 C16.5534064,0.161600505 16.5199531,0.199090404 16.4734286,0.212254545 C16.4511439,0.219115657 16.4210767,0.198302525 16.4030296,0.212254545 C16.2483769,0.189438889 16.1088205,0.192524747 15.9806371,0.212254545 C15.8524537,0.231984343 15.7335955,0.298786616 15.6286374,0.354955808 C14.7889857,0.804292929 14.613708,2.27571237 14.3262514,3.28033333 C13.5501726,6.02019823 11.3894225,8.5531399 8.69430918,9.23811187 C8.04259467,9.26765732 7.41125059,9.26686944 6.75832856,9.27373056 L6.75832856,8.77428106 C6.75832856,8.43179672 6.5061307,8.20347273 6.19513262,8.20347273 L3.23905626e-07,8.20347273 L3.23905626e-07,8.77428106 L3.23905626e-07,9.34508283 L3.23905626e-07,15.0531465 L3.23905626e-07,20.761197 L3.23905626e-07,21.3319823 L3.23905626e-07,21.9028005 L6.19513262,21.9028005 C6.5061307,21.9028005 6.75832856,21.560303 6.75832856,21.3319823 L6.75832856,15.0531465 L6.75832856,10.5223674 C7.13336215,10.5178043 7.51026274,10.5001427 7.88472043,10.4867455 L7.88472043,15.0531793 L7.88472043,20.7612298 C8.19883254,20.7691086 8.5211359,20.7471136 8.83510679,20.7612298 C10.5189459,21.1037273 11.7580865,22.6020758 13.4814606,22.8303965 C15.4064572,23.1728939 17.3486322,22.9302929 19.2894024,23.0444697 C20.7030209,22.9302929 22.4416011,23.1586136 23.4429589,21.9028333 C23.8721145,20.8754066 23.4897244,19.5054823 24.780547,19.0488081 C25.9396015,18.249702 24.5206321,16.7584773 25.097343,15.7310177 C25.8396313,14.9318788 26.3110242,13.6832551 25.4493378,12.7699722 C24.3747612,11.7425126 25.8345654,10.1585316 24.6045464,9.13108182 C24.4125642,8.94193838 24.1953563,8.83723258 23.9709511,8.73865581 C23.7476052,8.64059116 23.5105774,8.56205934 23.2669647,8.52460556 C23.2435463,8.52119141 23.2200858,8.49207273 23.1965606,8.48898359 C22.9383041,8.43901237 22.6846179,8.4176346 22.4573688,8.4176346 C21.3795499,8.33806212 20.2978116,8.35564167 19.2190048,8.38201263 C18.7776388,8.36707576 18.3209693,8.35680051 17.8814153,8.31066364 C17.0219794,7.62569823 18.085577,6.36992778 18.0574153,5.45664167 C18.2139804,4.20086793 18.3238067,2.85234116 17.9870164,1.71073434 C17.8018945,1.16158611 17.4389057,0.548307828 16.8958269,0.319392929 C16.842798,0.285487879 16.8051531,0.271765657 16.7550293,0.248040657 C16.7049337,0.224305808 16.6592837,0.187879545 16.6142317,0.176691667 L16.6142317,0.176635859 Z"></path>
                    </g>
                </g>
            </g>
        </g>
    </g>
</svg>