<?xml version="1.0" encoding="UTF-8" standalone="no"?>
<svg width="30px" height="23px" viewBox="0 0 30 23" version="1.1" xmlns="http://www.w3.org/2000/svg" xmlns:xlink="http://www.w3.org/1999/xlink" xmlns:sketch="http://www.bohemiancoding.com/sketch/ns">
    <!-- Generator: sketchtool 3.5.1 (25234) - http://www.bohemiancoding.com/sketch -->
    <title>icon_qualification</title>
    <desc>Created with sketchtool.</desc>
    <defs></defs>
    <g id="educator" stroke="none" stroke-width="1" fill="none" fill-rule="evenodd" sketch:type="MSPage">
        <g id="03_register" sketch:type="MSArtboardGroup" transform="translate(-821.000000, -571.000000)" fill="#17A5E0">
            <g id="noun_10801_cc" sketch:type="MSLayerGroup" transform="translate(821.000000, 571.000000)">
                <g id="Group" sketch:type="MSShapeGroup">
                    <g id="icon_qualification" transform="translate(0.118421, 0.000000)">
                        <path d="M14.5878,15.8540519 C14.5878,15.8612123 14.5832684,15.8677217 14.5787368,15.8612123 C14.5735579,15.8573066 14.5696737,15.8573066 14.5651421,15.8612123 C14.5619053,15.8573066 14.5573737,15.8573066 14.5521947,15.8612123 C14.5473395,15.8677217 14.5437789,15.8612123 14.5437789,15.8540519 C14.5437789,15.8507972 9.98598158,13.5829104 5.91888947,11.5610802 L5.91888947,14.3884528 C5.91888947,14.6022877 6.08332105,14.8310943 6.28012105,14.9114858 C10.3316763,16.5473066 13.5681947,20.9776274 14.3676947,22.3520943 C14.4253105,22.4513632 14.4965211,22.4910708 14.5651421,22.4806557 C14.6344105,22.4910708 14.7065921,22.4513632 14.7638842,22.3520943 C15.5637079,20.9773019 18.7995789,16.5473066 22.8508105,14.9114858 C23.0482579,14.8310943 23.2120421,14.6022877 23.2120421,14.3884528 L23.2120421,11.5610802 C19.1455974,13.5829104 14.5878,15.8507972 14.5878,15.8540519 L14.5878,15.8540519 Z" id="Shape"></path>
                        <path d="M29.1137763,7.46208962 C29.0940316,7.42628774 28.9143868,7.33059906 28.7292395,7.23881604 C26.7722447,6.26533019 16.8775421,1.34712736 14.9231368,0.372014151 C14.7379895,0.278929245 14.4356684,0.276325472 14.2498737,0.367457547 C12.2860816,1.3328066 2.35933421,6.26533019 0.401044737,7.23914151 C0.21525,7.33092453 0.0372236842,7.42596226 0.0168315789,7.46208962 C0.00258947368,7.48812736 0,7.51156132 0,7.53336792 C0.000647368421,7.56982075 0.00323684211,7.59781132 0.0129473684,7.62319811 C0.0301026316,7.67039151 0.207805263,7.77031132 0.3936,7.86274528 C1.06038947,8.19472642 2.58947368,8.98757547 4.53157895,9.92591038 L4.53157895,18.262217 C4.20789474,18.3816651 4.23217105,18.5785755 4.23217105,18.8129151 C4.23217105,19.0098255 4.32247895,19.1637736 4.45616053,19.2868019 L4.24220526,21.8066038 L5.57837368,21.8066038 L5.35891579,19.2871274 C5.49292105,19.1640991 5.53338158,18.9994104 5.53338158,18.8025 C5.53338158,18.5678349 5.50230789,18.3819906 5.17862368,18.2625425 L5.17862368,10.0499151 C5.17862368,10.0447075 5.28349737,10.0421038 5.30939211,10.033967 L12.792,7.67787736 C12.9894474,7.61538679 13.1956342,7.38234906 13.3749553,7.27852358 C13.6216026,7.13466509 14.0637553,7.04450943 14.5602868,7.04450943 C15.3345395,7.04450943 15.9654,7.26387736 15.9654,7.53336792 C15.9654,7.80350943 15.3387474,8.02222642 14.5648184,8.02222642 C14.4502342,8.02222642 14.3418,8.01701887 14.2369263,8.00790566 C14.0556632,7.99163208 13.7517237,8.01376415 13.5536289,8.07625472 L6.13122632,10.4203019 C5.93377895,10.4827925 5.85544737,10.5739245 5.95676053,10.6240472 C6.01826053,10.6546415 6.07911316,10.6849104 6.14061316,10.7155047 C9.45513947,12.3633679 13.1037079,14.1791745 14.2087658,14.7298726 C14.3945605,14.8229575 14.6962342,14.8281651 14.8826763,14.7367075 C15.9974447,14.1934953 19.6621974,12.3702028 22.9893474,10.7158302 C25.5325342,9.45169811 27.8792447,8.28520755 28.7276211,7.86307075 C28.9134158,7.77063679 29.1005053,7.67071698 29.1183079,7.62352358 C29.1280184,7.59781132 29.1299605,7.56982075 29.1312553,7.5336934 C29.1315789,7.51156132 29.1289895,7.48812736 29.1137763,7.46208962 L29.1137763,7.46208962 Z" id="Shape"></path>
                    </g>
                </g>
            </g>
        </g>
    </g>
</svg>