<?xml version="1.0" encoding="UTF-8" standalone="no"?>
<svg width="28px" height="28px" viewBox="0 0 28 28" version="1.1" xmlns="http://www.w3.org/2000/svg" xmlns:xlink="http://www.w3.org/1999/xlink" xmlns:sketch="http://www.bohemiancoding.com/sketch/ns">
    <!-- Generator: sketchtool 3.4.4 (395) - http://www.bohemiancoding.com/sketch -->
    <title>icon_feed</title>
    <desc>Created with sketchtool.</desc>
    <defs></defs>
    <g id="provider" stroke="none" stroke-width="1" fill="none" fill-rule="evenodd" sketch:type="MSPage">
        <g id="01_landing_page" sketch:type="MSArtboardGroup" transform="translate(-279.000000, -5204.000000)">
            <g id="Group" sketch:type="MSLayerGroup" transform="translate(-4.000000, 4187.000000)">
                <g id="Dribbble-Icon-+-Twitter-Icon-+-Facebook-Icon" transform="translate(206.000000, 1017.000000)" sketch:type="MSShapeGroup">
                    <g id="icon_feed" transform="translate(77.000000, 0.000000)">
                        <path d="M13.61,27.2326531 C6.090475,27.2326531 0,21.1393469 0,13.6163265 C0,6.09330612 6.090475,0 13.61,0 C21.129525,0 27.22,6.09330612 27.22,13.6163265 C27.22,21.1393469 21.129525,27.2326531 13.61,27.2326531 L13.61,27.2326531 Z" id="Dribbble-Icon" fill="#81DCFF"></path>
                        <path d="M9.59726962,16.7808874 C10.4819113,16.7808874 11.1945392,17.5017065 11.1945392,18.3699659 C11.1945392,19.2546075 10.4819113,19.9590444 9.59726962,19.9590444 C8.71262799,19.9590444 8,19.2546075 8,18.3699659 C8,17.5017065 8.71262799,16.7808874 9.59726962,16.7808874 L9.59726962,16.7808874 Z M15.9208191,19.9754266 L13.6109215,19.9754266 C13.6109215,18.4764505 13.0293515,17.0675768 11.9645051,16.0109215 C10.9078498,14.9460751 9.49897611,14.3645051 8,14.3645051 L8,12.0709898 C12.3658703,12.0709898 15.9208191,15.6177474 15.9208191,19.9754266 L15.9208191,19.9754266 Z M17.6901024,19.9754266 C17.6901024,14.6430034 13.3488055,10.2935154 8,10.2935154 L8,8 C14.61843,8 20,13.3733788 20,19.9754266 L17.6901024,19.9754266 L17.6901024,19.9754266 Z" id="Rss-Icon" fill="#29ABE2"></path>
                    </g>
                </g>
            </g>
        </g>
    </g>
</svg>