<?xml version="1.0" encoding="UTF-8" standalone="no"?>
<svg width="24px" height="25px" viewBox="0 0 24 25" version="1.1" xmlns="http://www.w3.org/2000/svg" xmlns:xlink="http://www.w3.org/1999/xlink" xmlns:sketch="http://www.bohemiancoding.com/sketch/ns">
    <!-- Generator: sketchtool 3.5.1 (25234) - http://www.bohemiancoding.com/sketch -->
    <title>icon_state_white</title>
    <desc>Created with sketchtool.</desc>
    <defs></defs>
    <g id="provider" stroke="none" stroke-width="1" fill="none" fill-rule="evenodd" sketch:type="MSPage">
        <g id="02_register" sketch:type="MSArtboardGroup" transform="translate(-823.000000, -732.000000)" fill="#FFFFFF">
            <g id="Group" sketch:type="MSLayerGroup" transform="translate(341.000000, 186.000000)">
                <g id="user_name" transform="translate(37.000000, 282.000000)" sketch:type="MSShapeGroup">
                    <g id="Group">
                        <g id="input-+-input-copy-7-+-State-*-+-icon_state" transform="translate(430.000000, 248.000000)">
                            <g id="icon_state_white" transform="translate(15.000000, 16.000000)">
                                <g id="Group">
                                    <g transform="translate(0.595745, 0.000000)">
                                        <path d="M22.712766,22.9827586 L22.287234,22.9827586 L22.287234,7.40258621 C22.287234,7.02844828 21.9946809,6.73448276 21.6223404,6.73448276 L11.9148936,6.73448276 L11.9148936,8.07068966 L20.9308511,8.07068966 L20.9308511,22.9827586 L19.1223404,22.9827586 L19.1223404,19.6689655 L17.8989362,19.6689655 L17.8989362,22.9827586 L16.1170213,22.9827586 L16.1170213,19.6689655 L14.893617,19.6689655 L14.893617,22.9827586 L13.1117021,22.9827586 L13.1117021,19.6689655 L11.8882979,19.6689655 L11.8882979,22.9827586 L10.1329787,22.9827586 L10.1329787,3.36724138 C10.1329787,2.99310345 9.81382979,2.67241379 9.44148936,2.67241379 L1.83510638,2.67241379 C1.46276596,2.67241379 1.14361702,2.99310345 1.14361702,3.36724138 L1.14361702,22.9827586 L0.691489362,22.9827586 L0,24.0517241 L23.4042553,24.0517241 L22.712766,22.9827586 L22.712766,22.9827586 Z M2.39361702,4.70344828 L8.90957447,4.70344828 L8.90957447,6.28017241 L2.39361702,6.28017241 L2.39361702,4.70344828 L2.39361702,4.70344828 Z M2.39361702,7.9637931 L8.90957447,7.9637931 L8.90957447,9.54051724 L2.39361702,9.54051724 L2.39361702,7.9637931 L2.39361702,7.9637931 Z M2.39361702,11.2241379 L8.90957447,11.2241379 L8.90957447,12.8008621 L2.39361702,12.8008621 L2.39361702,11.2241379 L2.39361702,11.2241379 Z M2.39361702,14.4844828 L8.90957447,14.4844828 L8.90957447,16.0612069 L2.39361702,16.0612069 L2.39361702,14.4844828 L2.39361702,14.4844828 Z M2.39361702,17.7448276 L8.90957447,17.7448276 L8.90957447,19.3215517 L2.39361702,19.3215517 L2.39361702,17.7448276 L2.39361702,17.7448276 Z M4.41489362,21.0051724 L6.86170213,21.0051724 L6.86170213,22.9827586 L4.41489362,22.9827586 L4.41489362,21.0051724 L4.41489362,21.0051724 Z" id="Shape"></path>
                                        <rect id="Rectangle-path" x="11.9148936" y="10.0215517" width="1.22340426" height="1.22931034"></rect>
                                        <rect id="Rectangle-path" x="14.893617" y="10.0215517" width="1.22340426" height="1.22931034"></rect>
                                        <rect id="Rectangle-path" x="17.8989362" y="10.0215517" width="1.22340426" height="1.22931034"></rect>
                                        <rect id="Rectangle-path" x="11.9148936" y="13.2551724" width="1.22340426" height="1.22931034"></rect>
                                        <rect id="Rectangle-path" x="14.893617" y="13.2551724" width="1.22340426" height="1.22931034"></rect>
                                        <rect id="Rectangle-path" x="17.8989362" y="13.2551724" width="1.22340426" height="1.22931034"></rect>
                                        <rect id="Rectangle-path" x="11.9148936" y="16.462069" width="1.22340426" height="1.22931034"></rect>
                                        <rect id="Rectangle-path" x="14.893617" y="16.462069" width="1.22340426" height="1.22931034"></rect>
                                        <rect id="Rectangle-path" x="17.8989362" y="16.462069" width="1.22340426" height="1.22931034"></rect>
                                        <path d="M16.25,5.53189655 L17.5797872,5.53189655 L17.5797872,0.668103448 C17.5797872,0.293965517 17.287234,0 16.9148936,0 L7.31382979,0 L7.31382979,1.3362069 L16.25,1.3362069 L16.25,5.53189655 L16.25,5.53189655 Z" id="Shape"></path>
                                    </g>
                                </g>
                            </g>
                        </g>
                    </g>
                </g>
            </g>
        </g>
    </g>
</svg>