<?xml version="1.0" encoding="UTF-8" standalone="no"?>
<svg width="21px" height="19px" viewBox="0 0 21 19" version="1.1" xmlns="http://www.w3.org/2000/svg" xmlns:xlink="http://www.w3.org/1999/xlink" xmlns:sketch="http://www.bohemiancoding.com/sketch/ns">
    <!-- Generator: sketchtool 3.5.1 (25234) - http://www.bohemiancoding.com/sketch -->
    <title>icon_star</title>
    <desc>Created with sketchtool.</desc>
    <defs></defs>
    <g id="Page-2" stroke="none" stroke-width="1" fill="none" fill-rule="evenodd" sketch:type="MSPage">
        <g id="08_choose_preferences-copy" sketch:type="MSArtboardGroup" transform="translate(-278.000000, -1345.000000)" stroke="#F5A623" stroke-width="0.8">
            <g id="Group" sketch:type="MSLayerGroup" transform="translate(209.000000, 1346.000000)">
                <path d="M88.8275862,6.8093035 C88.8275862,6.46465175 88.1816808,6.42157028 87.9144096,6.42157028 L81.6780814,6.44311102 L79.7403651,0.864060785 C79.6512747,0.627112706 79.4730939,0.174757282 79.1612775,0.174757282 C78.8494611,0.174757282 78.6712803,0.627112706 78.5821899,0.864060785 L76.6667462,6.44311102 L70.4081454,6.42157028 C70.1408742,6.42157028 69.5172414,6.46465175 69.5172414,6.8093035 C69.5172414,7.06779232 69.8513304,7.32628113 70.0517838,7.45552554 L75.1076642,10.9020431 L73.1699479,16.4810933 C73.1031301,16.6534192 73.0585849,16.825745 73.0585849,16.9980709 C73.0585849,17.2134783 73.1699479,17.4073449 73.3926739,17.4073449 C73.6599451,17.4073449 73.9049437,17.2565597 74.1053971,17.1057746 L79.1612775,13.6807978 L84.2171579,17.1057746 C84.4176113,17.235019 84.6626099,17.4073449 84.9298811,17.4073449 C85.1748797,17.4073449 85.2416975,17.1919375 85.2416975,16.9765302 C85.2416975,16.8042043 85.2194249,16.6318784 85.1526071,16.4810933 L83.2371634,10.9020431 L88.2930438,7.45552554 C88.4934972,7.32628113 88.8275862,7.06779232 88.8275862,6.8093035 L88.8275862,6.8093035 Z" id="icon_star" sketch:type="MSShapeGroup"></path>
            </g>
        </g>
    </g>
</svg>