<?xml version="1.0" encoding="UTF-8" standalone="no"?>
<svg width="346px" height="346px" viewBox="0 0 346 346" version="1.1" xmlns="http://www.w3.org/2000/svg" xmlns:xlink="http://www.w3.org/1999/xlink" xmlns:sketch="http://www.bohemiancoding.com/sketch/ns">
    <!-- Generator: sketchtool 3.5.1 (25234) - http://www.bohemiancoding.com/sketch -->
    <title>icon_no_video_found</title>
    <desc>Created with sketchtool.</desc>
    <defs></defs>
    <g id="Page-2" stroke="none" stroke-width="1" fill="none" fill-rule="evenodd" sketch:type="MSPage">
        <g id="09_educator_profile-copy" sketch:type="MSArtboardGroup" transform="translate(-627.000000, -367.000000)">
            <g id="icon_no_video_found" sketch:type="MSLayerGroup" transform="translate(628.000000, 368.000000)">
                <circle id="Oval-402" stroke="#DFDFDF" sketch:type="MSShapeGroup" cx="172" cy="172" r="172"></circle>
                <text id="No-Educator-Found" sketch:type="MSTextLayer" font-family="Montserrat" font-size="22" font-weight="normal" sketch:alignment="middle" fill="#BEBEBE">
                    <tspan x="82.273" y="265">No Video Found</tspan>
                </text>
                <g id="youtube1" transform="translate(91.000000, 82.000000)" fill="#DFDFDF" sketch:type="MSShapeGroup">
                    <g id="Capa_1">
                        <path d="M160.456385,27.0790055 C159.555996,16.3261878 153.132648,2.76635359 139.932035,2.28157459 C103.071466,-0.192196133 59.4030766,-0.868535912 21.8747741,2.28157459 C10.23178,3.58406077 2.25081336,17.7395442 1.38097839,28.4923619 C-0.459901768,51.0784254 -0.459901768,63.9317403 1.38097839,86.5178039 C2.26099804,97.2706215 10.0398625,111.507113 21.8951434,113.00116 C59.868389,115.474931 103.324491,115.828191 139.952405,113.00116 C151.443583,111.012169 159.58655,97.2706215 160.46657,86.5178039 C162.297265,63.9215746 162.297265,49.6650691 160.456385,27.0790055 L160.456385,27.0790055 Z M60.6774342,86.1543785 L60.6774342,28.2499724 L111.254534,57.2070994 L60.6774342,86.1543785 L60.6774342,86.1543785 Z" id="Shape"></path>
                    </g>
                </g>
            </g>
        </g>
    </g>
</svg>