<?xml version="1.0" encoding="UTF-8" standalone="no"?>
<svg width="36px" height="37px" viewBox="0 0 36 37" version="1.1" xmlns="http://www.w3.org/2000/svg" xmlns:xlink="http://www.w3.org/1999/xlink" xmlns:sketch="http://www.bohemiancoding.com/sketch/ns">
    <!-- Generator: sketchtool 3.4.4 (395) - http://www.bohemiancoding.com/sketch -->
    <title>icon_mail</title>
    <desc>Created with sketchtool.</desc>
    <defs></defs>
    <g id="provider" stroke="none" stroke-width="1" fill="none" fill-rule="evenodd" sketch:type="MSPage">
        <g id="01_landing_page" sketch:type="MSArtboardGroup" transform="translate(-1219.000000, -98.000000)" fill="#29ABE2">
            <g id="Group" sketch:type="MSLayerGroup" transform="translate(46.000000, 17.000000)">
                <g transform="translate(1173.000000, 41.000000)" id="icon_mail" sketch:type="MSShapeGroup">
                    <g transform="translate(0.000000, 40.939394)">
                        <path d="M18.0107527,36.0606061 C27.9578167,36.0606061 36.0215054,27.9881644 36.0215054,18.030303 C36.0215054,8.07244163 27.9578167,0 18.0107527,0 C8.06368865,0 0,8.07244163 0,18.030303 C0,27.9881644 8.06368865,36.0606061 18.0107527,36.0606061 Z M9.55046773,11.7142836 C9.70741249,11.6560581 9.87534254,11.6195286 10.0528102,11.6195286 L27.1353491,11.6195286 C27.3128168,11.6195286 27.4807468,11.6560581 27.6376916,11.7143262 L19.9838455,18.9324149 C19.2046995,19.6677359 17.9837153,19.6677359 17.2043138,18.9324149 L9.55046773,11.7142836 L9.55046773,11.7142836 Z M28.3696179,24.54099 C28.5022077,24.3221115 28.5830219,24.0679397 28.5830219,23.79318 L28.5830219,13.0687728 C28.5830219,12.87402 28.5433387,12.6887725 28.4735949,12.5189552 L21.3110634,19.2735414 L28.3696179,24.54099 L28.3696179,24.54099 Z M20.6634002,19.8744237 C20.0689602,20.3842593 19.3326908,20.6428215 18.5940797,20.6428215 C17.8554685,20.6428215 17.1191566,20.384515 16.5247591,19.8744237 L9.48617403,25.1267831 C9.66049086,25.2009929 9.85158367,25.2424669 10.0528102,25.2424669 L27.1353491,25.2424669 C27.3365757,25.2424669 27.5276685,25.2009929 27.7019853,25.1267831 L20.6634002,19.8744237 L20.6634002,19.8744237 Z M8.71460701,12.5189125 C8.64482066,12.6887725 8.6051374,12.8739774 8.6051374,13.0687728 L8.6051374,23.79318 C8.6051374,24.0679397 8.68590902,24.3221115 8.8185414,24.54099 L15.8770959,19.2735414 L8.71460701,12.5189125 L8.71460701,12.5189125 Z" id="Shape"></path>
                    </g>
                </g>
            </g>
        </g>
    </g>
</svg>