<?xml version="1.0" encoding="UTF-8" standalone="no"?>
<svg width="36px" height="37px" viewBox="0 0 36 37" version="1.1" xmlns="http://www.w3.org/2000/svg" xmlns:xlink="http://www.w3.org/1999/xlink" xmlns:sketch="http://www.bohemiancoding.com/sketch/ns">
    <!-- Generator: sketchtool 3.4.4 (395) - http://www.bohemiancoding.com/sketch -->
    <title>icon_contact_us</title>
    <desc>Created with sketchtool.</desc>
    <defs></defs>
    <g id="Page-1" stroke="none" stroke-width="1" fill="none" fill-rule="evenodd" sketch:type="MSPage">
        <g id="01_landing_page" sketch:type="MSArtboardGroup" transform="translate(-1219.000000, -16.000000)">
            <g id="Group" sketch:type="MSLayerGroup" transform="translate(46.000000, 16.000000)">
                <g transform="translate(1173.000000, 0.000000)" id="icon_contact_us" sketch:type="MSShapeGroup">
                    <g>
                        <g id="telephone5" fill="#29ABE2">
                            <ellipse id="Shape" cx="17.7368915" cy="18.030303" rx="17.6757409" ry="18.030303"></ellipse>
                        </g>
                        <g id="telephone34" transform="translate(4.802867, 4.808081)" fill="#FFFFFF">
                            <path d="M22.5646714,13.2254276 L21.2310753,13.2254276 C21.2310753,8.86850505 17.691362,5.32575084 13.3415651,5.32575084 L13.3407646,3.99230976 C18.4278017,3.98990572 22.5646714,8.13286869 22.5646714,13.2254276 L22.5646714,13.2254276 Z M13.3407646,6.29538047 L13.3399642,7.62882155 C16.4242055,7.62882155 18.9297013,10.1394411 18.9281004,13.2246263 L20.2616965,13.2238249 C20.2616965,9.40380471 17.1590442,6.29538047 13.3407646,6.29538047 L13.3407646,6.29538047 Z M13.0742055,0 C5.86430108,0 0,5.87066667 0,13.0891987 C0,20.3061279 5.86430108,26.1767946 13.0742055,26.1767946 C13.5200717,26.1767946 13.8802867,25.8161886 13.8802867,25.3706397 C13.8802867,24.9226869 13.5200717,24.5612795 13.0742055,24.5612795 C6.75363202,24.5612795 1.61296296,19.4134276 1.61296296,13.0891987 C1.61296296,6.76176431 6.75363202,1.6147138 13.0742055,1.6147138 C19.394779,1.6147138 24.5346476,6.76256566 24.5346476,13.0891987 C24.5346476,15.7328418 23.1290084,18.3524444 21.1174074,19.4631111 C20.3865711,19.8653872 19.594098,20.0649226 18.7487933,20.072936 C19.2562963,19.7708283 19.6957587,19.3621414 20.0223536,18.8476768 C20.0863919,18.7507138 20.1712425,18.6649697 20.2128674,18.5599933 C20.4754241,17.9277306 20.498638,17.2105253 20.6571326,16.542202 C20.8516487,15.689569 16.9285066,14.023569 16.587503,15.0885589 C16.4642294,15.4828215 16.2753166,16.7297172 16.0279689,17.0582694 C15.8078375,17.3515623 15.2651135,17.2121279 14.9257109,16.9236431 C14.0315771,16.1607609 13.0333811,15.0396768 12.1576583,14.1533872 L12.1592593,14.1525859 C12.1368459,14.1293468 12.1096296,14.1037037 12.0856153,14.078862 C12.0608005,14.0556229 12.0359857,14.0291785 12.0111708,14.005138 L12.0111708,14.0067407 C11.1258423,13.1284646 10.0051732,12.1315892 9.24391876,11.2348822 C8.95574671,10.8951111 8.81646356,10.351798 9.10943847,10.1314276 C9.43763441,9.88220875 10.683178,9.6962963 11.0770131,9.5712862 C12.1384468,9.23151515 10.4766547,5.30171044 9.62334528,5.49723906 C8.95734767,5.65350168 8.24091995,5.67914478 7.60934289,5.94038384 C7.50207885,5.98606061 7.41882915,6.06859933 7.32197133,6.13270707 C5.08143369,7.5542963 4.79246117,11.0064983 6.97936679,13.5788215 C7.81266428,14.5628754 8.68198327,15.5148754 9.57691756,16.4444377 L9.5721147,16.4476431 C9.59692951,16.4724848 9.6225448,16.4957239 9.6481601,16.5197643 C9.67217443,16.5446061 9.69538829,16.5694478 9.71860215,16.5958923 L9.72340502,16.5910842 C10.6519594,17.4869899 11.7526165,18.8068081 13.5408841,20.0008148 C17.3055317,22.5178451 20.1944564,21.815064 21.8962724,20.8806936 C24.8340263,19.2611717 26.148411,15.8017576 26.148411,13.092404 C26.148411,5.87066667 20.2833094,0 13.0742055,0 L13.0742055,0 Z" id="Shape"></path>
                        </g>
                    </g>
                </g>
            </g>
        </g>
    </g>
</svg>