<?xml version="1.0" encoding="UTF-8" standalone="no"?>
<svg width="17px" height="24px" viewBox="0 0 17 24" version="1.1" xmlns="http://www.w3.org/2000/svg" xmlns:xlink="http://www.w3.org/1999/xlink" xmlns:sketch="http://www.bohemiancoding.com/sketch/ns">
    <!-- Generator: sketchtool 3.5.1 (25234) - http://www.bohemiancoding.com/sketch -->
    <title>icon_password_white</title>
    <desc>Created with sketchtool.</desc>
    <defs></defs>
    <g id="provider" stroke="none" stroke-width="1" fill="none" fill-rule="evenodd" sketch:type="MSPage">
        <g id="02_register" sketch:type="MSArtboardGroup" transform="translate(-395.000000, -901.000000)" fill="#FFFFFF">
            <g id="icon_password_white" sketch:type="MSLayerGroup" transform="translate(395.000000, 901.000000)">
                <g id="Group" sketch:type="MSShapeGroup">
                    <path d="M15.3,11.2189441 L15.3,6.75776398 C15.3,3.02578882 12.2552469,0 8.5,0 C4.74475312,0 1.7,3.02584161 1.7,6.75776398 L1.7,11.2189441 C1.12890625,11.4037267 0.5578125,11.5951087 0,11.826087 L0,21.9627329 C5.44031875,24.2147578 11.5596813,24.2147578 17,21.9627329 L17,11.826087 C16.4421875,11.5951087 15.8710938,11.4037267 15.3,11.2189441 L15.3,11.2189441 Z M10.2,20.2732919 L6.8,20.2732919 L7.43420625,16.4918478 C7.05569062,16.181677 6.8,15.729646 6.8,15.2049689 C6.8,14.2711304 7.56037812,13.515528 8.5,13.515528 C9.43962188,13.515528 10.2,14.2711832 10.2,15.2049689 C10.2,15.729646 9.94430938,16.181677 9.56579375,16.4918478 L10.2,20.2732919 L10.2,20.2732919 Z M13.6,10.7553509 C10.2448375,9.96342547 6.75680938,9.96342547 3.4,10.7553509 L3.4,6.75776398 C3.4,3.96290062 5.68772187,1.68944099 8.5,1.68944099 C11.3122781,1.68944099 13.6,3.96295342 13.6,6.75776398 L13.6,10.7553509 L13.6,10.7553509 Z" id="Shape"></path>
                </g>
            </g>
        </g>
    </g>
</svg>