<?xml version="1.0" encoding="UTF-8" standalone="no"?>
<svg width="21px" height="22px" viewBox="0 0 21 22" version="1.1" xmlns="http://www.w3.org/2000/svg" xmlns:xlink="http://www.w3.org/1999/xlink" xmlns:sketch="http://www.bohemiancoding.com/sketch/ns">
    <!-- Generator: sketchtool 3.5.1 (25234) - http://www.bohemiancoding.com/sketch -->
    <title>icon_email_white</title>
    <desc>Created with sketchtool.</desc>
    <defs></defs>
    <g id="provider" stroke="none" stroke-width="1" fill="none" fill-rule="evenodd" sketch:type="MSPage">
        <g id="02_register" sketch:type="MSArtboardGroup" transform="translate(-823.000000, -820.000000)" fill="#FFFFFF">
            <g id="Group" sketch:type="MSLayerGroup" transform="translate(341.000000, 186.000000)">
                <g id="Email-ID-*-+-input-+-input-copy-6-+-input-+-Email-ID-*-+-noun_210760_cc" transform="translate(467.000000, 613.000000)" sketch:type="MSShapeGroup">
                    <g id="input-+-Email-ID-*-+-noun_210760_cc" transform="translate(15.000000, 21.000000)">
                        <g id="icon_email_white">
                            <g id="Group">
                                <path d="M0.102835052,7.64129988 L0.102835052,20.5471 L7.84996778,13.5499794 L0.102835052,7.64129988 L0.102835052,7.64129988 Z M20.9106959,20.5915261 L20.9106959,7.59687371 L13.1189111,13.5499794 L20.9106959,20.5915261 L20.9106959,20.5915261 Z M12.359826,14.1275195 L10.7746778,15.3714521 C10.6853737,15.4158782 10.5960696,15.4603044 10.5067655,15.4603044 C10.4174613,15.4603044 10.3281572,15.4158782 10.2388531,15.3714521 L8.60905284,14.1275195 L0.772615979,21.2134924 L20.2409149,21.2134924 L12.359826,14.1275195 L12.359826,14.1275195 Z M3.0945232,8.72974085 L0.861920103,7.01933361 L3.0945232,5.30892637 L3.0945232,8.72974085 L3.0945232,8.72974085 Z M20.1516108,7.04154669 L17.9190077,8.75195393 L17.9190077,5.33113945 L20.1516108,7.04154669 L20.1516108,7.04154669 Z M17.0482925,0.111065405 L17.0482925,8.86301933 L10.5067655,13.8387495 L3.9652384,8.86301933 L3.9652384,0.111065405 L17.0482925,0.111065405 L17.0482925,0.111065405 Z" id="Shape"></path>
                            </g>
                        </g>
                    </g>
                </g>
            </g>
        </g>
    </g>
</svg>