<?xml version="1.0" encoding="UTF-8" standalone="no"?>
<svg width="156px" height="156px" viewBox="0 0 156 156" version="1.1" xmlns="http://www.w3.org/2000/svg" xmlns:xlink="http://www.w3.org/1999/xlink" xmlns:sketch="http://www.bohemiancoding.com/sketch/ns">
    <!-- Generator: sketchtool 3.4.4 (395) - http://www.bohemiancoding.com/sketch -->
    <title>icon_choose_preferences</title>
    <desc>Created with sketchtool.</desc>
    <defs></defs>
    <g id="provider" stroke="none" stroke-width="1" fill="none" fill-rule="evenodd" sketch:type="MSPage">
        <g id="01_landing_page" sketch:type="MSArtboardGroup" transform="translate(-1112.000000, -1515.000000)">
            <g id="icon_choose_preferences" sketch:type="MSLayerGroup" transform="translate(1115.000000, 1518.000000)">
                <circle id="Oval-47" stroke="#5ECFFF" stroke-width="5" fill="#29ABE2" sketch:type="MSShapeGroup" cx="75" cy="75" r="75"></circle>
                <g id="applicants" transform="translate(31.000000, 35.000000)" fill="#FFFFFF" sketch:type="MSShapeGroup">
                    <g id="Group">
                        <path d="M14.2042353,27.8569412 C17.8964706,27.8569412 20.8903529,24.8621176 20.8903529,21.1670588 C20.8903529,17.4748235 17.8955294,14.4828235 14.2042353,14.4828235 C10.5101176,14.4828235 7.51811765,17.4748235 7.51811765,21.1670588 C7.51717647,24.8621176 10.5101176,27.8569412 14.2042353,27.8569412 L14.2042353,27.8569412 Z" id="Shape"></path>
                        <path d="M18.6512941,29.4823529 C18.5392941,29.4136471 18.4225882,29.3637647 18.3068235,29.3148235 C17.5595294,28.8188235 16.7228235,28.4536471 15.8701176,28.24 L14.2042353,29.9190588 L12.5891765,28.2249412 C12.5835294,28.2249412 12.5788235,28.2249412 12.5731765,28.2258824 C11.7167059,28.4310588 10.8762353,28.7943529 10.1270588,29.2903529 C9.99529412,29.3449412 9.86164706,29.4014118 9.73364706,29.4814118 C4.54211765,32.6644706 1.56047059,35.1849412 0.64,49.9181176 C0.549647059,51.3468235 1.63952941,52.5797647 3.06917647,52.672 C3.12658824,52.6757647 3.18117647,52.6757647 3.23388235,52.6757647 C4.59482353,52.6757647 5.73647059,51.6188235 5.82305882,50.24 C6.13364706,45.2658824 6.63717647,42.0414118 7.35905882,39.8192941 L7.35905882,48.816 C7.35905882,49.5134118 7.49552941,50.1656471 7.73270588,50.7623529 C7.71294118,50.8988235 7.70070588,51.0352941 7.70070588,51.1745882 L7.70447059,76.0348235 C7.70447059,77.7298824 9.07764706,79.1030588 10.7717647,79.1030588 C12.4668235,79.1030588 13.8390588,77.7298824 13.8390588,76.0329412 L13.8362353,54.7002353 C13.9595294,54.7058824 14.0818824,54.7152941 14.2032941,54.7152941 C14.2277647,54.7152941 14.2503529,54.7115294 14.2748235,54.7115294 L14.2748235,76.0329412 C14.2748235,77.7298824 15.6470588,79.1030588 17.3411765,79.1030588 C19.0362353,79.1030588 20.4084706,77.7298824 20.4084706,76.0329412 L20.4103529,51.3289412 C20.8122353,50.5825882 21.0465882,49.7402353 21.0465882,48.816 L21.0465882,39.8983529 C21.7581176,42.1167059 22.2522353,45.3251765 22.5581176,50.24 C22.6447059,51.6188235 23.7872941,52.6776471 25.1472941,52.6776471 C25.2009412,52.6776471 25.2555294,52.6757647 25.3091765,52.672 C26.7407059,52.5816471 27.8287059,51.3477647 27.7402353,49.9181176 C26.8235294,35.1849412 23.8428235,32.6654118 18.6512941,29.4823529 L18.6512941,29.4823529 Z M14.2192941,43.1529412 L14.1872941,43.1529412 L12.576,40.9458824 L14.1872941,30.1675294 L14.2192941,30.1675294 L15.8315294,40.9458824 L14.2192941,43.1529412 L14.2192941,43.1529412 Z" id="Shape"></path>
                        <path d="M73.9924706,27.8569412 C77.6847059,27.8569412 80.6785882,24.8621176 80.6785882,21.1670588 C80.6785882,17.4748235 77.6847059,14.4828235 73.9924706,14.4828235 C70.2983529,14.4828235 67.3063529,17.4748235 67.3063529,21.1670588 C67.3063529,24.8621176 70.2983529,27.8569412 73.9924706,27.8569412 L73.9924706,27.8569412 Z" id="Shape"></path>
                        <path d="M78.4395294,29.4823529 C78.3275294,29.4136471 78.2108235,29.3637647 78.0941176,29.3148235 C77.3477647,28.8188235 76.5110588,28.4536471 75.6574118,28.24 L73.9915294,29.9190588 L72.3755294,28.2249412 C72.3698824,28.2249412 72.3661176,28.2249412 72.3595294,28.2258824 C71.504,28.4310588 70.6625882,28.7943529 69.9134118,29.2903529 C69.7807059,29.3449412 69.6489412,29.4014118 69.5190588,29.4814118 C64.3284706,32.6644706 61.3458824,35.1849412 60.4272941,49.9181176 C60.336,51.3468235 61.4268235,52.5797647 62.8564706,52.672 C62.9138824,52.6757647 62.9675294,52.6757647 63.0211765,52.6757647 C64.3802353,52.6757647 65.5237647,51.6188235 65.6094118,50.24 C65.92,45.2658824 66.4225882,42.0414118 67.1463529,39.8192941 L67.1463529,48.816 C67.1463529,49.5134118 67.2837647,50.1656471 67.5190588,50.7623529 C67.5002353,50.8988235 67.4889412,51.0352941 67.4889412,51.1745882 L67.4917647,76.0348235 C67.4917647,77.7298824 68.8649412,79.1030588 70.56,79.1030588 C72.2550588,79.1030588 73.6263529,77.7298824 73.6263529,76.0329412 L73.6244706,54.7002353 C73.7468235,54.7058824 73.8691765,54.7152941 73.9915294,54.7152941 C74.0150588,54.7152941 74.0395294,54.7115294 74.0630588,54.7115294 L74.0630588,76.0329412 C74.0630588,77.7298824 75.4352941,79.1030588 77.1294118,79.1030588 C78.8244706,79.1030588 80.1985882,77.7298824 80.1985882,76.0329412 L80.1995294,51.3289412 C80.6023529,50.5825882 80.8357647,49.7402353 80.8357647,48.816 L80.8357647,39.8983529 C81.5472941,42.1167059 82.0414118,45.3251765 82.3472941,50.24 C82.4338824,51.6188235 83.5764706,52.6776471 84.9364706,52.6776471 C84.9910588,52.6776471 85.0447059,52.6757647 85.0983529,52.672 C86.5298824,52.5816471 87.6188235,51.3477647 87.5294118,49.9181176 C86.6108235,35.1849412 83.6301176,32.6654118 78.4395294,29.4823529 L78.4395294,29.4823529 Z M74.0084706,43.1529412 L73.9755294,43.1529412 L72.3651765,40.9458824 L73.9755294,30.1675294 L74.0084706,30.1675294 L75.6197647,40.9458824 L74.0084706,43.1529412 L74.0084706,43.1529412 Z" id="Shape"></path>
                        <path d="M54.5722353,0.446117647 L32.6842353,0.446117647 L43.6282353,11.3910588 L54.5722353,0.446117647 Z" id="Shape"></path>
                        <path d="M36.9948235,22.0752941 C36.9948235,25.7411765 39.9651765,28.7105882 43.6291765,28.7105882 C47.2941176,28.7105882 50.2635294,25.7411765 50.2635294,22.0752941 C50.2635294,18.4131765 47.2941176,15.4418824 43.6291765,15.4418824 C39.9651765,15.4418824 36.9948235,18.4131765 36.9948235,22.0752941 L36.9948235,22.0752941 Z" id="Shape"></path>
                        <path d="M48.0423529,30.3247059 C47.9425882,30.2654118 47.8362353,30.2221176 47.7336471,30.1778824 C46.9863529,29.6781176 46.1430588,29.3063529 45.2828235,29.0955294 L43.6301176,30.7595294 L42.0272941,29.0785882 C42.0216471,29.0785882 42.016,29.0785882 42.0103529,29.0795294 C41.1472941,29.2875294 40.3011765,29.6564706 39.5482353,30.1609412 C39.4343529,30.2117647 39.3185882,30.2588235 39.2094118,30.3256471 C36.4762353,32.0028235 30.1901176,38.3030588 30.4884706,41.9727059 C30.6663529,44.16 33.1247059,48.2672941 34.5741176,50.5185882 C35.0663529,51.2847059 35.8955294,51.7016471 36.7435294,51.7016471 C36.8912941,51.7016471 37.0390588,51.6818824 37.1887059,51.6564706 C37.1849412,51.7204706 37.1792941,51.7854118 37.1792941,51.8494118 L37.1811765,76.5129412 C37.1811765,78.1948235 38.5430588,79.5567059 40.224,79.5567059 C41.9058824,79.5567059 43.2687059,78.1948235 43.2687059,76.5129412 L43.2668235,55.3458824 C43.3882353,55.3524706 43.5077647,55.3628235 43.6291765,55.3628235 C43.6527059,55.3628235 43.6762353,55.36 43.6997647,55.3590588 L43.6988235,76.5157647 C43.6988235,78.1957647 45.0616471,79.5595294 46.7435294,79.5595294 L46.7435294,79.5595294 C48.4235294,79.5595294 49.7872941,78.1957647 49.7872941,76.5157647 L49.7872941,51.9068235 C49.8343529,51.8145882 49.8785882,51.7232941 49.9209412,51.6282353 C50.1157647,51.6743529 50.3134118,51.7025882 50.5091765,51.7025882 C51.3552941,51.7025882 52.1844706,51.2856471 52.6767059,50.5204706 C54.1261176,48.2663529 56.5835294,44.16 56.7623529,41.9736471 C57.0616471,38.3011765 50.7745882,32.0018824 48.0423529,30.3247059 L48.0423529,30.3247059 Z M36.8395294,44.2305882 C36.2334118,43.1077647 35.7891765,42.1684706 35.6564706,41.6941176 C35.8108235,41.2451765 36.2428235,40.5402353 36.8395294,39.7355294 L36.8395294,44.2305882 L36.8395294,44.2305882 Z M43.6451765,43.8908235 L43.6141176,43.8908235 L42.0141176,41.7016471 L43.6141176,31.0061176 L43.6451765,31.0061176 L45.2442353,41.7016471 L43.6451765,43.8908235 L43.6451765,43.8908235 Z M50.4188235,44.2145882 L50.4188235,39.7458824 C51.0061176,40.5402353 51.4352941,41.2385882 51.5905882,41.6875294 C51.4503529,42.1778824 51.0117647,43.1096471 50.4188235,44.2145882 L50.4188235,44.2145882 Z" id="Shape"></path>
                    </g>
                </g>
            </g>
        </g>
    </g>
</svg>