<?xml version="1.0" encoding="UTF-8" standalone="no"?>
<svg width="22px" height="23px" viewBox="0 0 22 23" version="1.1" xmlns="http://www.w3.org/2000/svg" xmlns:xlink="http://www.w3.org/1999/xlink" xmlns:sketch="http://www.bohemiancoding.com/sketch/ns">
    <!-- Generator: sketchtool 3.5.1 (25234) - http://www.bohemiancoding.com/sketch -->
    <title>icon-email</title>
    <desc>Created with sketchtool.</desc>
    <defs></defs>
    <g id="provider" stroke="none" stroke-width="1" fill="none" fill-rule="evenodd" sketch:type="MSPage">
        <g id="04_login" sketch:type="MSArtboardGroup" transform="translate(-607.000000, -406.000000)" fill="#17A5DC">
            <g id="register" sketch:type="MSLayerGroup" transform="translate(508.000000, 200.000000)">
                <g id="Group-+-Log-in" transform="translate(85.000000, 32.000000)" sketch:type="MSShapeGroup">
                    <g id="Group" transform="translate(0.333333, 173.442623)">
                        <g id="email" transform="translate(13.000000, 0.245902)">
                            <g id="icon-email" transform="translate(0.666667, 0.311475)">
                                <g id="Group">
                                    <path d="M0.107731959,8.0051713 L0.107731959,21.5255333 L8.22377577,14.1952165 L0.107731959,8.0051713 L0.107731959,8.0051713 Z M21.9064433,21.572075 L21.9064433,7.95862961 L13.7436211,14.1952165 L21.9064433,21.572075 L21.9064433,21.572075 Z M12.9483892,14.8002586 L11.2877577,16.103426 C11.194201,16.1499677 11.1006443,16.1965094 11.0070876,16.1965094 C10.9135309,16.1965094 10.8199742,16.1499677 10.7264175,16.103426 L9.01900773,14.8002586 L0.809407216,22.2236587 L21.204768,22.2236587 L12.9483892,14.8002586 L12.9483892,14.8002586 Z M3.24188144,9.14544279 L0.902963918,7.35358759 L3.24188144,5.56173239 L3.24188144,9.14544279 L3.24188144,9.14544279 Z M21.1112113,7.37685844 L18.7722938,9.16871364 L18.7722938,5.58500323 L21.1112113,7.37685844 L21.1112113,7.37685844 Z M17.860116,0.116354234 L17.860116,9.28506787 L11.0070876,14.4977376 L4.15405928,9.28506787 L4.15405928,0.116354234 L17.860116,0.116354234 L17.860116,0.116354234 Z" id="Shape"></path>
                                </g>
                            </g>
                        </g>
                    </g>
                </g>
            </g>
        </g>
    </g>
</svg>