<?xml version="1.0" encoding="UTF-8" standalone="no"?>
<svg width="346px" height="346px" viewBox="0 0 346 346" version="1.1" xmlns="http://www.w3.org/2000/svg" xmlns:xlink="http://www.w3.org/1999/xlink" xmlns:sketch="http://www.bohemiancoding.com/sketch/ns">
    <!-- Generator: sketchtool 3.5.1 (25234) - http://www.bohemiancoding.com/sketch -->
    <title>icon_no_notification_found</title>
    <desc>Created with sketchtool.</desc>
    <defs></defs>
    <g id="Page-2" stroke="none" stroke-width="1" fill="none" fill-rule="evenodd" sketch:type="MSPage">
        <g id="16_no_notifications" sketch:type="MSArtboardGroup" transform="translate(-911.000000, -246.000000)">
            <g id="icon_no_notification_found" sketch:type="MSLayerGroup" transform="translate(912.000000, 247.000000)">
                <g id="noun_61589" transform="translate(123.000000, 75.000000)" fill="#DFDFDF" sketch:type="MSShapeGroup">
                    <g id="Group">
                        <path d="M56.35,7.35 C56.35,3.43 52.92,0 49,0 C45.08,0 41.65,3.43 41.65,7.35 L41.65,16.66 L56.35,29.4 L56.35,7.35 L56.35,7.35 Z" id="Shape"></path>
                        <path d="M49,98 C54.39,98 58.8,93.59 58.8,88.2 L39.2,88.2 C39.2,93.59 43.61,98 49,98 L49,98 Z" id="Shape"></path>
                        <path d="M0.145481,7.076041 L7.075061,0.146461 L97.852559,90.923959 L90.922979,97.853539 L0.145481,7.076041 L0.145481,7.076041 Z" id="Rectangle-path"></path>
                        <g transform="translate(4.900000, 9.800000)" id="Shape">
                            <path d="M78.4,52.92 L78.4,34.3 C78.4,15.19 63.21,0 44.1,0 C38.71,0 33.81,1.47 28.91,3.43 L78.4,52.92 L78.4,52.92 Z"></path>
                            <path d="M21.07,9.31 C14.21,15.68 9.8,24.5 9.8,34.3 L9.8,56.35 L0,67.62 L0,73.5 L85.26,73.5 L21.07,9.31 L21.07,9.31 Z"></path>
                        </g>
                    </g>
                </g>
                <text id="No-Notification-Foun" sketch:type="MSTextLayer" font-family="Montserrat" font-size="22" font-weight="normal" sketch:alignment="middle" fill="#BEBEBE">
                    <tspan x="49.124" y="229">No Notification Found</tspan>
                </text>
                <circle id="Oval-402" stroke="#DFDFDF" sketch:type="MSShapeGroup" cx="172" cy="172" r="172"></circle>
            </g>
        </g>
    </g>
</svg>