<?xml version="1.0" encoding="UTF-8" standalone="no"?>
<svg width="44px" height="57px" viewBox="0 0 44 57" version="1.1" xmlns="http://www.w3.org/2000/svg" xmlns:xlink="http://www.w3.org/1999/xlink">
    <!-- Generator: sketchtool 3.6.1 (26313) - http://www.bohemiancoding.com/sketch -->
    <title>icon_onetap_normal copy</title>
    <desc>Created with sketchtool.</desc>
    <defs></defs>
    <g id="educator" stroke="none" stroke-width="1" fill="none" fill-rule="evenodd">
        <g id="01_landing_page" transform="translate(-1227.000000, -1432.000000)" fill="#29ABE2">
            <g id="Group-21-Copy" transform="translate(1113.000000, 1432.000000)">
                <g id="icon_onetap_normal-copy" transform="translate(114.000000, 0.000000)">
                    <g id="Group">
                        <path d="M16.8100368,0 C19.5881631,0 22.1040602,1.11686339 23.9246212,2.92173137 C25.7451846,4.72629063 26.8717595,7.22049892 26.8717595,9.9749837 C26.8717595,12.5377558 25.8962586,14.8752024 24.2940637,16.6419337 C24.122148,16.6404943 23.9492994,16.6457371 23.7762423,16.657353 L23.7762423,12.9252912 C24.16715,12.0196714 24.383442,11.0222548 24.383442,9.9749837 C24.383442,7.90151354 23.5354782,6.02407239 22.1652355,4.66594995 C20.7949927,3.30751966 18.9012266,2.46686522 16.8100368,2.46686522 C14.7184322,2.46686522 12.8247692,3.3072112 11.4545264,4.66564148 C10.0841805,6.02407239 9.23652727,7.90151354 9.23652727,9.9749837 C9.23652727,11.0225627 9.45313223,12.0201849 9.84414181,12.9261137 L9.84414181,17.1727655 L9.69534814,17.0282354 C7.87478591,15.2234711 6.74821105,12.7291595 6.74821105,9.9749837 C6.74821105,7.22049892 7.87457855,4.72629063 9.69503763,2.92142297 C11.5155986,1.11655493 14.0316012,0 16.8100368,0 L16.8100368,0 Z" id="Shape"></path>
                        <path d="M12.0690898,37.3696462 L7.36080224,29.2802234 C5.76503708,26.5385882 1.55466187,28.9290748 3.1618334,31.6891114 C8.18491866,40.3144032 11.0689107,51.0147043 20.6147829,53.0562054 C36.4097525,56.4324939 41.2141575,43.7877265 41.2141575,30.7062929 C41.2141575,26.9802964 36.3736655,27.5412465 36.3736655,30.7062929 C36.3736655,32.3286997 33.8852474,32.3286997 33.8852474,30.7062929 L33.8852474,27.2096309 C33.8852474,23.48425 29.0447577,24.045407 29.0447577,27.2096309 C29.0447577,28.8320377 26.5564427,28.8320377 26.5564427,27.2096309 L26.5564427,23.7129688 C26.5564427,19.9885151 21.7161617,20.572388 21.7161617,23.7129688 C21.7161617,25.3353756 19.2277411,25.3353756 19.2277411,23.7129688 L19.2277411,10.5970964 C19.2277411,7.1334314 14.3872514,7.13219887 14.3872514,10.5970964 L14.3872514,36.7527751 C14.3854891,37.9984375 12.7044926,38.4571065 12.0690898,37.3696462 L12.0690898,37.3696462 L12.0690898,37.3696462 Z M9.50663573,28.0525453 L11.8989365,32.155594 L11.8989365,10.5970964 C11.8989365,3.87073094 21.7161617,3.8718619 21.7161617,10.5970964 L21.7161617,19.3514965 C24.7482184,17.5874383 28.5197837,19.3226118 28.9903226,22.8697453 C32.0215497,21.0534662 35.845169,22.7924432 36.3192304,26.3660983 C39.6904549,24.341249 43.702475,26.668827 43.702475,30.7062929 C43.702475,45.4242202 37.5534358,59.1971541 20.0998653,55.4652979 C9.33409771,53.1631101 6.48110942,42.3008023 1.01382273,32.9128816 C-2.20280066,27.3888005 6.26948111,22.5025629 9.50663573,28.0525453 L9.50663573,28.0525453 Z" id="Shape"></path>
                    </g>
                </g>
            </g>
        </g>
    </g>
</svg>