<?xml version="1.0" encoding="UTF-8" standalone="no"?>
<svg width="28px" height="28px" viewBox="0 0 28 28" version="1.1" xmlns="http://www.w3.org/2000/svg" xmlns:xlink="http://www.w3.org/1999/xlink" xmlns:sketch="http://www.bohemiancoding.com/sketch/ns">
    <!-- Generator: sketchtool 3.4.4 (395) - http://www.bohemiancoding.com/sketch -->
    <title>icon_twitter</title>
    <desc>Created with sketchtool.</desc>
    <defs></defs>
    <g id="provider" stroke="none" stroke-width="1" fill="none" fill-rule="evenodd" sketch:type="MSPage">
        <g id="01_landing_page" sketch:type="MSArtboardGroup" transform="translate(-241.000000, -5204.000000)" fill="#81DCFF">
            <g id="Group" sketch:type="MSLayerGroup" transform="translate(-4.000000, 4187.000000)">
                <g id="Dribbble-Icon-+-Twitter-Icon-+-Facebook-Icon" transform="translate(206.000000, 1017.000000)" sketch:type="MSShapeGroup">
                    <g id="icon_twitter" transform="translate(39.000000, 0.000000)">
                        <path d="M18.6910667,11.2334694 L18.7024083,11.5398367 C18.7024083,14.7056327 16.2866333,18.3593469 11.8860667,18.3593469 C10.5364083,18.3593469 9.27748333,17.9622041 8.21136667,17.2813878 C8.404175,17.3040816 8.59698333,17.3154286 8.78979167,17.3154286 C9.91261667,17.3154286 10.9447083,16.9409796 11.7613083,16.2942041 C10.7065333,16.2715102 9.833225,15.5793469 9.527,14.6262041 C9.67444167,14.6602449 9.82188333,14.6715918 9.969325,14.6715918 C10.1961583,14.6715918 10.4003083,14.637551 10.6044583,14.5921633 C9.50431667,14.3652245 8.68771667,13.4007347 8.68771667,12.2433469 L8.68771667,12.2093061 C9.00528333,12.3908571 9.37955833,12.4929796 9.765175,12.5043265 C9.13004167,12.0731429 8.69905833,11.3469388 8.69905833,10.5186122 C8.69905833,10.0760816 8.82381667,9.66759184 9.02796667,9.3044898 C10.2075,10.756898 11.9768,11.7100408 13.9615917,11.8121633 C13.9275667,11.6419592 13.9048833,11.4490612 13.9048833,11.2675102 C13.9048833,9.93991837 14.971,8.87330612 16.297975,8.87330612 C16.9898167,8.87330612 17.6022667,9.15697959 18.0445917,9.62220408 C18.5889917,9.52008163 19.0993667,9.31583673 19.564375,9.0435102 C19.3829083,9.61085714 19.0086333,10.0760816 18.5096,10.371102 C18.9972917,10.3143673 19.4623,10.189551 19.8819417,9.99665306 C19.564375,10.4732245 19.156075,10.8930612 18.6910667,11.2334694 L18.6910667,11.2334694 Z M13.61,0 C6.090475,0 0,6.09330612 0,13.6163265 C0,21.1393469 6.090475,27.2326531 13.61,27.2326531 C21.129525,27.2326531 27.22,21.1393469 27.22,13.6163265 C27.22,6.09330612 21.129525,0 13.61,0 L13.61,0 Z" id="Twitter-Icon"></path>
                    </g>
                </g>
            </g>
        </g>
    </g>
</svg>