<?xml version="1.0" encoding="UTF-8" standalone="no"?>
<svg width="24px" height="24px" viewBox="0 0 24 24" version="1.1" xmlns="http://www.w3.org/2000/svg" xmlns:xlink="http://www.w3.org/1999/xlink" xmlns:sketch="http://www.bohemiancoding.com/sketch/ns">
    <!-- Generator: sketchtool 3.5.1 (25234) - http://www.bohemiancoding.com/sketch -->
    <title>icon_time_white</title>
    <desc>Created with sketchtool.</desc>
    <defs></defs>
    <g id="Page-2" stroke="none" stroke-width="1" fill="none" fill-rule="evenodd" sketch:type="MSPage">
        <g id="07_post_requirement" sketch:type="MSArtboardGroup" transform="translate(-486.000000, -1614.000000)" fill="#FFFFFF">
            <g id="icon_time_white" sketch:type="MSLayerGroup" transform="translate(486.000000, 1614.000000)">
                <g id="Group" sketch:type="MSShapeGroup">
                    <path d="M12,0 C5.38575,0 0,5.38575 0,12 C0,18.61425 5.38575,24 12,24 C18.61425,24 24,18.61425 24,12 C24,5.38575 18.61425,0 12,0 L12,0 Z M12,2.25 C17.39775,2.25 21.75,6.60225 21.75,12 C21.75,17.39775 17.39775,21.75 12,21.75 C6.60225,21.75 2.25,17.39775 2.25,12 C2.25,6.60225 6.60225,2.25 12,2.25 L12,2.25 Z M11.25,5.25 L11.25,12.23475 L6.492,16.99275 C6.36004133,17.0740913 6.2917319,17.2282417 6.32011431,17.3806357 C6.34849672,17.5330297 6.46772031,17.6522533 6.62011431,17.6806357 C6.77250831,17.7090181 6.92665873,17.6407087 7.008,17.50875 L11.649,12.86775 L12.07125,13.05525 L16.19625,14.93025 L16.87575,15.23475 L17.4855,13.875 L16.806,13.5705 L12.7515,11.71875 L12.7515,5.25 L11.2515,5.25 L11.25,5.25 Z" id="Shape"></path>
                </g>
            </g>
        </g>
    </g>
</svg>