<?xml version="1.0" encoding="UTF-8" standalone="no"?>
<svg width="346px" height="346px" viewBox="0 0 346 346" version="1.1" xmlns="http://www.w3.org/2000/svg" xmlns:xlink="http://www.w3.org/1999/xlink" xmlns:sketch="http://www.bohemiancoding.com/sketch/ns">
    <!-- Generator: sketchtool 3.5.1 (25234) - http://www.bohemiancoding.com/sketch -->
    <title>icon_no_educator_found</title>
    <desc>Created with sketchtool.</desc>
    <defs></defs>
    <g id="Page-2" stroke="none" stroke-width="1" fill="none" fill-rule="evenodd" sketch:type="MSPage">
        <g id="08_choose_preferences_placeholder" sketch:type="MSArtboardGroup" transform="translate(-627.000000, -1264.000000)">
            <g id="icon_no_educator_found" sketch:type="MSLayerGroup" transform="translate(628.000000, 1265.000000)">
                <circle id="Oval-402" stroke="#DFDFDF" sketch:type="MSShapeGroup" cx="172" cy="172" r="172"></circle>
                <text id="No-Educator-Found" sketch:type="MSTextLayer" font-family="Montserrat" font-size="22" font-weight="normal" sketch:alignment="middle" fill="#BEBEBE">
                    <tspan x="64.381" y="283">No Educator Found</tspan>
                </text>
                <g id="noun_6897" transform="translate(80.000000, 10.000000)" fill="#DFDFDF" sketch:type="MSShapeGroup">
                    <g id="Group">
                        <g transform="translate(0.359551, 0.761210)" id="Shape">
                            <path d="M51.6494273,88.1715634 C51.6494273,88.1715634 49.5983023,66.9693547 85.3508706,64.6791846 C85.3508706,64.6791846 126.849662,61.7724302 130.352707,88.1715634 C130.352707,88.1715634 131.579285,95.8633226 130.352707,108.959262 C130.352707,108.959262 134.260343,109.995538 134.598356,114.503339 C134.598356,114.503339 135.420343,128.778042 128.570456,135.570831 L125.069972,135.570831 C125.069972,135.570831 116.78865,165.153923 107.751921,170.213541 C107.751921,170.213541 173.008937,184.268035 182.055909,210.327788 L182.055909,231.3901 L0.980750156,231.3901 L0.980750156,211.436604 C0.980750156,211.436604 3.16759254,196.744799 23.4406969,189.532318 C23.4406969,189.532318 60.5683641,169.177265 74.9416033,170.977795 C74.9416033,170.977795 63.5669501,160.721252 57.5492924,135.765133 C57.5492924,135.765133 49.8671763,140.757393 48.2334463,123.161425 C48.2334463,123.161425 46.3180387,110.967047 52.0745044,109.443721 L51.6494273,88.1715634 L51.6494273,88.1715634 Z"></path>
                            <path d="M47.818612,82.3140128 L1.77456882,59.1014286 L89.4736063,0.259081862 C89.4736063,0.259081862 90.7898088,-0.533669342 92.5106028,1.05183307 L178.770524,59.1014286 L134.378136,82.3140128 C134.378136,82.3140128 135.509967,51.41226 84.7926369,54.8086549 C84.7900762,54.8086549 46.3487672,55.7050337 47.818612,82.3140128 L47.818612,82.3140128 Z"></path>
                            <path d="M26.9923953,121.127734 L23.4816682,47.6065361 C23.4816682,47.6065361 23.4150899,47.5029085 23.2768118,47.3526485 C24.8157957,46.5443531 25.8605635,44.9251717 25.8605635,43.0546934 C25.8605635,40.3836918 23.7146924,38.2152841 21.0720445,38.2152841 C18.4319572,38.2152841 16.2835254,40.3811011 16.2835254,43.0546934 C16.2835254,44.9977111 17.4256,46.6661156 19.0490872,47.4433226 C18.9927517,47.4977271 18.9517804,47.5469502 18.9133699,47.6039454 C18.9133699,47.6039454 14.5704135,96.8063339 15.218272,122.31427 C15.218272,122.31427 13.7663521,132.433506 21.7967241,131.327281 C21.7992848,131.332462 27.437958,131.107072 26.9923953,121.127734 L26.9923953,121.127734 Z"></path>
                        </g>
                    </g>
                </g>
            </g>
        </g>
    </g>
</svg>