<?xml version="1.0" encoding="UTF-8" standalone="no"?>
<svg width="25px" height="25px" viewBox="0 0 25 25" version="1.1" xmlns="http://www.w3.org/2000/svg" xmlns:xlink="http://www.w3.org/1999/xlink" xmlns:sketch="http://www.bohemiancoding.com/sketch/ns">
    <!-- Generator: sketchtool 3.5.1 (25234) - http://www.bohemiancoding.com/sketch -->
    <title>icon_post</title>
    <desc>Created with sketchtool.</desc>
    <defs></defs>
    <g id="provider" stroke="none" stroke-width="1" fill="none" fill-rule="evenodd" sketch:type="MSPage">
        <g id="02_register" sketch:type="MSArtboardGroup" transform="translate(-392.000000, -819.000000)" fill="#17A5DC">
            <g id="Group" sketch:type="MSLayerGroup" transform="translate(341.000000, 186.000000)">
                <g id="user_name" transform="translate(37.000000, 282.000000)" sketch:type="MSShapeGroup">
                    <g id="Group">
                        <g id="input-+-input-copy-8-+-Post-Code-*-+-icon_post" transform="translate(0.000000, 331.000000)">
                            <g id="icon_post" transform="translate(14.000000, 20.000000)">
                                <g id="Group">
                                    <path d="M20.7085,0.0395 C17.436,0.0045 8.071,0 8.071,0 C8.189,0.2775 12.8315,-0.89 12.871,8.7915 C12.871,9.501 12.8145,10.186 12.7175,10.8445 L12.193,10.8445 C12.2615,10.229 12.3025,9.589 12.3025,8.925 C12.3025,4.454 10.6705,0.8295 8.658,0.8295 C6.6455,0.8295 5.014,4.454 5.014,8.925 C5.014,9.589 5.055,10.2285 5.1235,10.8445 L0.992,10.8445 C0.444,10.8445 0,11.051 0,11.305 C0,11.5595 0.4445,11.765 0.992,11.765 L5.2485,11.765 L12.067,11.765 L12.125,11.765 L12.125,24.1775 L14.455,24.1775 L14.455,11.7865 L23.6685,11.7865 C24.535,10.102 25.7075,3.8005 20.7085,0.0395 L20.7085,0.0395 Z" id="Shape"></path>
                                </g>
                            </g>
                        </g>
                    </g>
                </g>
            </g>
        </g>
    </g>
</svg>