<?xml version="1.0" encoding="UTF-8" standalone="no"?>
<svg width="25px" height="24px" viewBox="0 0 25 24" version="1.1" xmlns="http://www.w3.org/2000/svg" xmlns:xlink="http://www.w3.org/1999/xlink" xmlns:sketch="http://www.bohemiancoding.com/sketch/ns">
    <!-- Generator: sketchtool 3.5.1 (25234) - http://www.bohemiancoding.com/sketch -->
    <title>icon_city_white</title>
    <desc>Created with sketchtool.</desc>
    <defs></defs>
    <g id="provider" stroke="none" stroke-width="1" fill="none" fill-rule="evenodd" sketch:type="MSPage">
        <g id="02_register" sketch:type="MSArtboardGroup" transform="translate(-392.000000, -735.000000)" fill="#FFFFFF">
            <g id="Group" sketch:type="MSLayerGroup" transform="translate(341.000000, 186.000000)">
                <g id="user_name" transform="translate(37.000000, 282.000000)" sketch:type="MSShapeGroup">
                    <g id="Group">
                        <g id="input-+-input-copy-5-+-City-*-+-icon_city" transform="translate(0.000000, 248.000000)">
                            <g id="icon_city_white" transform="translate(14.000000, 19.000000)">
                                <g id="Group">
                                    <g id="Shape">
                                        <path d="M24.2346939,23.9712733 L24.2346939,2.67468944 L16.7857143,0.252329193 L9.74489796,3.33074534 L9.74489796,6.45962733 L12.0918367,5.39984472 L19.2346939,7.87267081 L19.2346939,23.9712733 L24.2346939,23.9712733 L24.2346939,23.9712733 Z M20.9693878,3.88586957 L22.0408163,3.88586957 L22.0408163,6.00543478 L20.9693878,6.00543478 L20.9693878,3.88586957 L20.9693878,3.88586957 Z M20.9693878,7.67080745 L22.0408163,7.67080745 L22.0408163,9.79037267 L20.9693878,9.79037267 L20.9693878,7.67080745 L20.9693878,7.67080745 Z M20.9693878,11.4557453 L22.0408163,11.4557453 L22.0408163,13.5753106 L20.9693878,13.5753106 L20.9693878,11.4557453 L20.9693878,11.4557453 Z M20.9693878,15.2406832 L22.0408163,15.2406832 L22.0408163,17.3602484 L20.9693878,17.3602484 L20.9693878,15.2406832 L20.9693878,15.2406832 Z M20.9693878,19.076087 L22.0408163,19.076087 L22.0408163,21.1956522 L20.9693878,21.1956522 L20.9693878,19.076087 L20.9693878,19.076087 Z"></path>
                                        <path d="M0.255102041,23.9712733 L11.5306122,23.9712733 L11.5306122,6.8128882 L0.255102041,11.9099379 L0.255102041,23.9712733 L0.255102041,23.9712733 Z M1.78571429,13.121118 L8.97959184,10.9006211 L8.97959184,12.0108696 L1.78571429,14.2313665 L1.78571429,13.121118 L1.78571429,13.121118 Z M1.78571429,15.9976708 L8.97959184,14.4836957 L8.97959184,15.5939441 L1.78571429,17.1079193 L1.78571429,15.9976708 L1.78571429,15.9976708 Z M1.78571429,18.8237578 L8.97959184,18.0667702 L8.97959184,19.1770186 L1.78571429,19.9340062 L1.78571429,18.8237578 L1.78571429,18.8237578 Z M1.78571429,21.7003106 L8.97959184,21.7003106 L8.97959184,22.7600932 L1.78571429,22.7600932 L1.78571429,21.7003106 L1.78571429,21.7003106 Z"></path>
                                        <path d="M12.6530612,23.9712733 L16.4795918,23.9712733 L18.1632653,23.9712733 L18.1632653,8.62965839 L12.6530612,6.71195652 L12.6530612,23.9712733 Z"></path>
                                    </g>
                                </g>
                            </g>
                        </g>
                    </g>
                </g>
            </g>
        </g>
    </g>
</svg>