<?xml version="1.0" encoding="UTF-8" standalone="no"?>
<svg width="31px" height="23px" viewBox="0 0 31 23" version="1.1" xmlns="http://www.w3.org/2000/svg" xmlns:xlink="http://www.w3.org/1999/xlink" xmlns:sketch="http://www.bohemiancoding.com/sketch/ns">
    <!-- Generator: sketchtool 3.5.1 (25234) - http://www.bohemiancoding.com/sketch -->
    <title>icon_info</title>
    <desc>Created with sketchtool.</desc>
    <defs></defs>
    <g id="educator" stroke="none" stroke-width="1" fill="none" fill-rule="evenodd" sketch:type="MSPage">
        <g id="03_register_error_message" sketch:type="MSArtboardGroup" transform="translate(-1167.000000, -897.000000)" fill="#D62A2A">
            <g id="Group" sketch:type="MSLayerGroup" transform="translate(378.000000, 215.000000)">
                <path d="M819.15,701.301587 L806.228571,683.079365 C805.328571,681.873016 803.528571,681.873016 802.628571,683.079365 L789.707143,701.301587 C788.678571,702.761905 789.707143,704.730159 791.507143,704.730159 L817.35,704.730159 C819.085714,704.666667 820.178571,702.698413 819.15,701.301587 L819.15,701.301587 Z M804.428571,701.746032 C803.657143,701.746032 803.014286,701.111111 803.014286,700.349206 C803.014286,699.587302 803.657143,698.952381 804.428571,698.952381 C805.2,698.952381 805.842857,699.587302 805.842857,700.349206 C805.842857,701.111111 805.2,701.746032 804.428571,701.746032 L804.428571,701.746032 Z M805.714286,696.984127 C805.714286,697.174603 805.585714,697.301587 805.392857,697.301587 L803.528571,697.301587 C803.335714,697.301587 803.207143,697.174603 803.207143,696.984127 L802.628571,687.650794 C802.628571,687.460317 802.757143,687.269841 802.95,687.269841 L806.035714,687.269841 C806.228571,687.269841 806.357143,687.460317 806.357143,687.650794 L805.714286,696.984127 L805.714286,696.984127 Z" id="icon_info" sketch:type="MSShapeGroup"></path>
            </g>
        </g>
    </g>
</svg>