<?xml version="1.0" encoding="UTF-8" standalone="no"?>
<svg width="23px" height="25px" viewBox="0 0 23 25" version="1.1" xmlns="http://www.w3.org/2000/svg" xmlns:xlink="http://www.w3.org/1999/xlink" xmlns:sketch="http://www.bohemiancoding.com/sketch/ns">
    <!-- Generator: sketchtool 3.5.1 (25234) - http://www.bohemiancoding.com/sketch -->
    <title>icon_street</title>
    <desc>Created with sketchtool.</desc>
    <defs></defs>
    <g id="provider" stroke="none" stroke-width="1" fill="none" fill-rule="evenodd" sketch:type="MSPage">
        <g id="02_register" sketch:type="MSArtboardGroup" transform="translate(-393.000000, -652.000000)" fill="#17A5DC">
            <g id="Group" sketch:type="MSLayerGroup" transform="translate(341.000000, 186.000000)">
                <g id="user_name" transform="translate(37.000000, 282.000000)" sketch:type="MSShapeGroup">
                    <g id="Group">
                        <g id="input-+-input-copy-10-+-Street-Address-+-icon_street" transform="translate(0.000000, 164.000000)">
                            <g id="icon_street" transform="translate(15.000000, 20.000000)">
                                <g id="Group">
                                    <path d="M3.63905021,2.45048571 L10.5982434,2.45048571 L10.5982434,0.177822857 L13.2637966,0.177822857 L13.2637966,2.45048571 L21.4156817,2.45048571 L21.4156817,8.2216921 L3.63905021,8.2216921 L0.650577021,5.33519597 L3.63905021,2.45048571 L3.63905021,2.45048571 Z M13.0961021,24.314278 L10.4282587,24.314278 L10.4282587,18.1284918 L13.0961021,18.1284918 L13.0961021,24.314278 L13.0961021,24.314278 Z M19.970303,16.8681691 L2.19138128,16.8681691 L2.19138128,11.0969627 L10.5132511,11.0969627 L10.5132511,9.33455193 L13.1810945,9.33455193 L13.1810945,11.0969627 L19.970303,11.0969627 L22.9562315,13.9814178 L19.970303,16.8681691 L19.970303,16.8681691 Z" id="Shape"></path>
                                </g>
                            </g>
                        </g>
                    </g>
                </g>
            </g>
        </g>
    </g>
</svg>