<?xml version="1.0" encoding="UTF-8" standalone="no"?>
<svg width="20px" height="18px" viewBox="0 0 20 18" version="1.1" xmlns="http://www.w3.org/2000/svg" xmlns:xlink="http://www.w3.org/1999/xlink" xmlns:sketch="http://www.bohemiancoding.com/sketch/ns">
    <!-- Generator: sketchtool 3.5.1 (25234) - http://www.bohemiancoding.com/sketch -->
    <title>icon_speach_bubble</title>
    <desc>Created with sketchtool.</desc>
    <defs></defs>
    <g id="Page-2" stroke="none" stroke-width="1" fill="none" fill-rule="evenodd" sketch:type="MSPage">
        <g id="08_choose_preferences-copy" sketch:type="MSArtboardGroup" transform="translate(-1027.000000, -1324.000000)" fill="#29ABE2">
            <g id="eye-+-youtube1-+-speech-bubble19" sketch:type="MSLayerGroup" transform="translate(961.000000, 1324.000000)">
                <g id="icon_speach_bubble" transform="translate(66.000000, 0.000000)" sketch:type="MSShapeGroup">
                    <path d="M18.6226984,0.411809524 L0.82215873,0.411809524 C0.368730159,0.411809524 0,0.779809524 0,1.23396825 L0,13.7313651 C0,14.1847937 0.368,14.5535238 0.82215873,14.5535238 L10.6909841,14.5535238 L14.476127,17.3814286 C14.9872381,17.7633016 15.4048889,17.553746 15.4048889,16.9155873 L15.4048889,14.5527937 L18.6219683,14.5527937 C19.0753968,14.5527937 19.444127,14.1847937 19.444127,13.7306349 L19.444127,1.2332381 C19.444127,0.779809524 19.076127,0.411809524 18.6226984,0.411809524 L18.6226984,0.411809524 Z M5.23815873,8.65603175 C4.53574603,8.65603175 3.96695238,8.08650794 3.96695238,7.3848254 C3.96695238,6.6824127 4.53647619,6.11361905 5.23815873,6.11361905 C5.93984127,6.11361905 6.50936508,6.68314286 6.50936508,7.3848254 C6.50863492,8.08650794 5.93984127,8.65603175 5.23815873,8.65603175 L5.23815873,8.65603175 Z M9.72279365,8.65603175 C9.02038095,8.65603175 8.4515873,8.08650794 8.4515873,7.3848254 C8.4515873,6.6824127 9.02111111,6.11361905 9.72279365,6.11361905 C10.4244762,6.11361905 10.994,6.68314286 10.994,7.3848254 C10.994,8.08650794 10.4252063,8.65603175 9.72279365,8.65603175 L9.72279365,8.65603175 Z M14.2074286,8.65603175 C13.5050159,8.65603175 12.9362222,8.08650794 12.9362222,7.3848254 C12.9362222,6.6824127 13.505746,6.11361905 14.2074286,6.11361905 C14.9091111,6.11361905 15.4786349,6.68314286 15.4786349,7.3848254 C15.4786349,8.08650794 14.9098413,8.65603175 14.2074286,8.65603175 L14.2074286,8.65603175 Z" id="Shape"></path>
                </g>
            </g>
        </g>
    </g>
</svg>