<?xml version="1.0" encoding="UTF-8" standalone="no"?>
<svg width="20px" height="18px" viewBox="0 0 20 18" version="1.1" xmlns="http://www.w3.org/2000/svg" xmlns:xlink="http://www.w3.org/1999/xlink" xmlns:sketch="http://www.bohemiancoding.com/sketch/ns">
    <!-- Generator: sketchtool 3.5.1 (25234) - http://www.bohemiancoding.com/sketch -->
    <title>icon_star_active</title>
    <desc>Created with sketchtool.</desc>
    <defs></defs>
    <g id="Page-2" stroke="none" stroke-width="1" fill="none" fill-rule="evenodd" sketch:type="MSPage">
        <g id="08_choose_preferences-copy" sketch:type="MSArtboardGroup" transform="translate(-255.000000, -1346.000000)" fill="#F6A623">
            <g id="Group" sketch:type="MSLayerGroup" transform="translate(209.000000, 1346.000000)">
                <path d="M64.7419958,6.42157028 L58.5056676,6.44311102 L56.5679513,0.864060785 C56.4788609,0.627112706 56.3006801,0.174757282 55.9888637,0.174757282 C55.6770473,0.174757282 55.4988665,0.627112706 55.4097761,0.864060785 L53.4943324,6.44311102 L47.2357316,6.42157028 C46.9684604,6.42157028 46.3448276,6.46465175 46.3448276,6.8093035 C46.3448276,7.06779232 46.6789166,7.32628113 46.87937,7.45552554 L51.9352504,10.9020431 L49.9975341,16.4810933 C49.9307163,16.6534192 49.8861711,16.825745 49.8861711,16.9980709 C49.8861711,17.2134783 49.9975341,17.4073449 50.2202601,17.4073449 C50.4875313,17.4073449 50.7325299,17.2565597 50.9329833,17.1057746 L55.9888637,13.6807978 L61.0447441,17.1057746 C61.2451975,17.235019 61.4901961,17.4073449 61.7574673,17.4073449 C62.0024659,17.4073449 62.0692837,17.1919375 62.0692837,16.9765302 C62.0692837,16.8042043 62.0470111,16.6318784 61.9801933,16.4810933 L60.0647496,10.9020431 L65.12063,7.45552554 C65.3210834,7.32628113 65.6551724,7.06779232 65.6551724,6.8093035 C65.6551724,6.46465175 65.009267,6.42157028 64.7419958,6.42157028 Z" id="icon_star_active" sketch:type="MSShapeGroup"></path>
            </g>
        </g>
    </g>
</svg>