<?xml version="1.0" encoding="UTF-8" standalone="no"?>
<svg width="50px" height="47px" viewBox="0 0 50 47" version="1.1" xmlns="http://www.w3.org/2000/svg" xmlns:xlink="http://www.w3.org/1999/xlink">
    <!-- Generator: sketchtool 3.6.1 (26313) - http://www.bohemiancoding.com/sketch -->
    <title>icon_requirement_pressed copy</title>
    <desc>Created with sketchtool.</desc>
    <defs></defs>
    <g id="educator" stroke="none" stroke-width="1" fill="none" fill-rule="evenodd">
        <g id="01_landing_page" transform="translate(-625.000000, -1436.000000)" fill="#FFFFFF">
            <g id="Group-20" transform="translate(514.000000, 1436.000000)">
                <g id="icon_requirement_pressed-copy" transform="translate(111.000000, 0.000000)">
                    <g id="Group">
                        <g>
                            <path d="M47.5803977,0 L2.30653409,0 L0,0 L0,2.15369318 L0,44.2710227 L0,46.5909091 L2.30653409,46.5909091 L35.1048295,46.5909091 L36.0463068,46.5909091 L36.7119318,45.9017045 L49.1190341,33.4142045 L49.7161932,32.7366477 L49.7161932,31.7951705 L49.7161932,2.15369318 L49.7161932,0 L47.5803977,0 L47.5803977,0 Z M2.27272727,44.3181818 L2.27272727,2.27272727 L47.4431818,2.27272727 L47.4431818,31.7775568 L35.2272727,31.8181818 L35.2272727,44.1485795 L35.1048295,44.3181818 L2.27272727,44.3181818 L2.27272727,44.3181818 Z" id="Shape"></path>
                            <rect id="Rectangle-path" x="9.94318182" y="8.80681818" width="29.5454545" height="2.84090909"></rect>
                            <rect id="Rectangle-path" x="9.94318182" y="16.4772727" width="29.5454545" height="2.84090909"></rect>
                            <rect id="Rectangle-path" x="9.94318182" y="24.4318182" width="29.5454545" height="2.84090909"></rect>
                        </g>
                    </g>
                </g>
            </g>
        </g>
    </g>
</svg>