<?xml version="1.0" encoding="UTF-8" standalone="no"?>
<svg width="23px" height="17px" viewBox="0 0 23 17" version="1.1" xmlns="http://www.w3.org/2000/svg" xmlns:xlink="http://www.w3.org/1999/xlink" xmlns:sketch="http://www.bohemiancoding.com/sketch/ns">
    <!-- Generator: sketchtool 3.5.1 (25234) - http://www.bohemiancoding.com/sketch -->
    <title>icon_video</title>
    <desc>Created with sketchtool.</desc>
    <defs></defs>
    <g id="Page-2" stroke="none" stroke-width="1" fill="none" fill-rule="evenodd" sketch:type="MSPage">
        <g id="08_choose_preferences-copy" sketch:type="MSArtboardGroup" transform="translate(-994.000000, -1325.000000)" fill="#29ABE2">
            <g id="eye-+-youtube1-+-speech-bubble19" sketch:type="MSLayerGroup" transform="translate(961.000000, 1324.000000)">
                <g id="icon_video" transform="translate(33.000000, 1.000000)" sketch:type="MSShapeGroup">
                    <path d="M22.7808448,3.85170923 C22.6530118,2.32223183 21.741055,0.393485265 19.8668939,0.324530452 C14.6336031,-0.0273379175 8.43377014,-0.123540275 3.1056778,0.324530452 C1.45266012,0.509795678 0.319559921,2.52326719 0.196064833,4.0527446 C-0.0652946955,7.26537917 -0.0652946955,9.09363065 0.196064833,12.3062652 C0.321005894,13.8357426 1.42541257,15.8607367 3.10856974,16.0732495 C8.49983301,16.4251179 14.6695265,16.4753654 19.8697859,16.0732495 C21.5012495,15.790336 22.6573497,13.8357426 22.7822908,12.3062652 C23.0422043,9.09218468 23.0422043,7.06434381 22.7808448,3.85170923 L22.7808448,3.85170923 Z M8.61469745,12.2545717 L8.61469745,4.01826719 L15.7953969,8.13711984 L8.61469745,12.2545717 L8.61469745,12.2545717 Z" id="Shape"></path>
                </g>
            </g>
        </g>
    </g>
</svg>