<?xml version="1.0" encoding="UTF-8" standalone="no"?>
<svg width="28px" height="28px" viewBox="0 0 28 28" version="1.1" xmlns="http://www.w3.org/2000/svg" xmlns:xlink="http://www.w3.org/1999/xlink" xmlns:sketch="http://www.bohemiancoding.com/sketch/ns">
    <!-- Generator: sketchtool 3.4.4 (395) - http://www.bohemiancoding.com/sketch -->
    <title>icon_fb</title>
    <desc>Created with sketchtool.</desc>
    <defs></defs>
    <g id="provider" stroke="none" stroke-width="1" fill="none" fill-rule="evenodd" sketch:type="MSPage">
        <g id="01_landing_page" sketch:type="MSArtboardGroup" transform="translate(-202.000000, -5204.000000)" fill="#81DCFF">
            <g id="Group" sketch:type="MSLayerGroup" transform="translate(-4.000000, 4187.000000)">
                <g id="Dribbble-Icon-+-Twitter-Icon-+-Facebook-Icon" transform="translate(206.000000, 1017.000000)" sketch:type="MSShapeGroup">
                    <g id="icon_fb">
                        <path d="M15.9010167,13.6163265 L14.4266,13.6163265 L14.4266,18.9380408 L12.2263167,18.9380408 L12.2263167,13.6163265 L11.126175,13.6163265 L11.126175,11.7781224 L12.2263167,11.7781224 L12.2263167,10.6774694 C12.2263167,9.19102041 12.8501083,8.29461224 14.6080667,8.29461224 L16.0824833,8.29461224 L16.0824833,10.1328163 L15.1638083,10.1328163 C14.4719667,10.1328163 14.4266,10.382449 14.4266,10.8590204 L14.4266,11.7781224 L16.093825,11.7781224 L15.9010167,13.6163265 L15.9010167,13.6163265 Z M13.61,0 C6.090475,0 0,6.09330612 0,13.6163265 C0,21.1393469 6.090475,27.2326531 13.61,27.2326531 C21.129525,27.2326531 27.22,21.1393469 27.22,13.6163265 C27.22,6.09330612 21.129525,0 13.61,0 L13.61,0 Z" id="Facebook-Icon"></path>
                    </g>
                </g>
            </g>
        </g>
    </g>
</svg>