<?xml version="1.0" encoding="UTF-8" standalone="no"?>
<svg width="50px" height="50px" viewBox="0 0 50 50" version="1.1" xmlns="http://www.w3.org/2000/svg" xmlns:xlink="http://www.w3.org/1999/xlink">
    <!-- Generator: sketchtool 3.6.1 (26313) - http://www.bohemiancoding.com/sketch -->
    <title>icon_preferences_pressed</title>
    <desc>Created with sketchtool.</desc>
    <defs></defs>
    <g id="educator" stroke="none" stroke-width="1" fill="none" fill-rule="evenodd">
        <g id="01_landing_page" transform="translate(-925.000000, -1435.000000)" fill="#FFFFFF">
            <g id="Group-21" transform="translate(814.000000, 1435.000000)">
                <g id="icon_preferences_pressed" transform="translate(111.000000, 0.000000)">
                    <g id="Group">
                        <path d="M25,0 C11.215,0 0,11.122314 0,24.7933884 C0,38.4644628 11.215,49.5867769 25,49.5867769 C38.785,49.5867769 50,38.4644628 50,24.7933884 C50,11.122314 38.785,0 25,0 L25,0 Z M25,46.9770248 C12.666,46.9770248 2.6315,37.0259504 2.6315,24.7933884 C2.6315,12.5613223 12.666,2.60975207 25,2.60975207 C37.334,2.60975207 47.368,12.5608264 47.368,24.7933884 C47.368,37.0259504 37.334,46.9770248 25,46.9770248 L25,46.9770248 Z" id="Shape"></path>
                        <path d="M35.351,15.1819835 L19.0425,31.3552066 L14.8585,24.142314 C14.4965,23.5180165 13.692,23.3028099 13.062,23.6618182 C12.4315,24.0213223 12.2155,24.8186777 12.5775,25.4434711 L17.618,34.1320661 C17.6745,34.2297521 17.7435,34.3150413 17.8195,34.3919008 C17.8235,34.3958678 17.824,34.4003306 17.828,34.4038017 C17.8285,34.4047934 17.83,34.4052893 17.8305,34.4057851 C17.943,34.5168595 18.076,34.5966942 18.216,34.6596694 C18.251,34.6755372 18.2845,34.6899174 18.3205,34.7018182 C18.4605,34.751405 18.606,34.7856198 18.7555,34.7856198 C18.756,34.7856198 18.7575,34.7866116 18.758,34.7866116 L18.7585,34.7866116 L18.759,34.7866116 C18.9055,34.7866116 19.0505,34.7523967 19.1935,34.702314 C19.2315,34.6889256 19.2665,34.6740496 19.3035,34.657686 C19.3405,34.6413223 19.3785,34.6328926 19.414,34.612562 C19.466,34.582314 19.4975,34.5347107 19.544,34.4990083 C19.591,34.4642975 19.646,34.4464463 19.6885,34.4042975 L37.2115,17.0266116 C37.7255,16.5168595 37.7255,15.6912397 37.2115,15.1814876 C36.698,14.6722314 35.865,14.6722314 35.351,15.1819835 L35.351,15.1819835 Z" id="Shape"></path>
                    </g>
                </g>
            </g>
        </g>
    </g>
</svg>