<?xml version="1.0" encoding="UTF-8" standalone="no"?>
<svg width="31px" height="23px" viewBox="0 0 31 23" version="1.1" xmlns="http://www.w3.org/2000/svg" xmlns:xlink="http://www.w3.org/1999/xlink" xmlns:sketch="http://www.bohemiancoding.com/sketch/ns">
    <!-- Generator: sketchtool 3.5.2 (25235) - http://www.bohemiancoding.com/sketch -->
    <title>icon_error</title>
    <desc>Created with sketchtool.</desc>
    <defs></defs>
    <g id="educator" stroke="none" stroke-width="1" fill="none" fill-rule="evenodd" sketch:type="MSPage">
        <g id="06_profile-copy-2error_message" sketch:type="MSArtboardGroup" transform="translate(-1355.000000, -1085.000000)" fill="#D62A2A">
            <g id="Group-Copy-3" sketch:type="MSLayerGroup" transform="translate(591.000000, 1063.000000)">
                <path d="M793.851467,41.1269841 L780.930038,22.9047619 C780.030038,21.6984127 778.230038,21.6984127 777.330038,22.9047619 L764.40861,41.1269841 C763.380038,42.5873016 764.40861,44.5555556 766.20861,44.5555556 L792.051467,44.5555556 C793.787181,44.4920635 794.880038,42.5238095 793.851467,41.1269841 L793.851467,41.1269841 Z M779.130038,41.5714286 C778.35861,41.5714286 777.715753,40.9365079 777.715753,40.1746032 C777.715753,39.4126984 778.35861,38.7777778 779.130038,38.7777778 C779.901467,38.7777778 780.544324,39.4126984 780.544324,40.1746032 C780.544324,40.9365079 779.901467,41.5714286 779.130038,41.5714286 L779.130038,41.5714286 Z M780.415753,36.8095238 C780.415753,37 780.287181,37.1269841 780.094324,37.1269841 L778.230038,37.1269841 C778.037181,37.1269841 777.90861,37 777.90861,36.8095238 L777.330038,27.4761905 C777.330038,27.2857143 777.45861,27.0952381 777.651467,27.0952381 L780.737181,27.0952381 C780.930038,27.0952381 781.05861,27.2857143 781.05861,27.4761905 L780.415753,36.8095238 L780.415753,36.8095238 Z" id="icon_error" sketch:type="MSShapeGroup"></path>
            </g>
        </g>
    </g>
</svg>