<?xml version="1.0" encoding="UTF-8" standalone="no"?>
<svg width="30px" height="22px" viewBox="0 0 30 22" version="1.1" xmlns="http://www.w3.org/2000/svg" xmlns:xlink="http://www.w3.org/1999/xlink" xmlns:sketch="http://www.bohemiancoding.com/sketch/ns">
    <!-- Generator: sketchtool 3.5.1 (25234) - http://www.bohemiancoding.com/sketch -->
    <title>icon_company_white</title>
    <desc>Created with sketchtool.</desc>
    <defs></defs>
    <g id="provider" stroke="none" stroke-width="1" fill="none" fill-rule="evenodd" sketch:type="MSPage">
        <g id="02_register" sketch:type="MSArtboardGroup" transform="translate(-820.000000, -570.000000)" fill="#FFFFFF">
            <g id="icon_company_white" sketch:type="MSLayerGroup" transform="translate(820.000000, 570.000000)">
                <g id="Group" sketch:type="MSShapeGroup">
                    <path d="M16.2727273,6.06742508 C16,5.26664817 16,4.46587125 16.1818182,3.75749168 C16.3939394,2.89511654 16.8484848,2.21753607 17.3333333,1.69395117 C17.6666667,1.35516093 18.030303,1.04716981 18.4242424,0.800776915 C18.7272727,0.58518313 19.0909091,0.400388457 19.4848485,0.246392897 L19.4848485,0.246392897 C19.7878788,0.15399556 20.0909091,0.0923973363 20.4242424,0.0615982242 C21.4545455,-0.0307991121 22.2424242,0.246392897 22.8181818,0.58518313 C23.6666667,1.04716981 23.969697,1.69395117 23.969697,1.69395117 C23.969697,1.69395117 26.0909091,1.84794673 25.1515152,6.3754162 C25.4242424,6.46781354 25.6363636,6.868202 25.3030303,8.06936737 C24.9090909,9.51692564 24.5151515,9.60932297 24.3030303,9.45532741 C24.030303,11.0260821 23.1818182,13.0588235 20.5151515,13.18202 C17.7878788,12.9664262 16.9090909,10.9028857 16.6666667,9.30133185 C16.4545455,9.27053274 16.1515152,8.96254162 15.8484848,7.85377358 C15.4545455,6.25221976 15.9090909,6.03662597 16.2727273,6.06742508 L16.2727273,6.06742508 Z M20.5757576,21.5285794 L29.7575758,21.5285794 C29.6969697,17.6478912 29.8484848,15.5843507 27.3939394,14.6603774 C25.1515152,13.7980022 23.7878788,12.904828 23.7878788,12.904828 L22.0606061,18.4794673 L21.8181818,19.2186459 L21.030303,16.9703108 C22.8181818,14.4447836 20.9090909,14.3215871 20.5757576,14.3215871 L20.5757576,14.3215871 L20.5757576,14.3215871 L20.5757576,14.3215871 L20.5757576,14.3215871 L20.5757576,14.3215871 L20.5757576,14.3215871 C20.2424242,14.3215871 18.3333333,14.4447836 20.1212121,16.9703108 L19.3333333,19.2186459 L19.0909091,18.4794673 L17.3636364,12.904828 C17.3636364,12.904828 16.030303,13.7980022 13.7575758,14.6603774 C13.3636364,14.8143729 13.030303,14.9991676 12.7575758,15.2147614 C11.6363636,14.6911765 11,14.2599889 11,14.2599889 L9.54545455,18.9414539 L9.33333333,19.5882353 L8.66666667,17.7094895 C10.1818182,15.5843507 8.54545455,15.4919534 8.27272727,15.4919534 L8.27272727,15.4919534 L8.27272727,15.4919534 L8.27272727,15.4919534 L8.27272727,15.4919534 L8.27272727,15.4919534 L8.27272727,15.4919534 C8,15.4919534 6.36363636,15.5843507 7.87878788,17.7094895 L7.21212121,19.5882353 L7,18.9414539 L5.54545455,14.2599889 C5.54545455,14.2599889 4.42424242,14.9991676 2.51515152,15.7383463 C0.424242424,16.5083241 0.545454545,18.2638735 0.515151515,21.5285794 L8.24242424,21.5285794 L8.27272727,21.5285794 L11.3636364,21.5285794 L16,21.5285794 L20.5757576,21.5285794 L20.5757576,21.5285794 L20.5757576,21.5285794 Z M4.33333333,9.94811321 C4.60606061,10.8720866 4.84848485,11.1492786 5.03030303,11.1492786 C5.24242424,12.5044395 5.96969697,14.2599889 8.27272727,14.4139845 C10.5454545,14.3215871 11.2424242,12.627636 11.4848485,11.272475 C11.6666667,11.3956715 11.969697,11.3340733 12.3333333,10.1021088 C12.6060606,9.08573807 12.4545455,8.77774695 12.2121212,8.68534961 C13,4.86625971 11.2121212,4.74306326 11.2121212,4.74306326 C11.2121212,4.74306326 10.9393939,4.21947836 10.2424242,3.8190899 C9.75757576,3.54189789 9.09090909,3.29550499 8.24242424,3.38790233 C7.96969697,3.38790233 7.6969697,3.44950055 7.45454545,3.54189789 L7.45454545,3.54189789 C7.12121212,3.66509434 6.84848485,3.8190899 6.57575758,4.00388457 C6.24242424,4.21947836 5.93939394,4.46587125 5.66666667,4.77386238 C5.24242424,5.23584906 4.84848485,5.79023307 4.6969697,6.52941176 C4.54545455,7.14539401 4.54545455,7.79217536 4.78787879,8.46975583 C4.33333333,8.46975583 3.96969697,8.6545505 4.33333333,9.94811321 L4.33333333,9.94811321 Z" id="Shape"></path>
                </g>
            </g>
        </g>
    </g>
</svg>