<?xml version="1.0" encoding="UTF-8" standalone="no"?>
<svg width="54px" height="79px" viewBox="0 0 54 79" version="1.1" xmlns="http://www.w3.org/2000/svg" xmlns:xlink="http://www.w3.org/1999/xlink" xmlns:sketch="http://www.bohemiancoding.com/sketch/ns">
    <!-- Generator: sketchtool 3.5.1 (25234) - http://www.bohemiancoding.com/sketch -->
    <title>location_pin_blue</title>
    <desc>Created with sketchtool.</desc>
    <defs></defs>
    <g id="Page-2" stroke="none" stroke-width="1" fill="none" fill-rule="evenodd" sketch:type="MSPage">
        <g id="08_choose_preferences-copy" sketch:type="MSArtboardGroup" transform="translate(-557.000000, -332.000000)">
            <g id="location_pin_blue" sketch:type="MSLayerGroup" transform="translate(557.000000, 332.000000)">
                <g id="Group" sketch:type="MSShapeGroup">
                    <path d="M53.6737292,26.6092917 C53.6737292,12.0505625 41.8735625,0.250395833 27.3127292,0.250395833 C12.7518958,0.250395833 0.953833333,12.0505625 0.953833333,26.6092917 C0.953833333,47.4678958 27.3127292,78.3339167 27.3127292,78.3339167 C27.3127292,78.3339167 53.6737292,47.3605833 53.6737292,26.6092917 L53.6737292,26.6092917 Z M14.3131875,25.035375 C14.3131875,17.8538542 20.1354167,12.0337292 27.3148333,12.0337292 C34.49425,12.0337292 40.3164792,17.8538542 40.3164792,25.035375 C40.3164792,32.2168958 34.49425,38.0370208 27.3148333,38.0370208 C20.1354167,38.0370208 14.3131875,32.2168958 14.3131875,25.035375 L14.3131875,25.035375 Z" id="Shape" fill="#1676A4"></path>
                    <circle id="Oval" fill="#0076BA" cx="27.3127292" cy="25.035375" r="6.39245833"></circle>
                </g>
            </g>
        </g>
    </g>
</svg>