<?xml version="1.0" encoding="UTF-8" standalone="no"?>
<svg width="91px" height="91px" viewBox="0 0 91 91" version="1.1" xmlns="http://www.w3.org/2000/svg" xmlns:xlink="http://www.w3.org/1999/xlink" xmlns:sketch="http://www.bohemiancoding.com/sketch/ns">
    <!-- Generator: sketchtool 3.5.2 (25235) - http://www.bohemiancoding.com/sketch -->
    <title>place_holder</title>
    <desc>Created with sketchtool.</desc>
    <defs>
        <circle id="path-1" cx="44.5" cy="44.5" r="44.5"></circle>
    </defs>
    <g id="educator" stroke="none" stroke-width="1" fill="none" fill-rule="evenodd" sketch:type="MSPage">
        <g id="12_notifications" sketch:type="MSArtboardGroup" transform="translate(-664.000000, -242.000000)">
            <g id="Rectangle-638-+-Rectangle-639" sketch:type="MSLayerGroup" transform="translate(647.000000, 219.000000)">
                <g id="Group">
                    <g id="Rectangle-296-+-Rectangle-296-Copy" transform="translate(0.000000, 24.000000)">
                        <g id="male-user" transform="translate(18.000000, 0.000000)">
                            <g id="place_holder">
                                <g id="Group">
                                    <mask id="mask-2" sketch:name="Mask" fill="white">
                                        <use xlink:href="#path-1"></use>
                                    </mask>
                                    <use id="Mask" stroke="#D4D4D4" stroke-width="2" fill="#D4D4D4" sketch:type="MSShapeGroup" xlink:href="#path-1"></use>
                                    <g mask="url(#mask-2)" id="Shape" fill="#FFFFFF" sketch:type="MSShapeGroup">
                                        <g transform="translate(16.000000, 11.000000)">
                                            <path d="M17.0884722,29.8337143 C17.0884722,29.8337143 16.4098472,22.8188571 28.2387639,22.0611429 C28.2387639,22.0611429 41.9688472,21.0994286 43.1278472,29.8337143 C43.1278472,29.8337143 43.5336667,32.3785714 43.1278472,36.7114286 C43.1278472,36.7114286 44.4207083,37.0542857 44.5325417,38.5457143 C44.5325417,38.5457143 44.8045,43.2685714 42.5381806,45.516 L41.3800278,45.516 C41.3800278,45.516 38.6401111,55.3037143 35.6502639,56.9777143 C35.6502639,56.9777143 57.240875,61.6277143 60.2341111,70.2497143 L60.2341111,77.2182857 L0.324486111,77.2182857 L0.324486111,70.6165714 C0.324486111,70.6165714 1.04801389,65.7557143 7.75547222,63.3694286 C7.75547222,63.3694286 20.0393472,56.6348571 24.7948056,57.2305714 C24.7948056,57.2305714 21.0314444,53.8371429 19.0404722,45.5802857 C19.0404722,45.5802857 16.4988056,47.232 15.9582778,41.4102857 C15.9582778,41.4102857 15.3245556,37.3757143 17.2291111,36.8717143 L17.0884722,29.8337143 L17.0884722,29.8337143 Z"></path>
                                            <path d="M15.8210278,27.8957143 L0.587125,20.2157143 L29.6027917,0.747428571 C29.6027917,0.747428571 30.0382639,0.485142857 30.6075972,1.00971429 L59.147125,20.2157143 L44.4596806,27.8957143 C44.4596806,27.8957143 44.8341528,17.6717143 28.0540694,18.7954286 C28.0532222,18.7954286 15.3347222,19.092 15.8210278,27.8957143 L15.8210278,27.8957143 Z"></path>
                                            <path d="M8.93056944,40.7374286 L7.76902778,16.4125714 C7.76902778,16.4125714 7.747,16.3782857 7.70125,16.3285714 C8.21043056,16.0611429 8.55609722,15.5254286 8.55609722,14.9065714 C8.55609722,14.0228571 7.846125,13.3054286 6.97179167,13.3054286 C6.09830556,13.3054286 5.38748611,14.022 5.38748611,14.9065714 C5.38748611,15.5494286 5.76534722,16.1014286 6.30248611,16.3585714 C6.28384722,16.3765714 6.27029167,16.3928571 6.25758333,16.4117143 C6.25758333,16.4117143 4.82069444,32.6905714 5.03504167,41.13 C5.03504167,41.13 4.55466667,44.478 7.21155556,44.112 C7.21240278,44.1137143 9.07798611,44.0391429 8.93056944,40.7374286 L8.93056944,40.7374286 Z"></path>
                                        </g>
                                    </g>
                                </g>
                            </g>
                        </g>
                    </g>
                </g>
            </g>
        </g>
    </g>
</svg>