<?xml version="1.0" encoding="UTF-8" standalone="no"?>
<svg width="100px" height="100px" viewBox="0 0 100 100" version="1.1" xmlns="http://www.w3.org/2000/svg" xmlns:xlink="http://www.w3.org/1999/xlink" xmlns:sketch="http://www.bohemiancoding.com/sketch/ns">
    <!-- Generator: sketchtool 3.5.1 (25234) - http://www.bohemiancoding.com/sketch -->
    <title>provider_placeholder_signup</title>
    <desc>Created with sketchtool.</desc>
    <defs></defs>
    <g id="provider" stroke="none" stroke-width="1" fill="none" fill-rule="evenodd" sketch:type="MSPage">
        <g id="02_register" sketch:type="MSArtboardGroup" transform="translate(-751.000000, -339.000000)" fill="#D4D4D4">
            <g id="Group" sketch:type="MSLayerGroup" transform="translate(341.000000, 186.000000)">
                <g id="provider_placeholder_signup" transform="translate(410.000000, 153.000000)" sketch:type="MSShapeGroup">
                    <path d="M0,49.9642857 C0,77.5168571 22.4117143,99.9282857 49.9677143,99.9282857 C77.5168571,99.9282857 99.9285714,77.5168571 99.9285714,49.9642857 C99.9285714,22.4117143 77.5168571,0 49.966,0 C22.4117143,0 0,22.4117143 0,49.9642857 Z M36.3085714,40.4645714 L36.4091429,40.3548571 C36.8165714,40.0588571 37.0148571,39.5957143 36.9408571,39.1108571 C35.9345714,33.0562857 36.5951429,30.5317143 36.818,29.8977143 C38.5765714,24.5002857 44.0968571,22.004 45.1802857,21.5614286 C45.4111429,21.4705714 45.8374286,21.3417143 46.2697143,21.2748571 L46.3985714,21.2448571 L47.2854286,21.1977143 L47.2922857,21.2525714 L47.498,21.2328571 C47.6808571,21.2131429 47.8557143,21.1891429 48.0754286,21.1428571 L48.2711429,21.1011429 C48.4442857,21.1037143 50.5931429,21.3754286 53.786,22.3542857 L56.0045714,23.1177143 C60.062,24.316 61.9285714,26.5454286 62.2751429,26.9948571 C65.5245714,30.676 64.6528571,36.2345714 63.8482857,39.2188571 C63.7574286,39.5705714 63.8122857,39.9325714 64.0111429,40.2328571 L64.1948571,40.4594286 C64.43,40.7794286 64.6411429,42.0131429 63.936,44.6334286 C63.802,45.4294286 63.5071429,46.0762857 63.0714286,46.512 C62.9102857,46.6888571 62.7968571,46.9142857 62.756,47.1691429 C61.6577143,53.6071429 55.89,60.8094286 49.8088571,60.8094286 C44.6488571,60.8094286 38.76,54.1837143 37.7005714,47.1742857 C37.6602857,46.9125714 37.5514286,46.6817143 37.3702857,46.4837143 C36.9294286,46.0262857 36.648,45.3677143 36.4782857,44.3931429 C35.9602857,42.5594286 35.9097143,41.0814286 36.3085714,40.4645714 L36.3085714,40.4645714 Z M24.7254286,68.3845714 C24.9491429,68.1014286 26.1965714,66.6397143 28.7194286,65.6771429 C30.9377143,64.9957143 36.4211429,63.1737143 39.4182857,61.002 C39.5588571,60.9262857 39.6971429,60.7788571 39.812,60.6622857 C40.0891429,60.3637143 40.5128571,59.9074286 41.0145714,59.4422857 L41.2942857,59.1765714 L41.5791429,59.4442857 C44.2197143,61.9337143 47.1411429,63.2974286 49.8065714,63.2974286 C52.6065714,63.2974286 55.4931429,62.0862857 58.1611429,59.7908571 L58.3702857,59.6122857 L58.9362857,59.8868571 C59.4422857,60.35 60.3174286,60.9865714 60.724,61.1802857 L61.2454286,61.4345714 L61.1908571,61.4908571 L61.4225714,61.6314286 C61.9148571,61.9282857 62.4502857,62.2165714 63.0782857,62.5271429 C63.7131429,62.8068571 64.2448571,63.0125714 64.7937143,63.1945714 C65.2571429,63.3454286 67.7242857,64.1725714 70.5308571,65.4697143 L71.0662857,65.6308571 C73.8111429,66.6825714 75.0294286,68.1425714 75.1494286,68.2951429 C78.4074286,73.1228571 79.6562857,82.132 80.1214286,87.152 C71.6117143,94.0608571 60.9094286,97.8642857 49.9697143,97.8642857 C39.0245714,97.8642857 28.3208571,94.0608571 19.8151429,87.1482857 C20.2705714,82.1422857 21.5091429,73.1622857 24.7254286,68.3845714 L24.7254286,68.3845714 Z" id="Shape"></path>
                </g>
            </g>
        </g>
    </g>
</svg>