<svg width="15" height="15" viewBox="0 0 15 15" fill="none" xmlns="http://www.w3.org/2000/svg">
<path d="M7.58866 5C6.12838 5 4.94562 6.11875 4.94562 7.5C4.94562 8.88125 6.12838 10 7.58866 10C9.04893 10 10.2317 8.88125 10.2317 7.5C10.2317 6.11875 9.04893 5 7.58866 5ZM13.4958 6.875C13.1919 4.26875 11.0048 2.2 8.24942 1.9125V0.625H6.9279V1.9125C4.17254 2.2 1.98542 4.26875 1.68148 6.875H0.320312V8.125H1.68148C1.98542 10.7312 4.17254 12.8 6.9279 13.0875V14.375H8.24942V13.0875C11.0048 12.8 13.1919 10.7312 13.4958 8.125H14.857V6.875H13.4958ZM7.58866 11.875C5.03152 11.875 2.96335 9.91875 2.96335 7.5C2.96335 5.08125 5.03152 3.125 7.58866 3.125C10.1458 3.125 12.214 5.08125 12.214 7.5C12.214 9.91875 10.1458 11.875 7.58866 11.875Z" fill="#828282"/>
</svg>
