<svg width="13" height="13" viewBox="0 0 13 13" fill="none" xmlns="http://www.w3.org/2000/svg">
<path d="M3.03355 5.74375C3.98504 7.5125 5.518 8.95625 7.38795 9.8625L8.84162 8.4875C9.02002 8.31875 9.28433 8.2625 9.51559 8.3375C10.2556 8.56875 11.0552 8.69375 11.8745 8.69375C12.2379 8.69375 12.5353 8.975 12.5353 9.31875V11.5C12.5353 11.8438 12.2379 12.125 11.8745 12.125C5.66998 12.125 0.641602 7.36875 0.641602 1.5C0.641602 1.15625 0.938943 0.875 1.30236 0.875H3.61502C3.97843 0.875 4.27577 1.15625 4.27577 1.5C4.27577 2.28125 4.40793 3.03125 4.65241 3.73125C4.72509 3.95 4.67223 4.19375 4.48722 4.36875L3.03355 5.74375Z" fill="#828282"/>
</svg>
