<svg width="15" height="13" viewBox="0 0 15 13" fill="none" xmlns="http://www.w3.org/2000/svg">
<path d="M14.308 4.73145C14.308 2.3127 12.2398 0.356445 9.68266 0.356445C7.12552 0.356445 5.05735 2.3127 5.05735 4.73145C5.05735 6.9002 6.72246 8.69394 8.90957 9.03769V11.5002H3.6235V9.6252H4.28426V7.1252C4.28426 6.78145 3.98692 6.5002 3.6235 6.5002H1.64123C1.27781 6.5002 0.980469 6.78145 0.980469 7.1252V9.6252H1.64123V12.7502H12.2134V11.5002H10.2311V9.0752C12.5239 8.81895 14.308 6.9752 14.308 4.73145ZM2.63237 5.8752C3.1808 5.8752 3.6235 5.45645 3.6235 4.9377C3.6235 4.41895 3.1808 4.0002 2.63237 4.0002C2.08394 4.0002 1.64123 4.41895 1.64123 4.9377C1.64123 5.45645 2.08394 5.8752 2.63237 5.8752Z" fill="#828282"/>
</svg>
