<svg width="13" height="11" viewBox="0 0 13 11" fill="none" xmlns="http://www.w3.org/2000/svg">
<path d="M11.2185 0.75625C11.0863 0.3875 10.7163 0.125 10.2802 0.125H3.01187C2.57577 0.125 2.21236 0.3875 2.0736 0.75625L0.699219 4.5V9.5C0.699219 9.84375 0.99656 10.125 1.35998 10.125H2.02074C2.38415 10.125 2.68149 9.84375 2.68149 9.5V8.875H10.6106V9.5C10.6106 9.84375 10.9079 10.125 11.2714 10.125H11.9321C12.2955 10.125 12.5929 9.84375 12.5929 9.5V4.5L11.2185 0.75625ZM3.01187 7C2.46344 7 2.02074 6.58125 2.02074 6.0625C2.02074 5.54375 2.46344 5.125 3.01187 5.125C3.5603 5.125 4.00301 5.54375 4.00301 6.0625C4.00301 6.58125 3.5603 7 3.01187 7ZM10.2802 7C9.73179 7 9.28908 6.58125 9.28908 6.0625C9.28908 5.54375 9.73179 5.125 10.2802 5.125C10.8287 5.125 11.2714 5.54375 11.2714 6.0625C11.2714 6.58125 10.8287 7 10.2802 7ZM2.02074 3.875L3.01187 1.0625H10.2802L11.2714 3.875H2.02074Z" fill="#828282"/>
</svg>
