<svg width="15" height="11" viewBox="0 0 15 11" fill="none" xmlns="http://www.w3.org/2000/svg">
<path d="M7.58806 0.5H2.96274C1.86589 0.5 0.980469 1.3375 0.980469 2.375V7.375C0.980469 8.4125 1.86589 9.25 2.96274 9.25L2.30199 9.875V10.5H2.96274L4.28426 9.23125L5.60578 9.25V6.125H2.30199V1.7375L8.24881 1.75V3H9.57033V2.375C9.57033 1.3375 8.68492 0.5 7.58806 0.5ZM2.96274 6.75C3.32616 6.75 3.6235 7.03125 3.6235 7.375C3.6235 7.71875 3.32616 8 2.96274 8C2.59933 8 2.30199 7.71875 2.30199 7.375C2.30199 7.03125 2.59933 6.75 2.96274 6.75ZM13.2508 4.0375C13.1583 3.7875 12.9072 3.625 12.6098 3.625H7.85897C7.55502 3.625 7.31054 3.7875 7.21142 4.0375L6.26654 6.60625L6.27315 10.05C6.27315 10.2875 6.47798 10.5 6.72907 10.5H7.13874C7.38983 10.5 7.58806 10.2625 7.58806 10.025V9.25H12.8741V10.025C12.8741 10.2625 13.079 10.5 13.33 10.5H13.7331C13.9842 10.5 14.189 10.2875 14.189 10.05L14.1956 9.19375V6.60625L13.2508 4.0375ZM7.85897 4.25H12.6098L13.2904 6.125H7.17839L7.85897 4.25ZM7.58806 8C7.22464 8 6.9273 7.71875 6.9273 7.375C6.9273 7.03125 7.22464 6.75 7.58806 6.75C7.95147 6.75 8.24881 7.03125 8.24881 7.375C8.24881 7.71875 7.95147 8 7.58806 8ZM12.8741 8C12.5107 8 12.2134 7.71875 12.2134 7.375C12.2134 7.03125 12.5107 6.75 12.8741 6.75C13.2375 6.75 13.5349 7.03125 13.5349 7.375C13.5349 7.71875 13.2375 8 12.8741 8Z" fill="#828282"/>
</svg>
