<?xml version="1.0" encoding="utf-8"?>
<!-- Generator: Adobe Illustrator 22.0.1, SVG Export Plug-In . SVG Version: 6.00 Build 0)  -->
<svg version="1.1" id="Layer_1" xmlns="http://www.w3.org/2000/svg" xmlns:xlink="http://www.w3.org/1999/xlink" x="0px" y="0px"
	 viewBox="0 0 118 255" style="enable-background:new 0 0 118 255;" xml:space="preserve">
<style type="text/css">
	.st0{fill:#E5E5E5;}
	.st1{fill:url(#SVGID_1_);}
	.st2{fill:url(#SVGID_2_);}
	.st3{fill:url(#SVGID_3_);}
	.st4{fill:url(#SVGID_4_);}
	.st5{opacity:0.4;}
	.st6{fill:#FFFFFF;}
	.st7{fill:none;}
	.st8{fill:url(#SVGID_5_);}
	.st9{fill:url(#SVGID_6_);}
	.st10{fill:url(#SVGID_7_);}
	.st11{fill:url(#SVGID_8_);}
	.st12{fill:url(#SVGID_9_);}
	.st13{fill:url(#SVGID_10_);}
	.st14{fill:url(#SVGID_11_);}
	.st15{fill:url(#SVGID_12_);}
	.st16{fill:url(#SVGID_13_);}
	.st17{fill:url(#SVGID_14_);}
	.st18{fill:url(#SVGID_15_);}
	.st19{fill:url(#SVGID_16_);}
	.st20{fill:url(#SVGID_17_);}
	.st21{opacity:0.47;fill:url(#SVGID_18_);stroke:#FFB83B;stroke-width:0.2;stroke-miterlimit:10;enable-background:new    ;}
	.st22{opacity:0.47;fill:url(#SVGID_19_);stroke:#FFB83B;stroke-width:0.2;stroke-miterlimit:10;enable-background:new    ;}
	.st23{clip-path:url(#SVGID_21_);}
	.st24{fill:url(#SVGID_22_);}
	.st25{fill:url(#SVGID_23_);}
	.st26{fill:url(#SVGID_24_);}
</style>
<title>3_White_Grande (full size SUV)</title>
<g>
	<g id="Layer_2_1_">
		<g id="OBJECTS">
			
				<image style="overflow:visible;opacity:0.34;enable-background:new    ;" width="118" height="255" xlink:href="74F4394BD28115A0.png" >
			</image>
			<path class="st0" d="M95.5,28.9c2.7,1.4,4.4,4.2,4.4,7.3c0,50.8,0.7,191.7-2,196c-4.2,6.6-72.6,6.6-76.8,0
				c-2.7-4.2-2.1-136.5-2.8-193.7c0.2-4.2,2.2-8,5.6-10.4C47.9,12.7,71.8,16.5,95.5,28.9z"/>
			<path class="st0" d="M70,27v-7.6c-8.1-2.9-17-2.8-25,0.2V27H70z"/>
			
				<radialGradient id="SVGID_1_" cx="61.1757" cy="129.1535" r="80.4412" gradientTransform="matrix(1 4.014247e-03 4.014247e-03 -1 -1.5954 256.7433)" gradientUnits="userSpaceOnUse">
				<stop  offset="0" style="stop-color:#F3F3F3"/>
				<stop  offset="1" style="stop-color:#FFFFFF"/>
			</radialGradient>
			<path class="st1" d="M88.3,27.3c4.6,1.7,8.6,4.9,8.8,10.2c1.1,24.5-1,63-0.9,71.2c0.1,6.9,3.5,117.9,0.3,122.7
				c-2.9,4.4-68.8,5.3-73.2,0.1c-3.6-4.4,0-115.8,0.1-122.7c0.1-8.2-2-47-0.9-71.5c0.2-5.2,4.5-7.7,8.7-10.2
				C46.6,18,65.7,18.9,88.3,27.3z"/>
			
				<linearGradient id="SVGID_2_" gradientUnits="userSpaceOnUse" x1="31.46" y1="151.7625" x2="88.36" y2="151.7625" gradientTransform="matrix(1 0 0 -1 0 256)">
				<stop  offset="0" style="stop-color:#000000"/>
				<stop  offset="1" style="stop-color:#1B1C1C"/>
			</linearGradient>
			<path class="st2" d="M44.5,101.5c-4.5,0.6-8.8,1.7-13,3.3l0.5,2.8c4.2-1.9,8.6-3.1,13.1-3.7c6.9-1,22.7-1,29.6,0
				c4.5,0.6,9,1.8,13.2,3.7l0.5-2.8c-4.2-1.7-8.5-2.8-13-3.3C68.1,100.6,51.7,100.6,44.5,101.5z"/>
			
				<linearGradient id="SVGID_3_" gradientUnits="userSpaceOnUse" x1="26.9499" y1="179.2387" x2="92.8301" y2="179.2387" gradientTransform="matrix(1 0 0 -1 0 256)">
				<stop  offset="0" style="stop-color:#000000"/>
				<stop  offset="1" style="stop-color:#1B1C1C"/>
			</linearGradient>
			<path class="st3" d="M29.4,80.5c4.5-1.9,9.1-3.3,13.9-4.3c10.9-2.1,22.2-2.1,33.1,0c4.8,1,9.4,2.4,13.9,4.3
				c0.8,0.3,1.5,0.7,2.2,1.2v-0.1c0,0,0.5-2,0.2-2.6s-1-0.9-2.4-1.5c-4.5-1.9-9.1-3.3-13.9-4.3c-10.9-2.1-22.2-2.1-33.1,0
				c-4.8,1-9.4,2.4-13.9,4.3c-0.9,0.3-1.7,0.8-2.4,1.5c-0.3,0.5,0.2,2.6,0.2,2.6v0.1C27.9,81.2,28.6,80.8,29.4,80.5z"/>
			
				<linearGradient id="SVGID_4_" gradientUnits="userSpaceOnUse" x1="27.27" y1="166.2287" x2="92.57" y2="166.2287" gradientTransform="matrix(1 0 0 -1 0 256)">
				<stop  offset="0" style="stop-color:#363B39"/>
				<stop  offset="1" style="stop-color:#0C0D0D"/>
			</linearGradient>
			<path class="st4" d="M44.5,101.5c7.2-1,23.7-1,30.9,0c4.5,0.6,8.8,1.7,13,3.3l4.2-23.1c-0.6-0.5-1.4-1-2.2-1.2
				c-4.5-1.9-9.1-3.3-13.9-4.3c-10.9-2.1-22.2-2.1-33.1,0c-4.8,1-9.4,2.4-13.9,4.3c-0.8,0.3-1.5,0.7-2.2,1.2l4.2,23.1
				C35.6,103.2,40,102.1,44.5,101.5z"/>
			<path class="st0" d="M95.3,217.9c0-10.6-0.1-20-0.1-20s-5.4-14.5-7.1-24.5c-2.3-14-2.1-31.1-2.1-33.1c0-15.5,0-26.8,0-26.8
				s-5.8-6.8-26.1-5.9c-20.3-0.8-26.1,5.9-26.1,5.9s0,11.4,0,26.8c0,2.2-0.4,23.2-2.9,37.8c-1.3,7.9-6.3,20-6.3,20
				s-0.1,9.4-0.1,19.9c0,3.6,4.9,7.8,8.4,8c6.5,0.4,15.2,1.6,26.8,1.6c10.9,0,21.3-1.2,28.2-1.6C91.5,225.8,95.2,221.5,95.3,217.9z"
				/>
			<path class="st0" d="M72.9,25.6c7.3,1.5,12.7,7.7,13.2,15.1C87.4,54.2,88.4,65,88.4,65S83.2,32.8,72.9,25.6z"/>
			<g class="st5">
				<path class="st6" d="M41.8,201.3c0,0.9-0.4,1.7-0.9,1.7l0,0c-0.5,0-0.9-0.7-0.9-1.7v-83.7c0-0.9,0.4-1.7,0.9-1.7l0,0
					c0.5,0,0.9,0.7,0.9,1.7V201.3z"/>
				<path class="st6" d="M45.5,201.3c0,0.9-0.4,1.7-0.9,1.7l0,0c-0.5,0-0.9-0.7-0.9-1.7v-83.7c0-0.9,0.4-1.7,0.9-1.7l0,0
					c0.5,0,0.9,0.7,0.9,1.7V201.3z"/>
				<path class="st6" d="M49.2,201.3c0,0.9-0.4,1.7-0.9,1.7l0,0c-0.5,0-0.9-0.7-0.9-1.7v-83.7c0-0.9,0.4-1.7,0.9-1.7l0,0
					c0.5,0,0.9,0.7,0.9,1.7V201.3z"/>
				<path class="st6" d="M52.9,201.3c0,0.9-0.4,1.7-0.9,1.7l0,0c-0.5,0-0.9-0.7-0.9-1.7v-83.7c0-0.9,0.4-1.7,0.9-1.7l0,0
					c0.5,0,0.9,0.7,0.9,1.7V201.3z"/>
				<path class="st6" d="M56.7,201.3c0,0.9-0.4,1.7-0.9,1.7l0,0c-0.5,0-0.9-0.7-0.9-1.7v-83.7c0-0.9,0.4-1.7,0.9-1.7l0,0
					c0.5,0,0.9,0.7,0.9,1.7V201.3z"/>
				<path class="st6" d="M60.4,201.3c0,0.9-0.4,1.7-0.9,1.7l0,0c-0.5,0-0.9-0.7-0.9-1.7v-83.7c0-0.9,0.4-1.7,0.9-1.7l0,0
					c0.5,0,0.9,0.7,0.9,1.7V201.3z"/>
				<path class="st6" d="M64.1,201.3c0,0.9-0.4,1.7-0.9,1.7l0,0c-0.5,0-0.9-0.7-0.9-1.7v-83.7c0-0.9,0.4-1.7,0.9-1.7l0,0
					c0.5,0,0.9,0.7,0.9,1.7V201.3z"/>
				<path class="st6" d="M67.8,201.3c0,0.9-0.4,1.7-0.9,1.7l0,0c-0.5,0-0.9-0.7-0.9-1.7v-83.7c0-0.9,0.4-1.7,0.9-1.7l0,0
					c0.5,0,0.9,0.7,0.9,1.7V201.3z"/>
				<path class="st6" d="M71.6,201.3c0,0.9-0.4,1.7-0.9,1.7l0,0c-0.5,0-0.9-0.7-0.9-1.7v-83.7c0-0.9,0.4-1.7,0.9-1.7l0,0
					c0.5,0,0.9,0.7,0.9,1.7V201.3z"/>
				<path class="st6" d="M75.3,201.3c0,0.9-0.4,1.7-0.9,1.7l0,0c-0.5,0-0.9-0.7-0.9-1.7v-83.7c0-0.9,0.4-1.7,0.9-1.7l0,0
					c0.5,0,0.9,0.7,0.9,1.7V201.3z"/>
				<path class="st6" d="M79,201.3c0,0.9-0.4,1.7-0.9,1.7l0,0c-0.5,0-0.9-0.7-0.9-1.7v-83.7c0-0.9,0.4-1.7,0.9-1.7l0,0
					c0.5,0,0.9,0.7,0.9,1.7V201.3z"/>
			</g>
			<line class="st7" x1="33" y1="160" x2="33" y2="159"/>
			<rect x="32.5" y="160" class="st6" width="0.5" height="50"/>
			<path class="st0" d="M46.4,25.6c-7.3,1.5-12.7,7.7-13.2,15.1C31.9,54.2,30.9,65,30.9,65S36.2,32.8,46.4,25.6z"/>
			
				<linearGradient id="SVGID_5_" gradientUnits="userSpaceOnUse" x1="32.4044" y1="37.9499" x2="87.5311" y2="37.9499" gradientTransform="matrix(1 0 0 -1 0 256)">
				<stop  offset="0" style="stop-color:#363B39"/>
				<stop  offset="1" style="stop-color:#0C0D0D"/>
			</linearGradient>
			<path class="st8" d="M37.3,212.1c2.9,0.9,23.2,6.5,45.3,0c0.2-0.1,0.5,0,0.6,0.2l4.2,6c0.2,0.3,0.2,0.8-0.2,1
				c0,0-0.1,0.1-0.2,0.1c-27.1,7.3-42.1,4.8-54.3,0.1c-0.4-0.2-0.5-0.6-0.3-1c0,0,0-0.1,0.1-0.1l4.2-6.1
				C36.9,212.1,37.1,212,37.3,212.1z"/>
			<rect x="86.5" y="160" class="st6" width="0.5" height="50"/>
			<path class="st6" d="M87,210v-0.5c-18,2.5-36.3,2.5-54.2,0v0.5C50.8,212.1,69,212.1,87,210z"/>
			
				<linearGradient id="SVGID_6_" gradientUnits="userSpaceOnUse" x1="24.7356" y1="149.95" x2="31.1656" y2="149.95" gradientTransform="matrix(1 0 0 -1 0 256)">
				<stop  offset="0" style="stop-color:#363B39"/>
				<stop  offset="1" style="stop-color:#000000"/>
			</linearGradient>
			<path class="st9" d="M26,120.1c0,5.6-0.2,8.3-0.4,10.2l5.2,0.7h0.3l-1-21.8L24.9,81c0,0-0.5,7.3,0,17.7
				C25.2,105.2,26,114.3,26,120.1z"/>
			
				<linearGradient id="SVGID_7_" gradientUnits="userSpaceOnUse" x1="25.19" y1="111.5" x2="31.27" y2="111.5" gradientTransform="matrix(1 0 0 -1 0 256)">
				<stop  offset="0" style="stop-color:#363B39"/>
				<stop  offset="1" style="stop-color:#000000"/>
			</linearGradient>
			<path class="st10" d="M31.3,133l-5.8-1l-0.2,20v1.1l-0.1,3.9h5.3c0.1-1.3,0.2-2.5,0.2-3.9c0-0.2,0-0.4,0-0.6V152
				C31.1,146.6,31.3,139.6,31.3,133z"/>
			
				<linearGradient id="SVGID_8_" gradientUnits="userSpaceOnUse" x1="24.56" y1="81.11" x2="30.25" y2="81.11" gradientTransform="matrix(1 0 0 -1 0 256)">
				<stop  offset="0" style="stop-color:#363B39"/>
				<stop  offset="1" style="stop-color:#000000"/>
			</linearGradient>
			<path class="st11" d="M24.6,191.8c0,0,3.9-11,5.7-33.8H25L24.6,191.8z"/>
			
				<linearGradient id="SVGID_9_" gradientUnits="userSpaceOnUse" x1="-1083.2644" y1="149.95" x2="-1076.8345" y2="149.95" gradientTransform="matrix(-1 0 0 -1 -988.18 256)">
				<stop  offset="0" style="stop-color:#363B39"/>
				<stop  offset="1" style="stop-color:#000000"/>
			</linearGradient>
			<path class="st12" d="M93.8,120.1c0,5.6,0.2,8.3,0.4,10.2l-5.2,0.7h-0.3l0.9-21.8L94.9,81c0,0,0.5,7.3,0,17.7
				C94.6,105.2,93.8,114.3,93.8,120.1z"/>
			
				<linearGradient id="SVGID_10_" gradientUnits="userSpaceOnUse" x1="-1082.8101" y1="111.5" x2="-1076.73" y2="111.5" gradientTransform="matrix(-1 0 0 -1 -988.18 256)">
				<stop  offset="0" style="stop-color:#363B39"/>
				<stop  offset="1" style="stop-color:#000000"/>
			</linearGradient>
			<path class="st13" d="M88.6,133l5.8-1l0.2,20v1.1v3.9h-5.2c-0.1-1.3-0.2-2.5-0.3-3.9v-0.6c0-0.2,0-0.4,0-0.6
				C88.7,146.6,88.5,139.6,88.6,133z"/>
			
				<linearGradient id="SVGID_11_" gradientUnits="userSpaceOnUse" x1="-1083.4399" y1="81.11" x2="-1077.75" y2="81.11" gradientTransform="matrix(-1 0 0 -1 -988.18 256)">
				<stop  offset="0" style="stop-color:#363B39"/>
				<stop  offset="1" style="stop-color:#000000"/>
			</linearGradient>
			<path class="st14" d="M95.3,191.8c0,0-3.9-11-5.7-33.8h5.2L95.3,191.8z"/>
			
				<radialGradient id="SVGID_12_" cx="96.2387" cy="171.041" r="3.3427" gradientTransform="matrix(1 0 0 -1 0 256)" gradientUnits="userSpaceOnUse">
				<stop  offset="0" style="stop-color:#FFFFFF"/>
				<stop  offset="1" style="stop-color:#D2D6D5"/>
			</radialGradient>
			<path class="st15" d="M94.7,80.5c0,0,3.2,0.6,3.2,3.2s-3.2,7.9-3.2,4.6C94.6,84,94.6,80.8,94.7,80.5z"/>
			
				<radialGradient id="SVGID_13_" cx="65.0085" cy="171.4581" r="3.5006" gradientTransform="matrix(1.04 0 0 -1 33.89 256)" gradientUnits="userSpaceOnUse">
				<stop  offset="0" style="stop-color:#FFFFFF"/>
				<stop  offset="1" style="stop-color:#D2D6D5"/>
			</radialGradient>
			<path class="st16" d="M105.7,85.3c-0.7-0.9-7.1-2.8-7.1-2.8c-1.3-0.4-1.7,0.7-1.8,1.6l9.1,2.7C106.1,86.2,106,85.7,105.7,85.3z"
				/>
			
				<linearGradient id="SVGID_14_" gradientUnits="userSpaceOnUse" x1="96.6885" y1="170.36" x2="105.9785" y2="170.36" gradientTransform="matrix(1 0 0 -1 0 256)">
				<stop  offset="0" style="stop-color:#363B39"/>
				<stop  offset="1" style="stop-color:#1B1C1C"/>
			</linearGradient>
			<path class="st17" d="M96.8,84c-0.1,0.4-0.1,0.7-0.1,1.1l9,2.2c0.1-0.2,0.2-0.4,0.2-0.6L96.8,84z"/>
			
				<radialGradient id="SVGID_15_" cx="23.49" cy="171.041" r="3.3791" gradientTransform="matrix(1 0 0 -1 0 256)" gradientUnits="userSpaceOnUse">
				<stop  offset="0" style="stop-color:#FFFFFF"/>
				<stop  offset="1" style="stop-color:#D2D6D5"/>
			</radialGradient>
			<path class="st18" d="M25.1,80.5c0,0-3.4,0.6-3.5,3.2s3.4,7.9,3.5,4.6S25.4,81.5,25.1,80.5z"/>
			
				<radialGradient id="SVGID_16_" cx="-14.8648" cy="171.4035" r="3.5187" gradientTransform="matrix(1.04 0 0 -1 33.89 256)" gradientUnits="userSpaceOnUse">
				<stop  offset="0" style="stop-color:#FFFFFF"/>
				<stop  offset="1" style="stop-color:#D2D6D5"/>
			</radialGradient>
			<path class="st19" d="M21.2,82.4c0,0-6.4,1.9-7.1,2.8c-0.3,0.5-0.4,1.1-0.2,1.6l9.1-2.7C22.9,83.2,22.5,82,21.2,82.4z"/>
			
				<linearGradient id="SVGID_17_" gradientUnits="userSpaceOnUse" x1="13.82" y1="170.27" x2="23.11" y2="170.27" gradientTransform="matrix(1 0 0 -1 0 256)">
				<stop  offset="0" style="stop-color:#363B39"/>
				<stop  offset="1" style="stop-color:#1B1C1C"/>
			</linearGradient>
			<path class="st20" d="M13.9,86.8c0.1,0.2,0.1,0.3,0.2,0.5l9-2.2c0-0.3,0-0.7-0.1-1L13.9,86.8z"/>
			
				<linearGradient id="SVGID_18_" gradientUnits="userSpaceOnUse" x1="20.4704" y1="211.32" x2="27.8797" y2="231.6982" gradientTransform="matrix(1 0 0 -1 0 256)">
				<stop  offset="0.48" style="stop-color:#FCEE21"/>
				<stop  offset="1" style="stop-color:#42210B"/>
			</linearGradient>
			<path class="st21" d="M18.3,43.9c0,0-0.9-6.3,1.4-11.1s9.6-8,9.6-8S33,31,28,35C24.6,37.8,21.3,40.7,18.3,43.9z"/>
			
				<linearGradient id="SVGID_19_" gradientUnits="userSpaceOnUse" x1="91.0468" y1="214.2575" x2="96.017" y2="227.9179" gradientTransform="matrix(1 0 0 -1 0 256)">
				<stop  offset="0.48" style="stop-color:#FCEE21"/>
				<stop  offset="1" style="stop-color:#42210B"/>
			</linearGradient>
			<path class="st22" d="M100,45c0,0,1.7-8.4-1-13c-3-5-12-7-12-7s-1.2,7,3.8,11C94.1,38.7,97.2,41.7,100,45z"/>
			<g>
				<defs>
					<path id="SVGID_20_" d="M37.3,212.1c2.9,0.9,23.2,6.5,45.3,0c0.2-0.1,0.5,0,0.6,0.2l4.2,6c0.2,0.3,0.2,0.8-0.2,1
						c0,0-0.1,0.1-0.2,0.1c-27.1,7.3-42.1,4.8-54.3,0.1c-0.4-0.2-0.5-0.6-0.3-1c0,0,0-0.1,0.1-0.1l4.2-6.1
						C36.9,212.1,37.1,212,37.3,212.1z"/>
				</defs>
				<clipPath id="SVGID_21_">
					<use xlink:href="#SVGID_20_"  style="overflow:visible;"/>
				</clipPath>
				<g class="st23">
					
						<linearGradient id="SVGID_22_" gradientUnits="userSpaceOnUse" x1="59.9047" y1="40.5526" x2="71.8447" y2="32.0626" gradientTransform="matrix(1 0 0 -1 0 256)">
						<stop  offset="0" style="stop-color:#363B39"/>
						<stop  offset="1" style="stop-color:#000000"/>
					</linearGradient>
					<path class="st24" d="M80.1,213.6c-3-1.3-6-2.2-9.2-2.8c-1.7-0.4-3.4-0.6-5.2-0.8c-4.6,4.8-10.1,13.5-12.3,17.2
						c5.6-0.3,11.2-0.2,16.8,0.3c2.9,0.4,5.8,1.1,8.6,2.2l2.8-15.3C81.1,214.1,80.6,213.8,80.1,213.6z"/>
				</g>
			</g>
		</g>
	</g>
</g>
<linearGradient id="SVGID_23_" gradientUnits="userSpaceOnUse" x1="-1321.7377" y1="799.5897" x2="-1285.5291" y2="799.5897" gradientTransform="matrix(-1 0 0 1 -1264.5901 -570)">
	<stop  offset="0" style="stop-color:#FF0000"/>
	<stop  offset="1" style="stop-color:#42210B"/>
</linearGradient>
<path class="st25" d="M54.4,235.8c1.1,0,1.7,0,2.7-1.9c0.4-0.7-1.7-2.8-4.2-3.5c-4.9-1.4-19.2-3.7-24.2-5c-1.8-0.5-3.5-1-5.1-1.7
	c-1.3-0.5-3-0.7-2.6,1.6c0.6,3.7,0.3,5.1,2.5,6.7C27.1,234.6,51.3,235.8,54.4,235.8z"/>
<linearGradient id="SVGID_24_" gradientUnits="userSpaceOnUse" x1="-843.6547" y1="782.7589" x2="-807.4432" y2="782.7589" gradientTransform="matrix(1 0 0 1 905.2034 -553.1692)">
	<stop  offset="0" style="stop-color:#FF0000"/>
	<stop  offset="1" style="stop-color:#42210B"/>
</linearGradient>
<path class="st26" d="M95.3,232c2.2-1.6,1.9-2.9,2.5-6.7c0.4-2.3-1.2-2.1-2.6-1.6c-1.7,0.6-3.4,1.2-5.1,1.7c-5,1.3-19.3,3.7-24.2,5
	c-2.5,0.7-4.6,2.8-4.2,3.5c1,1.9,1.6,1.9,2.7,1.9C67.4,235.8,91.6,234.6,95.3,232z"/>
</svg>
