<?xml version="1.0" encoding="UTF-8"?>
<svg width="24px" height="24px" viewBox="0 0 24 24" version="1.1" xmlns="http://www.w3.org/2000/svg" xmlns:xlink="http://www.w3.org/1999/xlink">
    <!-- Generator: Sketch 42 (36781) - http://www.bohemiancoding.com/sketch -->
    <title>Group</title>
    <desc>Created with Sketch.</desc>
    <defs></defs>
    <g id="Customer" stroke="none" stroke-width="1" fill="none" fill-rule="evenodd">
        <g id="add_new-copy" transform="translate(-13.000000, -13.000000)">
            <g id="Group" transform="translate(13.000000, 13.000000)">
                <path d="M0,2.00494659 C0,0.897645164 0.897026226,0 2.00494659,0 L21.9950534,0 C23.1023548,0 24,0.897026226 24,2.00494659 L24,21.9950534 C24,23.1023548 23.1029738,24 21.9950534,24 L2.00494659,24 C0.897645164,24 0,23.1029738 0,21.9950534 L0,2.00494659 Z" id="new" fill="#FFFFFF"></path>
                <path d="M1,2.00494659 L1,21.9950534 C1,22.5504275 1.44966837,23 2.00494659,23 L21.9950534,23 C22.5504275,23 23,22.5503316 23,21.9950534 L23,2.00494659 C23,1.44957248 22.5503316,1 21.9950534,1 L2.00494659,1 C1.44957248,1 1,1.44966837 1,2.00494659 Z M0,2.00494659 C0,0.897645164 0.897026226,0 2.00494659,0 L21.9950534,0 C23.1023548,0 24,0.897026226 24,2.00494659 L24,21.9950534 C24,23.1023548 23.1029738,24 21.9950534,24 L2.00494659,24 C0.897645164,24 0,23.1029738 0,21.9950534 L0,2.00494659 Z" id="Rectangle" fill="#CCCCCC" fill-rule="nonzero"></path>
                <polygon id="Shape" fill="#505050" points="18 12.8571429 12.8571429 12.8571429 12.8571429 18 11.1428571 18 11.1428571 12.8571429 6 12.8571429 6 11.1428571 11.1428571 11.1428571 11.1428571 6 12.8571429 6 12.8571429 11.1428571 18 11.1428571"></polygon>
            </g>
        </g>
    </g>
</svg>