<?xml version="1.0" encoding="UTF-8" standalone="no"?>
<svg width="183px" height="54px" viewBox="0 0 183 54" version="1.1" xmlns="http://www.w3.org/2000/svg" xmlns:xlink="http://www.w3.org/1999/xlink">
    <!-- Generator: sketchtool 3.8.2 (29753) - http://www.bohemiancoding.com/sketch -->
    <title>866D02A9-DE05-4298-BFF9-F39B0F4EFE37</title>
    <desc>Created with sketchtool.</desc>
    <defs></defs>
    <g id="Page-1" stroke="none" stroke-width="1" fill="none" fill-rule="evenodd">
        <g id="landing_page_new_1june" transform="translate(-680.000000, -3291.000000)">
            <g id="Download_on_the_App_Store_Badge" transform="translate(680.000000, 3291.000000)">
                <g id="Group">
                    <path d="M176.489267,54 L6.41042222,54 C2.87648889,54 0,51.1272 0,47.61045 L0,6.3801 C0,2.862 2.87648889,0 6.41042222,0 L176.489267,0 C180.021844,0 183,2.862 183,6.3801 L183,47.61045 C183,51.1272 180.021844,54 176.489267,54 L176.489267,54 L176.489267,54 Z" id="Shape" fill="#A6A6A6"></path>
                    <path d="M181.687822,47.6118 C181.687822,50.4684 179.3644,52.7823 176.490622,52.7823 L6.41042222,52.7823 C3.538,52.7823 1.20644444,50.4684 1.20644444,47.6118 L1.20644444,6.37875 C1.20644444,3.5235 3.538,1.2015 6.41042222,1.2015 L176.489267,1.2015 C179.3644,1.2015 181.686467,3.5235 181.686467,6.37875 L181.687822,47.6118 L181.687822,47.6118 L181.687822,47.6118 Z" id="Shape" fill="#000000"></path>
                    <g transform="translate(17.266667, 8.100000)" id="Shape" fill="#FFFFFF">
                        <path d="M23.5735111,18.6084 C23.5342,14.25735 27.1508222,12.14055 27.3162,12.042 C25.2679556,9.06795 22.0932444,8.6616 20.9776222,8.6292 C18.3112444,8.34975 15.7248444,10.21815 14.3665778,10.21815 C12.9812,10.21815 10.8895778,8.6562 8.63528889,8.7021 C5.7344,8.74665 3.02057778,10.4193 1.53217778,13.0167 C-1.53951111,18.31275 0.751377778,26.0955 3.69428889,30.37635 C5.16642222,32.4729 6.88662222,34.8138 9.1382,34.73145 C11.3409778,34.641 12.1638,33.33285 14.8220444,33.33285 C17.4558889,33.33285 18.2285556,34.73145 20.5248667,34.6788 C22.8889556,34.641 24.3773556,32.5728 25.7979778,30.45735 C27.4992,28.05435 28.1824,25.6878 28.2095111,25.5663 C28.1539333,25.5474 23.6182444,23.82345 23.5735111,18.6084 L23.5735111,18.6084 Z"></path>
                        <path d="M19.2357333,5.8131 C20.4204889,4.33755 21.2311111,2.3301 21.0060889,0.29295 C19.2913111,0.36855 17.1468222,1.4742 15.9119111,2.91735 C14.8193333,4.18905 13.8433333,6.27345 14.0954667,8.23365 C16.0217111,8.37675 17.9994667,7.2657 19.2357333,5.8131 L19.2357333,5.8131 Z"></path>
                    </g>
                    <g transform="translate(56.933333, 24.300000)" id="Shape" fill="#FFFFFF">
                        <path d="M15.7854444,18.2304 L12.7069778,18.2304 L11.0206667,12.95325 L5.15924444,12.95325 L3.55291111,18.2304 L0.555777778,18.2304 L6.36297778,0.2646 L9.94977778,0.2646 L15.7854444,18.2304 L15.7854444,18.2304 Z M10.5123333,10.73925 L8.98733333,6.048 C8.82602222,5.56875 8.52373333,4.44015 8.07775556,2.66355 L8.02353333,2.66355 C7.84595556,3.42765 7.55993333,4.55625 7.16682222,6.048 L5.66893333,10.73925 L10.5123333,10.73925 L10.5123333,10.73925 Z"></path>
                        <path d="M30.7196,11.5938 C30.7196,13.797 30.1218,15.5385 28.9262,16.81695 C27.8553111,17.955 26.5255111,18.52335 24.9381556,18.52335 C23.2247333,18.52335 21.9938889,17.91045 21.2442667,16.68465 L21.1900444,16.68465 L21.1900444,23.5089 L18.3,23.5089 L18.3,9.54045 C18.3,8.15535 18.2634,6.7338 18.1929111,5.2758 L20.7345778,5.2758 L20.8958889,7.32915 L20.9501111,7.32915 C21.9139111,5.78205 23.3765556,5.00985 25.3394,5.00985 C26.8738889,5.00985 28.1548889,5.6133 29.1796889,6.82155 C30.2072,8.03115 30.7196,9.62145 30.7196,11.5938 L30.7196,11.5938 Z M27.7753333,11.6991 C27.7753333,10.4382 27.4906667,9.3987 26.9186222,8.5806 C26.2937111,7.7274 25.4546222,7.3008 24.4027111,7.3008 C23.6896889,7.3008 23.0417333,7.5384 22.4629111,8.00685 C21.8827333,8.47935 21.5031778,9.0963 21.3256,9.8604 C21.2361333,10.2168 21.1914,10.5084 21.1914,10.7379 L21.1914,12.8979 C21.1914,13.8402 21.4814889,14.63535 22.0616667,15.2847 C22.6418444,15.93405 23.3955333,16.25805 24.3227333,16.25805 C25.4112444,16.25805 26.2584667,15.83955 26.8644,15.00525 C27.4716889,14.1696 27.7753333,13.068 27.7753333,11.6991 L27.7753333,11.6991 Z"></path>
                        <path d="M45.6808667,11.5938 C45.6808667,13.797 45.0830667,15.5385 43.8861111,16.81695 C42.8165778,17.955 41.4867778,18.52335 39.8994222,18.52335 C38.186,18.52335 36.9551556,17.91045 36.2068889,16.68465 L36.1526667,16.68465 L36.1526667,23.5089 L33.2626222,23.5089 L33.2626222,9.54045 C33.2626222,8.15535 33.2260222,6.7338 33.1555333,5.2758 L35.6972,5.2758 L35.8585111,7.32915 L35.9127333,7.32915 C36.8751778,5.78205 38.3378222,5.00985 40.3020222,5.00985 C41.8351556,5.00985 43.1161556,5.6133 44.1436667,6.82155 C45.1671111,8.03115 45.6808667,9.62145 45.6808667,11.5938 L45.6808667,11.5938 Z M42.7366,11.6991 C42.7366,10.4382 42.4505778,9.3987 41.8785333,8.5806 C41.2536222,7.7274 40.4172444,7.3008 39.3639778,7.3008 C38.6496,7.3008 38.003,7.5384 37.4228222,8.00685 C36.8426444,8.47935 36.4644444,9.0963 36.2868667,9.8604 C36.1987556,10.2168 36.1526667,10.5084 36.1526667,10.7379 L36.1526667,12.8979 C36.1526667,13.8402 36.4427556,14.63535 37.0202222,15.2847 C37.6004,15.9327 38.3540889,16.25805 39.284,16.25805 C40.3725111,16.25805 41.2197333,15.83955 41.8256667,15.00525 C42.4329556,14.1696 42.7366,13.068 42.7366,11.6991 L42.7366,11.6991 Z"></path>
                        <path d="M62.4084222,13.1922 C62.4084222,14.7204 61.8756889,15.96375 60.8061556,16.9236 C59.6308889,17.97255 57.9947333,18.49635 55.8922667,18.49635 C53.9511111,18.49635 52.3949333,18.12375 51.2169556,17.3772 L51.8866,14.97825 C53.1554,15.74235 54.5475556,16.12575 56.0644222,16.12575 C57.1529333,16.12575 58.0001556,15.88005 58.6088,15.39135 C59.2147333,14.90265 59.5170222,14.24655 59.5170222,13.42845 C59.5170222,12.69945 59.2676,12.0852 58.7674,11.58705 C58.2699111,11.0889 57.4389556,10.62585 56.2786,10.1979 C53.1201556,9.02475 51.5422889,7.3062 51.5422889,5.0463 C51.5422889,3.5694 52.0953556,2.35845 53.2028444,1.41615 C54.3062667,0.4725 55.7784,0.00135 57.6192444,0.00135 C59.2608222,0.00135 60.6245111,0.2862 61.7130222,0.85455 L60.9905111,3.20085 C59.9738444,2.65005 58.8243333,2.37465 57.5379111,2.37465 C56.5212444,2.37465 55.7268889,2.6244 55.1575556,3.1212 C54.6763333,3.56535 54.4350444,4.1067 54.4350444,4.74795 C54.4350444,5.45805 54.7102222,6.0453 55.2632889,6.507 C55.7445111,6.9336 56.6188444,7.3953 57.8876444,7.89345 C59.4397556,8.5158 60.5797778,9.24345 61.3131333,10.07775 C62.0437778,10.90935 62.4084222,11.9502 62.4084222,13.1922 L62.4084222,13.1922 Z"></path>
                        <path d="M71.9637333,7.4358 L68.7781778,7.4358 L68.7781778,13.72545 C68.7781778,15.3252 69.3393778,16.1244 70.4644889,16.1244 C70.9809556,16.1244 71.4093111,16.07985 71.7482,15.99075 L71.8281778,18.1764 C71.2588444,18.38835 70.5092222,18.495 69.5806667,18.495 C68.4392889,18.495 67.5473333,18.14805 66.9034444,17.4555 C66.2622667,16.7616 65.9396444,15.5979 65.9396444,13.96305 L65.9396444,7.4331 L64.0418667,7.4331 L64.0418667,5.2731 L65.9396444,5.2731 L65.9396444,2.90115 L68.7781778,2.04795 L68.7781778,5.2731 L71.9637333,5.2731 L71.9637333,7.4358 L71.9637333,7.4358 Z"></path>
                        <path d="M86.3366889,11.64645 C86.3366889,13.6377 85.7646444,15.27255 84.6232667,16.551 C83.4263111,17.86725 81.8376,18.52335 79.8571333,18.52335 C77.9485111,18.52335 76.4289333,17.8929 75.2956889,16.632 C74.1624444,15.3711 73.5958222,13.77945 73.5958222,11.8611 C73.5958222,9.85365 74.1787111,8.20935 75.3485556,6.9309 C76.5156889,5.6511 78.0908444,5.0112 80.0713111,5.0112 C81.9799333,5.0112 83.5157778,5.64165 84.6747778,6.9039 C85.7836222,8.12835 86.3366889,9.7092 86.3366889,11.64645 L86.3366889,11.64645 Z M83.3382,11.7396 C83.3382,10.54485 83.082,9.5202 82.5628222,8.66565 C81.9568889,7.63155 81.0906889,7.11585 79.9682889,7.11585 C78.8065778,7.11585 77.9241111,7.6329 77.3181778,8.66565 C76.799,9.52155 76.5428,10.5624 76.5428,11.7936 C76.5428,12.98835 76.799,14.013 77.3181778,14.8662 C77.9430889,15.9003 78.8160667,16.416 79.9425333,16.416 C81.0459556,16.416 81.9121556,15.8895 82.5370667,14.8392 C83.0698,13.96845 83.3382,12.933 83.3382,11.7396 L83.3382,11.7396 Z"></path>
                        <path d="M95.7306889,7.80705 C95.4446667,7.7544 95.1396667,7.7274 94.8197556,7.7274 C93.8030889,7.7274 93.0168667,8.10945 92.4638,8.8749 C91.9825778,9.5499 91.7412889,10.4031 91.7412889,11.43315 L91.7412889,18.2304 L88.8526,18.2304 L88.8797111,9.3555 C88.8797111,7.8624 88.8431111,6.50295 88.7712667,5.27715 L91.2885333,5.27715 L91.3942667,7.75575 L91.4742444,7.75575 C91.7792444,6.9039 92.2604667,6.2181 92.9192667,5.70375 C93.5631556,5.2407 94.2585556,5.00985 95.0081778,5.00985 C95.2752222,5.00985 95.5165111,5.02875 95.7306889,5.0625 L95.7306889,7.80705 L95.7306889,7.80705 Z"></path>
                        <path d="M108.655911,11.1402 C108.655911,11.6559 108.622022,12.0906 108.550178,12.44565 L99.8800444,12.44565 C99.9139333,13.72545 100.3328,14.7042 101.138,15.3792 C101.868644,15.98265 102.813467,16.28505 103.973822,16.28505 C105.257533,16.28505 106.428733,16.0812 107.482,15.67215 L107.934756,17.67015 C106.703911,18.20475 105.250756,18.4707 103.573933,18.4707 C101.556867,18.4707 99.9735778,17.8794 98.8213556,16.69815 C97.6718444,15.5169 97.0957333,13.93065 97.0957333,11.94075 C97.0957333,9.9873 97.6311778,8.36055 98.7034222,7.0632 C99.8258222,5.6781 101.342689,4.98555 103.251311,4.98555 C105.126044,4.98555 106.545311,5.6781 107.509111,7.0632 C108.272289,8.16345 108.655911,9.52425 108.655911,11.1402 L108.655911,11.1402 Z M105.900067,10.39365 C105.919044,9.54045 105.730622,8.80335 105.338867,8.181 C104.838667,7.38045 104.070067,6.98085 103.035778,6.98085 C102.090956,6.98085 101.322356,7.371 100.7354,8.154 C100.254178,8.77635 99.9681556,9.5229 99.8800444,10.3923 L105.900067,10.3923 L105.900067,10.39365 Z"></path>
                    </g>
                    <g transform="translate(58.288889, 8.100000)" id="Shape" fill="#FFFFFF">
                        <path d="M8.20111111,5.41215 C8.20111111,7.0011 7.7226,8.1972 6.76693333,9.00045 C5.88175556,9.7416 4.6238,10.11285 2.99442222,10.11285 C2.18651111,10.11285 1.49517778,10.07775 0.916355556,10.00755 L0.916355556,1.3257 C1.6714,1.2042 2.48473333,1.1421 3.36313333,1.1421 C4.91524444,1.1421 6.08508889,1.47825 6.87402222,2.15055 C7.75784444,2.9106 8.20111111,3.99735 8.20111111,5.41215 L8.20111111,5.41215 Z M6.70322222,5.4513 C6.70322222,4.42125 6.4294,3.6315 5.88175556,3.0807 C5.33411111,2.53125 4.53433333,2.25585 3.48106667,2.25585 C3.03373333,2.25585 2.65282222,2.28555 2.33697778,2.34765 L2.33697778,8.9478 C2.51184444,8.9748 2.83175556,8.98695 3.29671111,8.98695 C4.38386667,8.98695 5.22295556,8.6859 5.81397778,8.0838 C6.405,7.4817 6.70322222,6.6042 6.70322222,5.4513 L6.70322222,5.4513 Z"></path>
                        <path d="M16.1433111,6.79995 C16.1433111,7.7787 15.8627111,8.5806 15.3015111,9.2097 C14.7132,9.85635 13.9337556,10.179 12.9604667,10.179 C12.0224222,10.179 11.2755111,9.86985 10.7183778,9.24885 C10.1626,8.6292 9.88471111,7.84755 9.88471111,6.90525 C9.88471111,5.91975 10.1707333,5.1111 10.7454889,4.48335 C11.3202444,3.8556 12.0929111,3.54105 13.0662,3.54105 C14.0042444,3.54105 14.7579333,3.8502 15.3286222,4.46985 C15.8708444,5.07195 16.1433111,5.84955 16.1433111,6.79995 L16.1433111,6.79995 Z M14.6698222,6.84585 C14.6698222,6.2586 14.5424,5.75505 14.2889111,5.3352 C13.9906889,4.8276 13.5664,4.5738 13.0146889,4.5738 C12.444,4.5738 12.0102222,4.8276 11.712,5.3352 C11.4571556,5.75505 11.3310889,6.2667 11.3310889,6.8715 C11.3310889,7.45875 11.4585111,7.9623 11.712,8.38215 C12.0197111,8.88975 12.4480667,9.14355 13.0011333,9.14355 C13.5433556,9.14355 13.969,8.8857 14.2753556,8.36865 C14.5383333,7.9407 14.6698222,7.4331 14.6698222,6.84585 L14.6698222,6.84585 Z"></path>
                        <path d="M26.7925556,3.67065 L24.7931111,10.03455 L23.4917778,10.03455 L22.6635333,7.2711 C22.4534222,6.58125 22.2826222,5.89545 22.1497778,5.21505 L22.1240222,5.21505 C22.0006667,5.91435 21.8298667,6.5988 21.6102667,7.2711 L20.7305111,10.03455 L19.4142667,10.03455 L17.5341111,3.67065 L18.9940444,3.67065 L19.7165556,6.696 C19.8914222,7.4115 20.0351111,8.09325 20.1503333,8.73855 L20.1760889,8.73855 C20.2818222,8.20665 20.4566889,7.52895 20.7034,6.7095 L21.6102667,3.672 L22.7679111,3.672 L23.6368222,6.6447 C23.8469333,7.36965 24.0177333,8.0676 24.1492222,8.7399 L24.1885333,8.7399 C24.2847778,8.08515 24.4298222,7.3872 24.6223111,6.6447 L25.3976889,3.672 L26.7925556,3.672 L26.7925556,3.67065 Z"></path>
                        <path d="M34.1572889,10.03455 L32.7366667,10.03455 L32.7366667,6.38955 C32.7366667,5.26635 32.3083111,4.70475 31.4488889,4.70475 C31.0273111,4.70475 30.6870667,4.85865 30.4227333,5.1678 C30.1611111,5.47695 30.0282667,5.84145 30.0282667,6.2586 L30.0282667,10.0332 L28.6076444,10.0332 L28.6076444,5.4891 C28.6076444,4.9302 28.5900222,4.32405 28.5561333,3.66795 L29.8046,3.66795 L29.8710222,4.6629 L29.9103333,4.6629 C30.0757111,4.35375 30.3224222,4.0986 30.6464,3.89475 C31.0313778,3.65715 31.4624444,3.537 31.9341778,3.537 C32.5306222,3.537 33.0267556,3.7287 33.4212222,4.11345 C33.9119333,4.5846 34.1572889,5.28795 34.1572889,6.22215 L34.1572889,10.03455 L34.1572889,10.03455 Z"></path>
                        <polygon points="38.0748444 10.03455 36.6555778 10.03455 36.6555778 0.7506 38.0748444 0.7506"></polygon>
                        <path d="M46.4386222,6.79995 C46.4386222,7.7787 46.1580222,8.5806 45.5968222,9.2097 C45.0085111,9.85635 44.2277111,10.179 43.2557778,10.179 C42.3163778,10.179 41.5694667,9.86985 41.0136889,9.24885 C40.4579111,8.6292 40.1800222,7.84755 40.1800222,6.90525 C40.1800222,5.91975 40.4660444,5.1111 41.0408,4.48335 C41.6155556,3.8556 42.3882222,3.54105 43.3601556,3.54105 C44.2995556,3.54105 45.0518889,3.8502 45.6239333,4.46985 C46.1661556,5.07195 46.4386222,5.84955 46.4386222,6.79995 L46.4386222,6.79995 Z M44.9637778,6.84585 C44.9637778,6.2586 44.8363556,5.75505 44.5828667,5.3352 C44.286,4.8276 43.8603556,4.5738 43.31,4.5738 C42.7379556,4.5738 42.3041778,4.8276 42.0073111,5.3352 C41.7524667,5.75505 41.6264,6.2667 41.6264,6.8715 C41.6264,7.45875 41.7538222,7.9623 42.0073111,8.38215 C42.3150222,8.88975 42.7433778,9.14355 43.2964444,9.14355 C43.8386667,9.14355 44.2629556,8.8857 44.5693111,8.36865 C44.8336444,7.9407 44.9637778,7.4331 44.9637778,6.84585 L44.9637778,6.84585 Z"></path>
                        <path d="M53.314,10.03455 L52.0384222,10.03455 L51.9326889,9.3015 L51.8933778,9.3015 C51.4568889,9.88605 50.8346889,10.179 50.0267778,10.179 C49.4235556,10.179 48.9355556,9.98595 48.5682,9.60255 C48.2347333,9.25425 48.068,8.8209 48.068,8.30655 C48.068,7.52895 48.3933333,6.9363 49.0480667,6.5259 C49.7014444,6.1155 50.6205111,5.91435 51.8039111,5.9238 L51.8039111,5.805 C51.8039111,4.96665 51.362,4.54815 50.4768222,4.54815 C49.8464889,4.54815 49.2907111,4.7061 48.8108444,5.0193 L48.5221111,4.0905 C49.1158444,3.72465 49.8492,3.54105 50.7140444,3.54105 C52.3840889,3.54105 53.2218222,4.41855 53.2218222,6.17355 L53.2218222,8.51715 C53.2218222,9.153 53.253,9.65925 53.314,10.03455 L53.314,10.03455 Z M51.8391556,7.84755 L51.8391556,6.8661 C50.2721333,6.8391 49.4886222,7.26705 49.4886222,8.1486 C49.4886222,8.4807 49.5780889,8.7291 49.7610889,8.89515 C49.9440889,9.0612 50.1772444,9.14355 50.4551333,9.14355 C50.7669111,9.14355 51.0583556,9.045 51.3240444,8.84925 C51.5910889,8.65215 51.7551111,8.4024 51.8161111,8.09595 C51.8310222,8.0271 51.8391556,7.9434 51.8391556,7.84755 L51.8391556,7.84755 Z"></path>
                        <path d="M61.3863333,10.03455 L60.1256667,10.03455 L60.0592444,9.0126 L60.0199333,9.0126 C59.6173333,9.7902 58.9314222,10.179 57.9676222,10.179 C57.1976667,10.179 56.5564889,9.87795 56.0481556,9.27585 C55.5398222,8.67375 55.2863333,7.8921 55.2863333,6.93225 C55.2863333,5.9022 55.5615111,5.0679 56.1145778,4.4307 C56.6500222,3.8367 57.3061111,3.5397 58.0869111,3.5397 C58.9449778,3.5397 59.5454889,3.82725 59.8870889,4.4037 L59.9142,4.4037 L59.9142,0.7506 L61.3361778,0.7506 L61.3361778,8.32005 C61.3361778,8.9397 61.3524444,9.51075 61.3863333,10.03455 L61.3863333,10.03455 Z M59.9142,7.35075 L59.9142,6.28965 C59.9142,6.10605 59.9006444,5.95755 59.8748889,5.84415 C59.7949111,5.50395 59.6227556,5.21775 59.3611333,4.9869 C59.0968,4.75605 58.7782444,4.63995 58.4108889,4.63995 C57.8808667,4.63995 57.4660667,4.8492 57.1610667,5.26905 C56.8587778,5.6889 56.7056,6.22485 56.7056,6.8796 C56.7056,7.5087 56.8506444,8.019 57.1420889,8.41185 C57.4498,8.83035 57.8646,9.0396 58.3837778,9.0396 C58.8500889,9.0396 59.2228667,8.86545 59.5061778,8.5158 C59.78,8.19315 59.9142,7.80435 59.9142,7.35075 L59.9142,7.35075 Z"></path>
                        <path d="M73.5361778,6.79995 C73.5361778,7.7787 73.2555778,8.5806 72.6943778,9.2097 C72.1060667,9.85635 71.3279778,10.179 70.3533333,10.179 C69.4166444,10.179 68.6697333,9.86985 68.1112444,9.24885 C67.5554667,8.6292 67.2775778,7.84755 67.2775778,6.90525 C67.2775778,5.91975 67.5636,5.1111 68.1383556,4.48335 C68.7131111,3.8556 69.4857778,3.54105 70.4604222,3.54105 C71.3971111,3.54105 72.1521556,3.8502 72.7214889,4.46985 C73.2637111,5.07195 73.5361778,5.84955 73.5361778,6.79995 L73.5361778,6.79995 Z M72.0640444,6.84585 C72.0640444,6.2586 71.9366222,5.75505 71.6831333,5.3352 C71.3835556,4.8276 70.9606222,4.5738 70.4075556,4.5738 C69.8382222,4.5738 69.4044444,4.8276 69.1048667,5.3352 C68.8500222,5.75505 68.7239556,6.2667 68.7239556,6.8715 C68.7239556,7.45875 68.8513778,7.9623 69.1048667,8.38215 C69.4125778,8.88975 69.8409333,9.14355 70.394,9.14355 C70.9362222,9.14355 71.3632222,8.8857 71.6695778,8.36865 C71.9312,7.9407 72.0640444,7.4331 72.0640444,6.84585 L72.0640444,6.84585 Z"></path>
                        <path d="M81.1747333,10.03455 L79.7554667,10.03455 L79.7554667,6.38955 C79.7554667,5.26635 79.3271111,4.70475 78.4663333,4.70475 C78.0447556,4.70475 77.7045111,4.85865 77.4415333,5.1678 C77.1785556,5.47695 77.0470667,5.84145 77.0470667,6.2586 L77.0470667,10.0332 L75.6250889,10.0332 L75.6250889,5.4891 C75.6250889,4.9302 75.6088222,4.32405 75.5749333,3.66795 L76.8220444,3.66795 L76.8884667,4.6629 L76.9277778,4.6629 C77.0945111,4.35375 77.3412222,4.0986 77.6638444,3.89475 C78.0501778,3.65715 78.4798889,3.537 78.9529778,3.537 C79.5480667,3.537 80.0442,3.7287 80.4386667,4.11345 C80.9307333,4.5846 81.1747333,5.28795 81.1747333,6.22215 L81.1747333,10.03455 L81.1747333,10.03455 Z"></path>
                        <path d="M90.7354667,4.7304 L89.1711556,4.7304 L89.1711556,7.8219 C89.1711556,8.6076 89.4490444,9.00045 89.9994,9.00045 C90.2542444,9.00045 90.4657111,8.97885 90.6324444,8.9343 L90.6690444,10.00755 C90.3884444,10.11285 90.0197333,10.1655 89.5656222,10.1655 C89.0044222,10.1655 88.5679333,9.9954 88.2520889,9.6552 C87.9348889,9.315 87.7776444,8.7426 87.7776444,7.93935 L87.7776444,4.7304 L86.8436667,4.7304 L86.8436667,3.67065 L87.7776444,3.67065 L87.7776444,2.50425 L89.1698,2.08575 L89.1698,3.6693 L90.7341111,3.6693 L90.7341111,4.7304 L90.7354667,4.7304 Z"></path>
                        <path d="M98.2560889,10.03455 L96.8341111,10.03455 L96.8341111,6.41655 C96.8341111,5.2758 96.4057556,4.70475 95.5476889,4.70475 C94.8888889,4.70475 94.4388444,5.0355 94.1921333,5.697 C94.1501111,5.83605 94.1257111,6.00615 94.1257111,6.20595 L94.1257111,10.0332 L92.7064444,10.0332 L92.7064444,0.7506 L94.1257111,0.7506 L94.1257111,4.58595 L94.1528222,4.58595 C94.6001556,3.888 95.2413333,3.5397 96.0722889,3.5397 C96.6606,3.5397 97.1472444,3.7314 97.5335778,4.11615 C98.0148,4.5954 98.2560889,5.3082 98.2560889,6.2505 L98.2560889,10.03455 L98.2560889,10.03455 Z"></path>
                        <path d="M106.013933,6.55155 C106.013933,6.80535 105.994956,7.01865 105.961067,7.1928 L101.700556,7.1928 C101.719533,7.8219 101.922867,8.30115 102.317333,8.63325 C102.677911,8.93025 103.142867,9.07875 103.7122,9.07875 C104.342533,9.07875 104.917289,8.97885 105.435111,8.7777 L105.657422,9.7605 C105.051489,10.0224 104.338467,10.15335 103.512933,10.15335 C102.523378,10.15335 101.743933,9.8631 101.180022,9.2826 C100.6134,8.7021 100.3328,7.92315 100.3328,6.94575 C100.3328,5.9859 100.594422,5.1867 101.121733,4.5495 C101.672089,3.8691 102.416289,3.5289 103.355689,3.5289 C104.274756,3.5289 104.972867,3.8691 105.4446,4.5495 C105.825511,5.0895 106.013933,5.75775 106.013933,6.55155 L106.013933,6.55155 Z M104.658378,6.1857 C104.669222,5.76585 104.575689,5.40405 104.3832,5.09895 C104.136489,4.7061 103.761,4.509 103.252667,4.509 C102.789067,4.509 102.410867,4.7007 102.122133,5.08545 C101.886267,5.3919 101.746644,5.75775 101.700556,6.1857 L104.658378,6.1857 L104.658378,6.1857 Z"></path>
                    </g>
                </g>
            </g>
        </g>
    </g>
</svg>