<?xml version="1.0" encoding="UTF-8"?>
<svg width="30px" height="30px" viewBox="0 0 30 30" version="1.1" xmlns="http://www.w3.org/2000/svg" xmlns:xlink="http://www.w3.org/1999/xlink">
    <!-- Generator: Sketch 41.2 (35397) - http://www.bohemiancoding.com/sketch -->
    <title>charts</title>
    <desc>Created with Sketch.</desc>
    <defs></defs>
    <g id="Customer" stroke="none" stroke-width="1" fill="none" fill-rule="evenodd">
        <g id="charts">
            <g id="Group">
                <rect id="Rectangle-4-Copy" x="0" y="0" width="30" height="30"></rect>
                <path d="M10.9247627,9.8 C10.820977,9.8 10.7368421,9.88548233 10.7368421,9.98943281 L10.7368421,24.8105671 C10.7368421,24.915188 10.8231105,25 10.9247627,25 L14.3383952,25 C14.4421809,25 14.5263158,24.9145177 14.5263158,24.8105671 L14.5263158,9.98943281 C14.5263158,9.88481195 14.4400474,9.8 14.3383952,9.8 L10.9247627,9.8 Z M20.3984469,7.9 C20.2946612,7.9 20.2105263,7.98394124 20.2105263,8.08911631 L20.2105263,24.8108837 C20.2105263,24.9153297 20.2967947,25 20.3984469,25 L23.8120794,25 C23.9158652,25 24,24.9160588 24,24.8108837 L24,8.08911631 C24,7.98467025 23.9137315,7.9 23.8120794,7.9 L20.3984469,7.9 Z M15.6616048,6 C15.5578191,6 15.4736842,6.08471011 15.4736842,6.19113213 L15.4736842,24.8088678 C15.4736842,24.9144272 15.5599526,25 15.6616048,25 L19.0752373,25 C19.179023,25 19.2631579,24.9152898 19.2631579,24.8088678 L19.2631579,6.19113213 C19.2631579,6.08557277 19.1768895,6 19.0752373,6 L15.6616048,6 Z M6.18792059,13.6 C6.08413492,13.6 6,13.6852071 6,13.788357 L6,24.8116431 C6,24.9156696 6.08626843,25 6.18792059,25 L9.6015531,25 C9.70533877,25 9.78947368,24.914793 9.78947368,24.8116431 L9.78947368,13.788357 C9.78947368,13.6843303 9.70320525,13.6 9.6015531,13.6 L6.18792059,13.6 Z" id="Shape" fill="#FFFFFF"></path>
            </g>
        </g>
    </g>
</svg>