<?xml version="1.0" encoding="UTF-8"?>
<svg width="24px" height="24px" viewBox="0 0 24 24" version="1.1" xmlns="http://www.w3.org/2000/svg" xmlns:xlink="http://www.w3.org/1999/xlink">
    <!-- Generator: Sketch 41.2 (35397) - http://www.bohemiancoding.com/sketch -->
    <title>filter</title>
    <desc>Created with Sketch.</desc>
    <defs></defs>
    <g id="Customer" stroke="none" stroke-width="1" fill="none" fill-rule="evenodd">
        <g id="filter">
            <g id="Group-20">
                <rect id="Rectangle-8" x="0" y="0" width="24" height="24"></rect>
                <path d="M17,6.25371792 L17,8.13665593 C16.9997959,8.1866876 16.9846448,8.23554278 16.9564518,8.27707843 L13.300015,13.702493 C13.271822,13.7440287 13.2566709,13.7928839 13.2564668,13.8429155 L13.2564668,15.7306407 C13.2561042,15.7970101 13.2294693,15.8605966 13.1822736,15.9077645 L11.1806688,17.9247422 C11.1070907,17.9982994 10.9957308,18.0202735 10.8992593,17.9802714 C10.8027878,17.9402693 10.7405414,17.8463091 10.7419609,17.7428312 L10.7419609,13.8413198 C10.7417568,13.7912882 10.7266057,13.742433 10.6984127,13.7008973 L7.04197594,8.27548272 C7.01373684,8.23286422 6.999124,8.18282032 7.00004063,8.1318688 L7.00004063,6.25371792 C7.00004063,6.11359338 7.11485746,6 7.2564912,6 L16.7435494,6 C16.8851832,6 17,6.11359338 17,6.25371792 L17,6.25371792 Z" id="Shape" fill="#505050"></path>
            </g>
        </g>
    </g>
</svg>