<?xml version="1.0" encoding="UTF-8"?>
<svg width="371px" height="209px" viewBox="0 0 371 209" version="1.1" xmlns="http://www.w3.org/2000/svg" xmlns:xlink="http://www.w3.org/1999/xlink">
    <!-- Generator: Sketch 41 (35326) - http://www.bohemiancoding.com/sketch -->
    <title>graphic</title>
    <desc>Created with Sketch.</desc>
    <defs></defs>
    <g id="Page-1" stroke="none" stroke-width="1" fill="none" fill-rule="evenodd" opacity="0.149999991">
        <g id="mobile" transform="translate(-482.000000, -350.000000)" fill="#000000">
            <g id="graphic" transform="translate(482.000000, 350.000000)">
                <g id="Group-17" transform="translate(81.000000, 0.000000)">
                    <path d="M149.52129,103.319086 C146.509677,123.506178 144.332903,143.793282 140.670968,163.885491 C138.670968,174.85735 136.649032,184.793184 128.60129,193.101896 C126.294194,195.484239 123.56129,197.393448 120.619355,198.962871 C123.849032,196.512571 126.614194,193.425012 128.652903,189.47581 C132.846452,181.353018 133.397419,171.406926 134.741935,162.550712 C137.153548,146.655172 139.820645,130.809638 141.892903,114.864092 C143.861935,99.7250552 144.427097,84.4693374 146.180645,69.3097853 C147.849032,54.8862209 148.974194,40.638319 147.206452,26.210908 C161.44,47.0237178 152.873548,80.8483804 149.52129,103.319086 L149.52129,103.319086 Z M22.6774194,194.482834 C22.716129,193.760951 22.2696774,193.041632 21.2916129,193.046761 C20.5341935,193.050607 19.8270968,192.981368 19.1290323,192.899307 C17.8051613,192.269742 16.4916129,191.631202 15.2296774,190.95035 C14.5083871,190.56184 13.8141935,190.597742 13.2387097,190.868288 C-5.17548387,179.186086 9.44387097,123.172804 12.5032258,109.658325 C15.2258065,97.6299264 18.7509677,85.7643681 21.2670968,73.6949387 C24.8929032,56.2928037 23.636129,38.3316258 29.1767742,21.2192699 C37.4245161,-4.25180368 74.4387097,6.03920245 94.876129,6.74313497 C104.976774,7.0906135 114.938065,6.32641718 124.917419,8.4202638 C130.996129,9.69734356 135.029677,12.4553742 137.748387,16.1109509 C137.87871,16.5879325 138.16,17.0431166 138.652903,17.4008528 L138.654194,17.4008528 C142.954839,24.268362 143.258065,33.8362025 143.287742,43.0899018 C143.389677,75.7798098 138.246452,109.380086 133.117419,141.585319 C131.089032,154.322779 129.717419,167.311552 126.781935,179.883607 C123.877419,192.322313 115.695484,197.960184 103.686452,201.032356 C79.1909677,207.303638 46.8090323,204.786663 22.6774194,194.482834 L22.6774194,194.482834 Z M144.072258,15.7224417 C137.507097,4.50439877 122.065806,2.2387362 109.029677,1.90151534 C87.1096774,1.33477914 63.0722581,-2.10410429 41.5264516,2.51953988 C26.0335484,5.84558896 22.9677419,26.4468344 21.3290323,39.2586626 C19.4980645,53.565546 18.9974194,67.8134479 15.5122581,81.8523497 C11.3096774,98.7826319 -15.9677419,186.517755 13.8632258,195.303448 C34.4774194,206.080411 58.9870968,208.255037 81.9148387,208.033215 C89.4090323,207.960129 97.7716129,207.575466 105.510968,205.712417 C121.085161,205.199534 134.242581,197.015196 140.837419,181.971043 C145.557419,171.20562 146.260645,157.765509 147.905806,146.246147 C149.734194,133.435601 151.403871,120.594282 153.08,107.764503 C156.588387,80.9035153 169.993548,35.4851227 144.072258,15.7224417 L144.072258,15.7224417 Z" id="Fill-96"></path>
                    <path d="M105.491613,15.342908 C102.67871,12.331 97.28,12.7336135 93.4,12.2168834 C86.9948387,11.3603681 80.6090323,10.566681 74.1341935,10.7641411 C70.0670968,10.8885153 70.1148387,16.7584663 74.1341935,16.9995215 C80.2825806,17.3700798 86.3767742,18.1791534 92.4658065,19.074135 C96.2916129,19.6383067 101.588387,21.5064847 104.994839,19.1677362 C106.31871,18.2586503 106.623226,16.5545951 105.491613,15.342908" id="Fill-97"></path>
                    <path d="M122.633548,118.161933 C121.750968,126.661693 120.899355,161.683939 108.536774,162.762276 C104.489032,163.116166 100.100645,161.692914 96.0916129,161.227472 C87.5032258,160.229914 78.9006452,159.436227 70.2916129,158.64254 C57.1896774,157.433417 43.6554839,156.962847 30.6412903,155.151086 C21.5006452,153.879135 18.1677419,147.100098 20.1225806,138.424675 C21.8567742,130.725012 23.2735484,122.953546 24.7019355,115.191055 C27.643871,99.1980675 29.2516129,83.1281472 33.2322581,67.3274908 C36.7135484,53.5027178 40.4967742,39.974135 40.0864516,25.6775092 C56.5896774,24.3286258 73.1896774,26.1916748 89.5729032,28.1188344 C102.529032,29.6433804 116.976774,33.1425276 130.286452,32.3155031 C124.72,60.3176564 125.576774,89.8161472 122.633548,118.161933 L122.633548,118.161933 Z M134.76,27.7123742 C120.03871,25.2107853 104.470968,24.9799877 89.5729032,23.3118344 C72.9729032,21.4513497 56.3548387,20.211454 39.7690323,22.7425337 C39.2,22.0488589 37.8967742,22.2899141 37.7729032,23.4297975 C35.676129,42.8655153 29.6348387,61.5331902 25.64,80.6111718 C21.7122581,99.3634724 20.2154839,118.528644 15.6309677,137.195037 C13.5625806,145.621712 13.6580645,154.118908 23.003871,157.927067 C34.8258065,162.741761 50.0129032,161.424933 62.6051613,162.807153 C77.7148387,164.465049 93.3767742,167.528245 108.536774,167.983429 C118.891613,168.295006 121.581935,155.251098 123.730323,147.756589 C134.545806,110.019908 127.565161,69.3379939 135.996129,31.3064049 C136.025806,31.171773 136.029677,31.0473988 136.042581,30.9204601 C136.64129,29.7626258 136.211613,27.9585583 134.76,27.7123742 L134.76,27.7123742 Z" id="Fill-98"></path>
                    <path d="M108.656774,69.3995399 C90.28,82.260092 76.5883871,99.7724969 61.4322581,115.888577 C76.0877419,93.7499632 92.9548387,73.0346012 105.383226,49.502227 C106.788387,46.8390798 104.055484,44.6221411 101.539355,45.6825276 C84.1225806,53.0270184 71.4309677,66.3901963 58.6103226,79.6649018 C68.4890323,65.9837362 77.636129,51.8422577 81.1419355,35.1709816 C81.5251613,33.3489632 79.5780645,31.4384724 77.7845161,32.6065644 C61.5845161,43.1514479 50.4941935,61.021589 40.0412903,76.795319 C38.9793548,78.3980798 41.4696774,79.7315767 42.5741935,78.2660123 C52.4283871,65.2092822 61.7690323,50.1856442 74.9948387,40.0651718 C67.6464516,62.693589 50.5870968,80.5547546 37.3509677,100.030221 C35.4722581,102.794663 39.3948387,105.079558 41.636129,103.316521 C60.7948387,88.2377485 74.7432258,66.6633067 96.08,54.5746442 C80.2477419,81.4625583 59.12,104.96416 44.3677419,132.54062 C42.7716129,135.525601 46.5006452,138.322098 48.996129,136.089773 C63.0606452,123.504896 74.9212903,108.617172 88.0580645,95.1026933 C77.8877419,107.549092 68.0051613,120.16346 61.0154839,134.831926 C59.8180645,137.345055 62.5187097,141.137828 65.3096774,139.097834 C75.8645161,131.38535 84.2425806,121.494393 93.0606452,112.030411 C90.5212903,116.550196 88.1135484,121.139221 86.1780645,125.991098 C85.16,128.543975 88.7729032,131.384067 91.0051613,129.677448 C96.3445161,125.593613 100.15871,120.859699 103.36129,114.962822 C104.505806,112.853589 103.136774,110.889245 101.387097,110.291736 C103.984516,105.789902 106.616774,101.30089 108.903226,96.6272393 C110.52,93.3204233 106.707097,90.5021288 103.914839,92.802411 C93.4645161,101.407313 85.0825806,112.11119 75.6645161,121.73673 C86.7754839,104.816706 100.87871,89.9584724 112.740645,73.4590123 C114.461935,71.066411 111.061935,67.716 108.656774,69.3995399" id="Fill-99"></path>
                    <path d="M51.5703226,176.805025 C51.5948387,176.739632 51.5819355,176.684497 51.6,176.621669 C51.6477419,176.657571 51.6670968,176.713988 51.72,176.744761 C54.3870968,178.278282 58.4270968,177.891055 61.403871,178.130828 C65.1948387,178.435994 68.9858065,178.796294 72.7716129,179.17711 C72.9419355,181.246595 72.756129,183.328902 72.3109677,185.361202 C65.2451613,184.281583 58.0567742,184.382877 50.9677419,183.484049 C50.8219355,181.224798 50.7341935,179.015552 51.5703226,176.805025 L51.5703226,176.805025 Z M77.2580645,176.345994 C77.076129,175.212521 75.92,174.717589 74.9354839,174.588086 C70.4348387,173.993141 65.9354839,173.680282 61.403871,173.453331 C58.4451613,173.305877 54.4374194,172.545528 51.72,174.036736 C51.4335484,174.194448 51.2464516,174.430374 51.12,174.697074 C50.1354839,173.726442 48.1754839,173.590528 47.2941935,175.012497 C45.2748387,178.274436 45.8658065,182.060798 45.9264516,185.733043 C45.9445161,186.792147 46.6941935,188.020503 47.8258065,188.212834 C56.5367742,189.69635 65.3793548,189.442472 74.1341935,190.549018 C75.1212903,190.674675 76.3264516,189.723276 76.4916129,188.766748 C77.2232258,184.544436 77.9470968,180.627288 77.2580645,176.345994 L77.2580645,176.345994 Z" id="Fill-100"></path>
                </g>
                <g id="Group-16" transform="translate(251.000000, 76.000000)">
                    <path d="M95.4896104,85.0297778 C89.992987,95.0918889 85.6324675,105.843111 79.4836364,115.540444 C74.7148052,123.06 70.1594805,129.897444 60.4106494,129.825111 C47.9181818,129.732556 33.8361039,123.798111 22.8576623,118.475 C13.2085714,113.797444 -0.555584416,105.017111 3.03506494,93.5137778 C5.64701299,106.846444 27.9397403,115.919222 38.2161039,119.686 C45.8477922,122.483667 56.0142857,126.444889 64.0885714,123.434111 C74.4194805,119.581778 78.2984416,105.915444 83.7911688,97.5395556 C93.8454545,82.2095556 101.860519,65.4663333 110.405455,49.2784444 C113.023636,44.3185556 115.465714,38.6267778 115.845195,33.2095556 C120.113766,52.3584444 104.18026,69.1203333 95.4896104,85.0297778 L95.4896104,85.0297778 Z M6.23532468,86.0268889 C13.1150649,69.0301111 21.5875325,53.4675556 30.9958442,37.7782222 C35.2332468,30.7128889 39.5174026,23.6708889 44.1685714,16.8661111 C49.6924675,8.785 55.5701299,1.42722222 66.2727273,3.39655556 C72.525974,4.54611111 78.5392208,7.62222222 84.4441558,9.87466667 C92.1631169,12.8185556 99.8579221,15.9421111 106.716623,20.6056667 C122.258961,31.1733333 105.995844,51.6895556 99.7979221,63.5312222 C92.4381818,77.5918889 83.9898701,90.9494444 76.394026,104.848333 C73.5607792,110.033778 70.6667532,115.168667 66.2548052,119.195222 C61.7571429,123.300333 56.0976623,122.238667 50.7537662,121.070444 C40.4462338,118.820333 30.3444156,114.672444 21.2244156,109.425556 C14.0774026,105.313444 4.84831169,98.5156667 4.83506494,89.6902222 C4.9161039,89.5618889 4.9838961,89.4358889 5.06883117,89.306 C5.19974026,89.1092222 5.05012987,88.9023333 4.86467532,88.8331111 C4.91064935,88.13 5.00961039,87.4152222 5.18025974,86.6872222 C5.60025974,86.7012222 6.03896104,86.5106667 6.23532468,86.0268889 L6.23532468,86.0268889 Z M117.03039,28.6828889 C116.699221,28.1143333 116.050909,28.0147778 115.528831,28.2107778 C114.813506,24.892 112.995584,21.8174444 109.54987,19.264 C103.756364,14.9714444 97.2171429,12.0874444 90.547013,9.43833333 C83.2831169,6.552 76.0192208,3.37633333 68.4779221,1.27711111 C54.081039,-2.73155556 46.4392208,8.56488889 39.3031169,19.2025556 C25.4945455,39.7872222 13.6862338,61.4654444 4.68077922,84.5234444 C4.45168831,84.532 4.23506494,84.6346667 4.12051948,84.8921111 C3.11220779,87.1585556 2.70077922,89.3332222 2.77402597,91.4114444 C-10.7197403,113.818444 42.2283117,130.262222 57.2181818,132.039444 C65.1085714,132.974333 71.2815584,131.086667 76.4111688,124.910333 C84.758961,114.859889 89.8114286,102.082556 95.7568831,90.5823333 C101.605714,79.2672222 109.535844,69.1864444 114.98961,57.6831111 C119.094545,49.0241111 122.185714,37.5464444 117.03039,28.6828889 L117.03039,28.6828889 Z" id="Fill-58"></path>
                    <path d="M105.522078,41.4423333 C104.266753,47.2647778 101.534026,52.8764444 98.2293506,57.7997778 C96.6615584,60.1354444 94.1236364,63.2831111 91.1197403,63.6673333 C87.4379221,64.1378889 82.4290909,61.2492222 79.2116883,59.8951111 C67.2787013,54.8722222 33.1464935,50.0157778 42.6615584,30.0688889 C42.6864935,30.0486667 42.712987,30.044 42.7379221,30.0206667 C47.6774026,25.5266667 51.4285714,19.5097778 57.1324675,15.9047778 C63.3116883,11.9995556 71.4942857,16.4523333 77.618961,18.4978889 C84.3568831,20.7487778 91.072987,23.121 97.3457143,26.4856667 C104.13039,30.1256667 107.157662,33.8535556 105.522078,41.4423333 L105.522078,41.4423333 Z M107.477922,30.3784444 C102.674805,23.9073333 93.4768831,20.7775556 86.2192208,18.102 C81.885974,16.5036667 77.452987,15.1861111 73.0722078,13.7262222 C69.2080519,12.4382222 65.0836364,10.7675556 60.9062338,11.5056667 C51.9935065,13.0814444 46.7516883,22.2265556 41.2792208,28.5646667 C40.9901299,28.8998889 40.9612987,29.2701111 41.0680519,29.5866667 C36.847013,35.8501111 38.4693506,42.0295556 43.8833766,47.5292222 C51.6148052,55.3824444 62.5651948,57.1853333 72.5976623,60.3757778 C79.1774026,62.4687778 87.66,68.9243333 94.7158442,65.632 C101.067273,62.6671111 104.816104,53.6557778 107.119481,47.6038889 C109.115844,42.357 111.13013,35.2986667 107.477922,30.3784444 L107.477922,30.3784444 Z" id="Fill-59"></path>
                    <path d="M100.044935,19.6248889 C96.9397403,17.2285556 92.7296104,16.1217778 89.1483117,14.5195556 C84.6451948,12.5043333 80.0906494,10.1958889 75.1971429,9.34888889 C73.9457143,9.13266667 73.0916883,10.7753333 74.2979221,11.4761111 C78.4418182,13.8833333 82.9893506,15.6162222 87.3568831,17.5785556 C90.9288312,19.1831111 95.0883117,21.8026667 99.0623377,21.994 C100.190649,22.0476667 101.018961,20.3762222 100.044935,19.6248889" id="Fill-60"></path>
                    <path d="M91.8093506,34.5916667 C84.8018182,34.0962222 77.7631169,33.831 70.7976623,33.0703333 C71.6851948,33.0594444 72.5719481,33.0547778 73.461039,33.0368889 C77.498961,32.9583333 81.8844156,33.1753333 86.0337662,32.6682222 C88.1532468,33.0897778 90.7963636,33.7415556 92.5394805,32.9521111 C93.6397403,32.4543333 93.3046753,31.0348889 92.5394805,30.4601111 C91.2007792,29.4528889 88.4672727,29.7391111 86.8737662,29.5913333 C83.2145455,29.2522222 79.5561039,28.8975556 75.8984416,28.5312222 C72.0350649,28.1431111 68.1748052,27.72 64.3153247,27.286 C62.6150649,27.0954444 58.2662338,27.3754444 56.8480519,26.3098889 C56.2542857,25.8642222 55.7072727,26.6878889 55.9425974,27.2128889 C56.7646753,29.0476667 61.6893506,29.7741111 65.8753247,30.1536667 C61.785974,30.1412222 57.698961,30.0401111 53.6127273,29.7826667 C51.9428571,29.6768889 51.7075325,32.165 53.2293506,32.613 C61.8498701,35.154 70.701039,36.0608889 79.5974026,36.6893333 C72.8563636,37.8707778 66.1355844,39.1486667 59.4997403,40.8815556 C58.0028571,41.2727778 58.14,43.3121111 59.4997403,43.7655556 C64.1142857,45.3055556 68.82,45.9021111 73.574026,46.2334444 C72.585974,46.6301111 71.6158442,47.0913333 70.6690909,47.6575556 C69.6638961,48.2572222 69.5275325,49.938 70.6690909,50.5034444 C73.8272727,52.0667778 77.1748052,52.9145556 80.6890909,53.172 C82.8475325,53.3298889 82.8498701,49.9411111 80.6890909,49.8143333 C78.9732468,49.7132222 77.2979221,49.4036667 75.6685714,48.9245556 C78.4971429,47.8745556 81.4901299,47.3744444 84.4916883,46.7335556 C86.2948052,46.3477778 85.7836364,43.7258889 84.074026,43.6488889 C78.0366234,43.3774444 72.0428571,43.4007778 66.1574026,42.3484444 C74.7732468,40.3993333 83.4974026,39.0203333 92.1974026,37.4554444 C93.9109091,37.1466667 93.3584416,34.7021111 91.8093506,34.5916667" id="Fill-61"></path>
                    <path d="M56.294026,64.0048889 C55.4953247,63.6393333 54.5524675,63.1672222 54.0506494,62.4166667 C53.7366234,61.9476667 54.2345455,61.341 54.6553247,60.9108889 C57.6981818,61.0788889 61.9449351,61.7672222 61.3784416,65.2983333 C59.6314286,65.2656667 57.8501299,64.715 56.294026,64.0048889 L56.294026,64.0048889 Z M54.0958442,58.5114444 C53.1062338,58.5316667 52.7672727,59.4805556 53.0524675,60.1727778 C51.3116883,61.236 51.2532468,63.3888889 53.2231169,64.9327778 C55.5911688,66.7885556 59.3064935,67.9412222 62.3158442,67.6394444 C62.8698701,67.5834444 63.2820779,67.3127778 63.4605195,66.7691111 C65.4498701,60.7195556 59.001039,58.4111111 54.0958442,58.5114444 L54.0958442,58.5114444 Z" id="Fill-62"></path>
                    <path d="M81.2579221,83.5138889 C80.3680519,84.9006667 79.5592208,86.3341111 78.7792208,87.7838889 C76.1633766,86.4087778 73.5514286,85.0126667 70.9387013,83.6126667 C71.4116883,82.8177778 71.8885714,82.026 72.3451948,81.2233333 C73.3301299,79.4943333 70.761039,78.022 69.6927273,79.6763333 C69.1706494,80.4852222 68.6477922,81.2964444 68.1241558,82.1068889 C66.1542857,81.0506667 64.1851948,79.9928889 62.2098701,78.9421111 C62.4919481,78.2592222 62.714026,77.5685556 62.858961,76.8716667 C63.0592208,75.9165556 61.8202597,74.9622222 61.0792208,75.8372222 C60.5968831,76.4065556 60.1277922,77.0015556 59.6501299,77.5802222 C57.2890909,76.3357778 54.9218182,75.1022222 52.5420779,73.8966667 C52.7922078,73.5653333 53.0462338,73.2386667 53.2948052,72.9057778 C53.534026,72.5861111 53.5620779,72.2508889 53.4677922,71.9467778 C63.0257143,75.6668889 72.9911688,78.6854444 82.005974,82.8807778 C81.7231169,82.992 81.4620779,83.1957778 81.2579221,83.5138889 L81.2579221,83.5138889 Z M75.2727273,94.7675556 C72.4628571,93.2827778 69.6132468,91.8018889 66.7379221,90.3552222 C67.6651948,88.9272222 68.5761039,87.4922222 69.4675325,86.0471111 C72.1246753,87.4805556 74.7888312,88.9007778 77.4724675,90.2852222 C76.7244156,91.7707778 75.9950649,93.268 75.2727273,94.7675556 L75.2727273,94.7675556 Z M72.0896104,101.156222 C68.7116883,99.9133333 65.347013,98.6968889 61.9955844,97.4571111 C63.0514286,95.9108889 64.1002597,94.36 65.1358442,92.8013333 C68.0150649,94.402 71.2153247,96.1115556 74.3501299,96.6785556 C73.6176623,98.1843333 72.8735065,99.6831111 72.0896104,101.156222 L72.0896104,101.156222 Z M67.3262338,108.762111 C64.2802597,106.914889 61.0612987,105.220111 57.7745455,103.612444 C58.5646753,102.462111 59.3555844,101.311 60.1472727,100.158333 C63.6779221,101.530333 67.2615584,102.677556 70.852987,103.393889 C69.7831169,105.246556 68.6384416,107.054111 67.3262338,108.762111 L67.3262338,108.762111 Z M65.7849351,110.655222 C59.7888312,117.488 49.552987,113.366556 41.5207792,109.090333 C41.6088312,106.148778 43.0761039,103.18 45.0077922,100.404111 C48.0584416,101.830556 51.0927273,103.295889 54.127013,104.760444 C53.3368831,106.139444 52.5561039,107.521556 51.794026,108.909889 C51.1768831,110.031444 52.7961039,110.953889 53.4974026,109.903889 C54.4153247,108.530333 55.3457143,107.159889 56.2807792,105.791 C59.5075325,107.350444 62.7319481,108.910667 65.9696104,110.432778 C65.9064935,110.505889 65.8488312,110.582889 65.7849351,110.655222 L65.7849351,110.655222 Z M34.5498701,105.212333 C33.7535065,104.777556 32.9119481,104.361444 32.0548052,103.949222 C33.6787013,101.590222 35.1225974,99.0834444 36.5672727,96.5821111 C38.7155844,97.5131111 40.8490909,98.4845556 42.9779221,99.4668889 C41.1732468,102.260667 39.8119481,105.318889 40.2155844,108.384889 C38.092987,107.220556 36.158961,106.089667 34.5498701,105.212333 L34.5498701,105.212333 Z M20.8932468,98.2302222 C20.9283117,98.168 20.9657143,98.1088889 20.985974,98.0256667 C21.5485714,95.7086667 22.5677922,93.4453333 23.8246753,91.2543333 C27.4005195,92.953 31.1742857,94.2946667 34.3387013,95.6223333 C32.947013,98.1407778 31.7228571,100.747111 30.9288312,103.412556 C27.5703896,101.843 23.9602597,100.301444 20.8932468,98.2302222 L20.8932468,98.2302222 Z M15.0935065,92.1542222 C15.2898701,92.1153333 15.4698701,91.9846667 15.5485714,91.7194444 C16.0020779,90.1903333 16.5451948,88.7024444 17.1537662,87.2464444 C18.6062338,88.41 20.2558442,89.4133333 21.9825974,90.3248889 C20.8231169,92.5921111 19.9464935,94.9238889 19.5763636,97.2751111 C17.7506494,95.8587778 16.1828571,94.2036667 15.0935065,92.1542222 L15.0935065,92.1542222 Z M14.4537662,90.7697778 C14.3041558,90.3902222 14.1522078,90.0122222 14.032987,89.6062222 C13.5303896,87.8873333 13.6005195,85.9872222 14.0057143,84.0528889 C14.5433766,84.7731111 15.1535065,85.4435556 15.8150649,86.0758889 C15.2361039,87.6283333 14.7724675,89.1955556 14.4537662,90.7697778 L14.4537662,90.7697778 Z M16.4477922,77.3717778 C17.3142857,77.9543333 18.194026,78.5205556 19.0753247,79.0844444 C18.18,80.7263333 17.3298701,82.4086667 16.5911688,84.1228889 C15.8571429,83.5737778 15.1348052,83.0052222 14.4335065,82.3962222 C14.9454545,80.6827778 15.6701299,78.9763333 16.4477922,77.3717778 L16.4477922,77.3717778 Z M18.998961,72.5907778 C19.3753247,71.9242222 19.7735065,71.2677778 20.1849351,70.6175556 C21.0498701,71.309 21.9490909,71.96 22.8677922,72.5853333 C22.7524675,72.7782222 22.6363636,72.9734444 22.5249351,73.1577778 C21.6046753,74.6752222 20.6555844,76.2634444 19.7345455,77.8944444 C18.7901299,77.4176667 17.8519481,76.9261111 16.9012987,76.4594444 C17.6197403,75.047 18.3561039,73.7278889 18.998961,72.5907778 L18.998961,72.5907778 Z M25.1696104,63.8718889 C25.2085714,63.8835556 25.238961,63.9068889 25.2825974,63.9123333 C25.6807792,64.0266667 26.078961,64.1417778 26.4771429,64.2568889 C26.7233766,64.3572222 26.8503896,63.98 26.6493506,63.8477778 C27.0896104,64.1378889 27.5524675,64.4038889 28.0020779,64.6831111 C26.3641558,66.7263333 24.9451948,69.0767778 23.7171429,71.1526667 C22.7851948,70.6074444 21.8563636,70.056 20.9477922,69.4617778 C22.2444156,67.5321111 23.6742857,65.674 25.1696104,63.8718889 L25.1696104,63.8718889 Z M29.6096104,58.8155556 C30.4348052,59.5155556 31.2841558,60.1797778 32.1451948,60.8261111 C31.0542857,61.4957778 30.0342857,62.3902222 29.0828571,63.4231111 C28.185974,63.0933333 27.2875325,62.7651111 26.3836364,62.4524444 C27.4457143,61.2188889 28.5225974,60.0008889 29.6096104,58.8155556 L29.6096104,58.8155556 Z M34.2148052,62.293 C36.1605195,63.6268889 38.1880519,64.8386667 40.2677922,65.9703333 C39.7433766,66.3802222 39.2322078,66.8375556 38.7303896,67.3197778 C36.5945455,66.388 34.447013,65.4865556 32.2768831,64.6372222 C32.925974,63.8524444 33.5727273,63.0715556 34.2148052,62.293 L34.2148052,62.293 Z M48.2945455,74.7436667 C46.8358442,76.5481111 45.4519481,78.4202222 44.1187013,80.3273333 C41.0267532,79.1241111 37.9402597,77.9247778 34.9005195,76.636 C36.681039,74.7553333 38.5877922,72.9392222 40.3862338,71.0733333 C43.0379221,72.2913333 45.6942857,73.4922222 48.2945455,74.7436667 L48.2945455,74.7436667 Z M43.4493506,67.6122222 C46.0597403,68.8947778 48.7535065,70.0466667 51.48,71.1456667 C51.3966234,71.1993333 51.3085714,71.239 51.2345455,71.3191111 C50.8324675,71.7554444 50.4436364,72.205 50.0532468,72.6514444 C47.4958442,71.3813333 44.9267532,70.1361111 42.3327273,68.9476667 C42.7161039,68.5074444 43.0909091,68.0641111 43.4493506,67.6122222 L43.4493506,67.6122222 Z M54.2057143,84.4285556 C52.7368831,83.7884444 51.2664935,83.16 49.7914286,82.565 C48.8049351,82.166 47.8161039,81.7778889 46.8264935,81.389 C48.1823377,79.6047778 49.5467532,77.8252222 50.9096104,76.0425556 C51.3701299,76.2766667 51.8368831,76.5053333 52.2911688,76.7456667 C54.158961,77.7342222 56.0181818,78.7383333 57.8750649,79.7455556 C56.64,81.2878889 55.4158442,82.8504444 54.2057143,84.4285556 L54.2057143,84.4285556 Z M57.5002597,85.9016667 C58.7633766,84.4604444 59.9602597,82.9546667 60.9225974,81.4014444 C62.8122078,82.432 64.7025974,83.4594444 66.5937662,84.4876667 C65.6524675,85.9522222 64.7142857,87.4214444 63.7792208,88.893 C61.6963636,87.8717778 59.6057143,86.8645556 57.5002597,85.9016667 L57.5002597,85.9016667 Z M50.9392208,93.1847778 C51.3342857,92.7352222 51.7168831,92.2965556 52.065974,91.8827778 C53.1264935,90.6258889 54.4137662,89.2795556 55.7267532,87.8616667 C57.9264935,88.942 60.1098701,90.0682222 62.2932468,91.2442222 C61.2225974,92.9467778 60.1612987,94.6571111 59.1109091,96.3736667 C56.3766234,95.3438889 53.6501299,94.2962222 50.9392208,93.1847778 L50.9392208,93.1847778 Z M49.1290909,95.2451111 C51.8493506,96.572 54.6405195,97.8802222 57.472987,99.0741111 C56.7888312,100.212778 56.1109091,101.353778 55.4415584,102.497889 C52.4680519,101.094778 49.4587013,99.7453333 46.461039,98.4448889 C47.3361039,97.3287778 48.2446753,96.2577778 49.1290909,95.2451111 L49.1290909,95.2451111 Z M40.072987,90.7915556 C40.0838961,90.7752222 40.0955844,90.7596667 40.1064935,90.7433333 C41.3072727,91.3492222 42.5064935,91.9698889 43.7064935,92.5656667 C44.7490909,93.0844444 45.8064935,93.6117778 46.8755844,94.1406667 C46.0862338,95.186 45.194026,96.3184444 44.3197403,97.5201111 C42.4036364,96.6948889 40.4968831,95.8774444 38.625974,95.0654444 C38.3119481,94.9293333 37.9963636,94.8002222 37.6815584,94.6656667 C38.4537662,93.352 39.2415584,92.0523333 40.072987,90.7915556 L40.072987,90.7915556 Z M28.3776623,84.5802222 C31.5374026,86.3364444 34.7392208,88.0078889 37.9480519,89.6497778 C37.1033766,90.965 36.2524675,92.3222222 35.4296104,93.7105556 C31.9441558,92.2545556 28.4509091,90.8366667 25.0862338,89.1908889 C26.1148052,87.6065556 27.2384416,86.0665556 28.3776623,84.5802222 L28.3776623,84.5802222 Z M26.3057143,83.4361111 C25.2,84.9698889 24.1184416,86.5682222 23.1475325,88.2116667 C21.405974,87.2931111 19.7064935,86.2991111 18.0732468,85.1837778 C18.8867532,83.4633333 19.7968831,81.7895556 20.7779221,80.1538889 C22.5966234,81.2816667 24.4425974,82.3728889 26.3057143,83.4361111 L26.3057143,83.4361111 Z M30.9974026,77.1602222 C30.7316883,77.5273333 30.4698701,77.8851111 30.2150649,78.2226667 C29.3392208,79.38 28.3971429,80.6057778 27.4480519,81.879 C25.4976623,80.8585556 23.5472727,79.8396667 21.5898701,78.8347778 C22.6480519,77.1555556 23.7724675,75.5128889 24.9475325,73.9044444 C26.8909091,75.0936667 28.9246753,76.1607778 30.9974026,77.1602222 L30.9974026,77.1602222 Z M32.2090909,75.4592222 C30.1176623,74.5196667 28.0535065,73.528 26.0345455,72.443 C27.5961039,70.3741111 29.2215584,68.3542222 30.8555844,66.3631111 C32.7802597,67.431 34.7688312,68.425 36.7823377,69.3878889 C35.121039,71.3237778 33.5984416,73.4898889 32.2090909,75.4592222 L32.2090909,75.4592222 Z M45.441039,83.2463333 C45.5212987,83.279 45.6046753,83.3116667 45.6857143,83.3443333 C48.0748052,84.3103333 50.3961039,85.344 52.694026,86.415 C51.2493506,88.3205556 49.8171429,90.223 48.3958442,92.1176667 C46.5771429,91.3437778 44.7623377,90.5504444 42.9568831,89.7081111 C42.4207792,89.4576667 41.8955844,89.1846667 41.3618182,88.9295556 C42.6849351,87.0037778 44.0454545,85.1106667 45.441039,83.2463333 L45.441039,83.2463333 Z M39.1425974,87.7986667 C39.1348052,87.8103333 39.127013,87.8227778 39.1192208,87.8352222 C35.925974,86.2648889 32.7545455,84.6517778 29.6018182,83.0036667 C30.4854545,81.8797778 31.3597403,80.7893333 32.1841558,79.7385556 C32.5722078,79.2438889 32.9851948,78.7624444 33.4028571,78.2825556 C36.5267532,79.688 39.7114286,80.9565556 42.8290909,82.1994444 C41.5714286,84.056 40.3488312,85.9312222 39.1425974,87.7986667 L39.1425974,87.7986667 Z M84.1558442,81.4138889 C71.9774026,73.9083333 57.8119481,70.8081111 44.7023377,65.2773333 C44.5519481,64.5788889 43.8467532,63.9566667 43.118961,64.2592222 C42.9958442,64.3097778 42.8758442,64.3766667 42.7535065,64.4342222 C38.5379221,62.5551111 34.4446753,60.3952222 30.5883117,57.6963333 C30.9498701,57.0383333 30.2220779,56.0645556 29.5137662,56.5887778 C25.4368831,59.605 21.5220779,63.3678889 18.3163636,67.6433333 C18.2392208,67.5873333 18.1597403,67.5344444 18.0825974,67.4768889 C17.6251948,67.137 17.0914286,67.8688889 17.4841558,68.2507778 C17.5597403,68.3238889 17.6407792,68.3915556 17.7171429,68.4646667 C13.7166234,74.0428889 10.9488312,80.4478889 10.6246753,87.2176667 C10.1251948,97.6375556 22.6714286,102.844 30.3038961,106.483222 C40.2716883,111.234667 51.5688312,120.128556 63.2251948,116.056889 C68.1623377,114.333333 71.22,109.084111 73.725974,104.859222 C77.5168831,98.4666667 80.0205195,91.406 83.9883117,85.1067778 C84.3903896,84.469 84.2711688,83.8537778 83.9080519,83.4158889 C84.7075325,83.146 85.0932468,81.9917778 84.1558442,81.4138889 L84.1558442,81.4138889 Z" id="Fill-63"></path>
                </g>
                <g id="Group-15" transform="translate(0.000000, 52.000000)">
                    <path d="M37.0706104,143.43979 C33.1422104,145.361491 28.1800504,144.552146 23.9414104,144.552146 C18.3906904,144.552146 12.5269304,144.609595 7.26685037,142.588204 C-2.30354963,138.909261 2.83893037,122.736445 4.25461037,115.447836 C6.72253037,102.741629 7.87277037,89.3696982 7.97861037,76.4348246 C7.99933037,73.8969625 7.98421037,55.4645143 12.0033304,56.0226637 C19.0010904,56.9936522 26.0772504,55.9843648 33.0901304,56.6241809 C33.8175704,56.6912039 34.1748504,56.0953189 34.0818904,55.561951 C34.1619704,55.4538131 34.2252504,55.3248361 34.2577304,55.1654453 C35.5278104,48.8754223 36.0738104,42.3854568 36.9905304,36.0357326 C37.3209304,33.7451235 37.6944504,31.5097097 38.4560504,29.3154108 C39.1375704,27.3531579 40.3292504,25.7102499 42.8335704,25.7919166 C44.7353304,25.854997 45.4890904,28.8034453 45.8346104,30.1681235 C47.3219704,36.0475602 46.7681304,42.2125487 46.2428504,48.1742154 C45.6587704,54.7982269 45.5338904,61.3535258 45.6285304,67.9978131 C45.8446904,83.1500775 47.3398904,98.1942039 45.8502904,113.314928 C45.2432504,119.476537 44.5572504,125.667434 43.6416504,131.790181 C42.9433304,136.458135 41.5903704,141.228031 37.0706104,143.43979 L37.0706104,143.43979 Z M48.5948504,94.0421579 C48.1384504,79.3438476 46.8112504,64.7716982 48.3602104,50.0953533 C48.9773304,44.2474568 49.4247704,38.4654568 48.6452504,32.6113648 C48.2739704,29.8251235 47.7755704,25.6809625 45.0707704,24.0938131 C33.0654904,17.0502039 33.1506104,49.2685487 32.4338104,54.6123648 C25.1969304,53.1051924 17.9785304,54.630951 10.6677304,53.8424453 C10.2292504,53.7951349 9.80925037,54.0069051 9.62501037,54.4208706 C4.33133037,66.3413878 6.39437037,80.6454453 5.22173037,93.3634798 C4.17677037,104.693181 1.75309037,115.710296 0.332930375,126.954951 C-0.573149625,134.13148 -0.0657896253,141.760836 7.47965037,144.655779 C11.5390904,146.213077 16.2027704,146.271089 20.4850904,146.361767 C24.8698904,146.455261 29.4327704,146.719411 33.7912504,146.197871 C40.9917304,145.33671 44.0090104,139.625675 45.3087704,133.103606 C47.8192504,120.507227 48.9930104,106.873963 48.5948504,94.0421579 L48.5948504,94.0421579 Z" id="Fill-35"></path>
                    <path d="M27.746105,23.3087551 C27.124505,20.133893 25.432185,16.9494562 24.292025,13.9199045 C23.326585,11.3555712 22.501145,7.7363298 20.508105,5.76281256 C20.162025,5.420939 19.520265,5.80674359 19.608185,6.26801946 C20.144105,9.07115739 21.633705,11.9086516 22.525225,14.6346287 C23.513625,17.657985 24.171065,21.3735367 25.966425,24.0251689 C26.511305,24.8283183 27.939305,24.2932608 27.746105,23.3087551" id="Fill-36"></path>
                    <path d="M27.2861836,28.3826168 C25.4992236,27.6825363 23.5263436,27.3744559 21.6856236,26.8129271 C19.6752236,26.1990191 17.6211436,25.4826053 15.5144236,25.3474329 C14.3843436,25.2742145 14.2045836,26.76618 15.2624236,27.0629961 C17.3887436,27.6594444 19.4769836,28.2795478 21.5629836,29.0100421 C23.2961836,29.6171915 25.1413836,30.4023179 26.9977836,30.3454329 C28.0192236,30.3144559 28.1973036,28.739134 27.2861836,28.3826168" id="Fill-37"></path>
                    <path d="M40.4640902,0.754956787 C40.1392902,-0.398514477 38.1568902,-0.170974248 38.1160102,1.03487633 C37.9412902,6.17818667 38.4212102,11.9151292 39.1475302,17.0145085 C39.3088102,18.1471407 41.1932102,18.2648533 41.2234502,17.0398533 C41.3516902,11.8588074 41.8758502,5.76985334 40.4640902,0.754956787" id="Fill-38"></path>
                    <path d="M60.2364404,6.76728688 C57.8469204,7.06241332 56.0325204,9.60083861 54.6386804,11.3670915 C52.7694004,13.7354248 51.0266804,16.5087122 49.9117204,19.3248041 C49.4934004,20.3814018 51.0132404,21.434057 51.6740404,20.4011145 C52.9995604,18.3284708 54.2013204,16.2023214 55.6522804,14.2107811 C57.2242004,12.0525283 59.7044404,10.5256432 61.1094804,8.34091907 C61.5502004,7.65491907 61.1447604,6.65520642 60.2364404,6.76728688" id="Fill-39"></path>
                    <path d="M68.4170438,30.8855232 C67.7276838,30.9632473 64.7333638,30.3786266 63.3221638,30.0919484 C61.0228038,29.6233507 58.7441638,29.0009944 56.4089638,28.7323392 C56.0376838,28.6895347 55.5409638,28.811753 55.3287238,29.1586956 L55.1019238,29.5304197 C54.7771238,30.0620979 54.7888838,30.6292588 55.2704838,31.0663163 C55.2800038,31.0747645 55.7274438,31.5304082 55.6148838,31.3101898 C55.9906438,32.045753 56.8883238,31.9595806 57.1918438,31.3529944 C57.3251238,31.3738335 57.4572838,31.3969255 57.5620038,31.4256496 C58.2239238,31.6064427 58.8824838,31.800753 59.5449638,31.9798565 C61.0334438,32.3825576 62.5196838,32.7920174 64.0165638,33.1614887 C65.6792038,33.5726381 68.6886438,34.647822 69.6540838,32.5605347 C70.0432838,31.7196496 69.3035238,30.7852703 68.4170438,30.8855232" id="Fill-40"></path>
                    <path d="M18.443923,87.4259108 C16.881523,87.253566 15.401443,86.8931062 13.904003,86.420566 C11.193603,85.5650372 12.094643,83.1263016 12.433443,81.0300027 C13.372563,75.2215315 13.510883,69.3719453 14.947843,63.6558418 C22.502243,64.6921637 30.196083,63.5854395 37.670963,65.2063821 C38.213043,72.4724625 38.761843,79.7317844 39.850483,86.9376005 C32.969763,88.3647959 25.307283,88.1834395 18.443923,87.4259108 L18.443923,87.4259108 Z M42.896323,87.8911292 C41.704083,79.9193361 41.083043,71.8917844 40.461443,63.8586005 C40.408243,63.1692211 39.848803,62.7586349 39.240083,62.6003706 C31.378803,60.5598303 23.252083,61.7318878 15.262563,60.8380602 C14.026083,60.7000717 13.442003,61.9554855 13.781923,62.8374855 C11.157763,69.08752 10.999283,75.9886349 9.69784305,82.5963131 C8.97152305,86.2837039 10.487443,87.996451 13.924723,89.1228878 C18.082163,90.4853131 22.711683,90.5382556 27.042723,90.5619108 C31.869923,90.5872556 36.918323,90.6080947 41.646403,89.5008073 C42.391203,89.3262096 43.022323,88.731451 42.896323,87.8911292 L42.896323,87.8911292 Z" id="Fill-41"></path>
                    <path d="M33.4116716,74.7861073 C32.3829516,75.3605901 31.4102316,76.0122338 30.4593516,76.6942912 C31.0876716,75.5149119 31.7003116,74.3259579 32.2743116,73.1133487 C32.8236716,71.9503027 31.5787916,70.7985211 30.4537516,71.2203717 C29.7173516,71.4957855 29.0128716,71.8235786 28.3207116,72.1716476 C29.6893516,70.59182 30.9331116,68.9094866 31.8879116,66.9860958 C32.3599916,66.03482 31.2976716,65.0441188 30.3742316,65.4119004 C24.7143116,67.6642108 18.7687916,71.0694292 14.7328716,75.7340039 C14.1611116,76.3946591 15.1355116,77.4349234 15.7979916,76.8452338 C19.3007916,73.7261303 23.3484716,71.0840728 27.6363916,69.103797 C24.6795916,72.7782338 20.7825516,75.6928889 17.8554316,79.4056246 C16.8367916,80.6970843 18.4826316,82.3135211 19.7930316,81.4270154 C22.4883116,79.6033142 24.9623916,77.4540728 27.7142316,75.7570958 C26.7235916,77.5599579 25.6814316,79.331843 24.5821516,81.0806361 C23.7068716,82.4729119 25.1477516,84.1563717 26.6020716,83.1881993 C28.0703916,82.2104522 29.4575116,81.1194981 30.8647916,80.0578315 C30.5887116,80.6830039 30.2997516,81.3008545 29.9799916,81.8984292 C29.2223116,83.3154866 31.5395916,84.7393027 32.3846316,83.3667395 C33.6401516,81.3284522 34.4728716,78.9956016 35.3095116,76.7596246 C35.7115916,75.6850039 34.6436716,74.0984177 33.4116716,74.7861073" id="Fill-42"></path>
                    <path d="M11.3407662,107.850448 C11.5770862,106.724575 11.8834062,105.62123 12.1790862,104.51169 C12.5537262,104.601242 12.9222062,104.720081 13.2940462,104.846805 C13.6798862,104.979724 14.2012462,105.104759 14.6453262,105.300196 C14.3916462,106.276253 14.1038062,107.249494 13.7185262,108.179368 C12.9182862,108.161908 12.1169262,108.054333 11.3407662,107.850448 L11.3407662,107.850448 Z M12.3515662,97.4669542 C13.2005262,97.0541151 14.3020462,97.1949197 15.2971662,97.3852875 C15.2551662,98.2571496 15.0412462,99.1284484 14.4084462,99.7451726 C13.7857262,100.352322 12.6797262,100.170966 11.7792462,99.9169542 C11.7428462,99.011299 11.4690062,97.8966898 12.3515662,97.4669542 L12.3515662,97.4669542 Z M17.1345262,104.93692 C17.1966862,104.11631 16.4009262,103.263598 15.5463662,103.677563 C15.0793262,103.903414 13.8730862,103.337943 13.3746862,103.212345 C13.0980462,103.141943 12.8191662,103.095196 12.5397262,103.060839 C12.5559662,102.989874 12.5761262,102.920035 12.5918062,102.849069 C12.6713262,102.486356 12.5839662,102.182782 12.4047662,101.950736 C13.4822062,102.181655 14.5971662,102.161379 15.5833262,101.611678 C17.3512462,100.626046 17.6575662,98.3816208 17.7298062,96.5466553 C17.7494062,96.0487703 17.5640462,95.3943105 17.0090862,95.2337933 C15.1734062,94.7004254 12.8488462,94.1985979 11.0646862,95.1797243 C9.2155662,96.1974599 8.3576462,99.3813335 9.7654862,101.096897 C10.0998062,101.504667 10.5343662,101.60323 10.9157262,101.483828 C10.9403662,101.494529 10.9672462,101.502977 10.9924462,101.513115 C10.6771662,101.600977 10.3966062,101.808805 10.2437262,102.167012 C9.3802062,104.194598 8.7894062,106.415931 8.4170062,108.587701 C8.3173262,109.171196 8.6650862,109.827345 9.2178062,110.048127 C10.9549262,110.740322 12.8852462,110.998276 14.7450062,110.825368 C15.2025262,110.782563 15.6090862,110.455897 15.7944462,110.041368 C16.4933262,108.476747 17.0051662,106.646851 17.1345262,104.93692 L17.1345262,104.93692 Z" id="Fill-43"></path>
                    <path d="M10.7629752,114.988672 C10.8256952,114.663695 10.9203352,114.343224 10.9920152,114.022753 C11.7743352,114.200166 12.5695352,114.333649 13.3602552,114.473327 C13.4179352,115.186362 13.3708952,115.971488 13.2779352,116.709304 C12.3589752,116.678327 11.4338552,116.56512 10.5199352,116.426005 C10.5932952,115.94558 10.6705752,115.466281 10.7629752,114.988672 L10.7629752,114.988672 Z M15.1102552,113.291695 C15.0133752,112.984741 14.6740152,112.731856 14.3620952,112.698626 C13.1642552,112.569649 11.9563352,112.389982 10.7506552,112.334787 C10.4835352,112.09373 10.0775352,112.010937 9.73929516,112.143293 C8.83937516,112.494741 8.62657516,113.484879 8.40481516,114.333086 C8.15057516,115.304074 7.99433516,116.30435 7.85265516,117.296741 C7.75521516,117.975419 8.23121516,118.631569 8.90993516,118.729569 C10.7316152,118.992592 12.6025752,119.296166 14.4449752,119.083833 C14.9444952,119.025822 15.4249752,118.595523 15.4708952,118.075672 C15.6092152,116.508799 15.5823352,114.790419 15.1102552,113.291695 L15.1102552,113.291695 Z" id="Fill-44"></path>
                    <path d="M14.842477,123.340814 C14.766877,124.163676 14.731597,124.969079 14.512637,125.765469 C13.139517,125.539619 11.765277,125.322216 10.389917,125.111573 C10.412317,124.730274 10.451517,124.350101 10.518717,123.965987 C10.619517,123.392067 10.885517,122.894745 11.160477,122.399113 C12.372877,122.7714 13.626157,122.979791 14.842477,123.340814 L14.842477,123.340814 Z M16.911117,122.243101 C16.708397,121.797596 16.315277,121.57963 15.834797,121.604412 C14.470637,121.675377 13.054397,121.457412 11.686317,121.165665 C11.706477,120.308446 10.639677,119.564998 9.88871701,120.208757 C8.13535701,121.711423 7.76967701,124.163113 7.85031701,126.359101 C7.87103701,126.920067 8.40359701,127.390918 8.92663701,127.467515 C10.990237,127.770527 13.054397,128.057768 15.123037,128.326423 C15.648877,128.394573 16.199357,128.119722 16.407117,127.613952 C16.988397,126.200837 17.570797,123.697895 16.911117,122.243101 L16.911117,122.243101 Z" id="Fill-45"></path>
                    <path d="M23.7196389,97.328445 C23.7280389,98.3061922 23.5936389,99.3002726 23.3533989,100.250422 C22.2580389,100.138342 21.1464389,100.025135 20.0544389,100.056112 C20.2162789,98.9415025 20.4217989,97.921514 20.7880389,96.8699853 C21.7646789,96.8452037 22.7855589,97.0282496 23.7196389,97.328445 L23.7196389,97.328445 Z M25.9265989,96.376606 C25.9002789,96.0043186 25.6124389,95.6179508 25.2674789,95.4833416 C23.6249989,94.8446519 21.6285989,94.4436404 19.8679589,94.6982152 C18.7949989,94.8531002 18.5373989,96.5061462 18.2881989,97.3616749 C17.9734789,98.4430542 17.7713189,99.5199278 18.0569189,100.623273 C18.2047589,101.194376 18.7518789,101.33687 19.2306789,101.197755 C19.2435589,101.203951 19.2519589,101.214089 19.2659589,101.219721 C20.7398789,101.818985 22.4041989,102.034135 23.9553989,102.370376 C24.4022789,102.467813 24.8558789,102.163675 25.0395589,101.768859 C25.8117989,100.108491 26.0565189,98.2008703 25.9265989,96.376606 L25.9265989,96.376606 Z" id="Fill-46"></path>
                    <path d="M20.2388646,107.563848 C20.2668646,106.816458 20.3307046,106.070756 20.4410246,105.330688 C20.4718246,105.121733 20.5149446,104.90771 20.5580646,104.691998 C21.2485446,104.810837 21.9451846,105.032182 22.5634246,105.3014 C22.6059846,106.070756 22.4850246,107.058078 22.2134246,107.726619 C21.5727846,107.772802 20.8935046,107.678745 20.2388646,107.563848 L20.2388646,107.563848 Z M24.4741446,104.208193 C24.3615846,103.773952 23.8032646,103.503044 23.3911046,103.564998 C22.5046246,103.699044 21.6332646,103.45686 20.7490246,103.349848 C20.7568646,103.019802 20.7238246,102.693699 20.6045446,102.381113 C20.4275846,101.918147 19.8950246,101.833665 19.5114246,102.071343 C18.5779046,102.649205 18.3690246,103.990791 18.1803046,104.995009 C17.9535046,106.205929 17.8812646,107.438814 17.9389446,108.66832 C17.9624646,109.170147 18.4334246,109.602699 18.9083046,109.667469 C20.1929446,109.840377 23.1144646,110.5934 23.9113446,109.188733 C24.6595046,107.870239 24.8504646,105.659607 24.4741446,104.208193 L24.4741446,104.208193 Z" id="Fill-47"></path>
                    <path d="M22.016637,113.477009 C21.789837,114.545434 21.577037,115.606537 21.278557,116.658629 C20.612157,116.557813 19.945197,116.458124 19.278797,116.357871 C19.388557,115.550779 19.498877,114.74425 19.605837,113.936595 C19.652877,113.583457 19.763197,113.077687 19.799037,112.582618 C20.556157,112.811284 21.283597,113.173997 22.016637,113.477009 L22.016637,113.477009 Z M24.203997,112.975744 C24.238157,112.461526 23.932397,111.843112 23.346077,111.813261 C22.011597,111.745675 20.711277,111.27933 19.386317,111.172882 C19.259757,111.076572 19.108557,110.999411 18.903597,110.968997 C17.611117,110.77694 17.559597,112.480112 17.420717,113.341273 C17.214637,114.618652 16.997917,115.895468 16.811997,117.17679 C16.720157,117.809284 17.165917,118.416997 17.795917,118.509928 C19.171277,118.712124 20.546637,118.913756 21.921997,119.115951 C22.397997,119.18579 22.991037,118.919388 23.153997,118.432204 C23.739757,116.683974 24.083037,114.815779 24.203997,112.975744 L24.203997,112.975744 Z" id="Fill-48"></path>
                    <path d="M19.1289649,126.758234 C19.2135249,126.152211 19.3042449,125.546751 19.4190449,124.944107 C19.4929649,124.553234 19.5904049,124.197843 19.6469649,123.842452 C20.3553649,123.970866 21.0693649,124.072245 21.7794449,124.192774 C21.7464049,125.114762 21.7973649,126.045762 21.5963249,126.952544 C20.7798449,126.978452 19.9465649,126.886084 19.1289649,126.758234 L19.1289649,126.758234 Z M22.7611249,122.553808 C22.0000849,122.499739 21.2340049,122.501429 20.4718449,122.477774 C20.1380849,122.467636 19.8043249,122.453555 19.4705649,122.436659 C19.2516049,122.176452 18.8411249,122.161245 18.5538449,122.325705 C18.5510449,122.326268 18.5482449,122.325142 18.5454449,122.325142 C18.1909649,122.360061 17.8353649,122.612946 17.9008849,122.989739 C17.6763249,123.37667 17.5660049,123.834004 17.4394449,124.299785 C17.1538449,125.353004 16.9880849,126.442831 16.8133649,127.519142 C16.7170449,128.111647 17.1532849,128.685004 17.7373649,128.770613 C19.2969649,128.998716 20.9747249,129.312429 22.5500049,129.083762 C22.9100849,129.031946 23.2796849,128.796521 23.4118449,128.440004 C23.8273649,127.319199 24.8202449,122.700808 22.7611249,122.553808 L22.7611249,122.553808 Z" id="Fill-49"></path>
                    <path d="M26.3870014,126.478803 C26.4670814,125.581596 26.6171614,124.687205 26.7790014,123.801263 C27.8950814,123.903768 29.0542814,123.931366 30.1098814,124.260849 C30.2437214,125.101171 30.3770014,125.964021 30.4010814,126.816734 C29.5711614,126.730562 28.7395614,126.657906 27.9090814,126.589757 C27.4302814,126.550332 26.8971614,126.464723 26.3870014,126.478803 L26.3870014,126.478803 Z M32.2188414,123.299998 C32.1527614,122.947424 31.9371614,122.521631 31.5608414,122.40955 C29.7755614,121.877309 27.9426814,121.8407 26.1019614,121.66047 C25.5660414,121.60809 25.0127614,121.947711 24.9483614,122.521631 C24.7462014,124.335194 24.4947614,126.186493 24.7439614,128.006251 C24.8246014,128.594251 25.3134814,128.767723 25.7278814,128.637619 C26.2352414,128.89501 27.0332414,128.818412 27.5753214,128.860654 C28.8224414,128.955837 30.0762814,129.040883 31.3155614,129.210975 C31.9086014,129.292642 32.5352414,128.873608 32.6013214,128.251251 C32.7738014,126.627493 32.5173214,124.896159 32.2188414,123.299998 L32.2188414,123.299998 Z" id="Fill-50"></path>
                    <path d="M27.3444975,116.757277 C27.4083375,115.965955 27.4620975,115.130139 27.8949775,114.459909 C28.3978575,113.679851 29.2669775,113.727725 30.0616175,113.959771 C30.0593775,114.868805 29.8432175,115.759254 29.6556175,116.650265 C28.8884175,116.707713 28.1161775,116.729679 27.3444975,116.757277 L27.3444975,116.757277 Z M32.3228975,112.972449 C32.2663375,112.582139 32.0182575,112.195208 31.6402575,112.048208 C29.9008975,111.370656 27.8384175,111.130725 26.4389775,112.625506 C25.3464175,113.792495 24.9672975,115.715886 25.3380175,117.253472 C25.3464175,117.289518 25.3676975,117.315989 25.3794575,117.349782 C25.3391375,117.550851 25.4304175,117.747414 25.7210575,117.848794 C26.0072175,118.075771 26.3885775,118.152368 26.7077775,118.051552 C27.1356175,118.119139 27.5651375,118.178277 27.9963375,118.236288 C28.4404175,118.295989 28.8850575,118.35569 29.3291375,118.418771 C29.5088975,118.444116 29.6886575,118.470587 29.8684175,118.498185 C29.9944175,118.517334 30.0240975,118.517334 30.0296975,118.515644 C30.0296975,118.517897 30.0397775,118.525782 30.0996975,118.550001 C30.5398575,118.723472 31.0007375,118.614771 31.3098575,118.252058 C32.3710575,117.006782 32.5485775,114.530311 32.3228975,112.972449 L32.3228975,112.972449 Z" id="Fill-51"></path>
                    <path d="M28.710019,108.261886 C28.750339,107.809058 28.589619,107.367495 28.549859,106.877495 C28.524099,106.56153 28.547619,106.238242 28.589059,105.916081 C29.326019,105.909323 30.071939,105.998874 30.805539,106.10307 C30.886179,106.865104 30.871619,107.651357 30.713139,108.389737 C30.053459,108.450001 29.364099,108.412828 28.710019,108.261886 L28.710019,108.261886 Z M32.900499,104.972127 C32.828259,104.470863 32.454739,104.081116 31.955779,103.998886 C30.502579,103.760081 28.950259,103.492553 27.479699,103.71615 C26.987459,103.791622 26.568579,104.166725 26.501939,104.676438 C26.387699,105.547737 26.144659,107.124748 26.526579,108.187541 C26.476179,108.399311 26.524339,108.626851 26.731539,108.773851 C26.835139,108.84707 26.947699,108.89607 27.054099,108.961403 C27.156579,109.04307 27.271379,109.112346 27.402419,109.164162 C27.782659,109.362978 28.176339,109.532507 28.604739,109.638392 C29.425139,109.841714 30.358099,109.8603 31.116899,110.244415 C31.649459,110.513633 32.194899,110.18584 32.457539,109.721748 C33.209619,108.395369 33.110499,106.433679 32.900499,104.972127 L32.900499,104.972127 Z" id="Fill-52"></path>
                    <path d="M28.6688686,101.496434 C28.6615886,100.725951 28.5087086,99.951526 28.9729486,99.2390547 C29.4831086,98.4573076 30.3544686,98.4674455 31.1468686,98.7023076 C31.1933486,99.7099053 31.0399086,100.734963 30.9441486,101.749882 C30.1870286,101.654698 29.4332686,101.529101 28.6688686,101.496434 L28.6688686,101.496434 Z M33.3230286,99.0717789 C33.3555086,98.4161926 33.4585486,97.483503 32.8845486,97.0211007 C32.2786286,96.5311007 31.2420686,96.3474915 30.4871886,96.3142616 C29.0244686,96.2506179 27.6726286,96.9653421 26.9519086,98.2568018 C26.2698286,99.4772961 25.9545486,101.596687 26.9726286,102.712986 C27.3203886,103.094848 27.7919086,103.148917 28.1435886,102.938836 C28.4314286,103.006423 28.7640686,103.036273 29.0043086,103.086963 C29.8975086,103.275078 30.8058286,103.480089 31.6827886,103.733537 C32.0456686,103.838296 32.5894286,103.537537 32.6947086,103.172009 C33.0794286,101.835491 33.2530286,100.461802 33.3230286,99.0717789 L33.3230286,99.0717789 Z" id="Fill-53"></path>
                    <path d="M37.025134,98.8902126 C37.772174,98.3579713 39.039454,98.5314425 40.047454,98.7950287 C39.853694,99.881477 39.662734,100.96173 39.218654,101.969328 C38.404974,101.990167 37.578414,102.007063 36.770894,101.901178 C36.544094,100.874994 36.055214,99.5807184 37.025134,98.8902126 L37.025134,98.8902126 Z M42.504734,98.1619713 C42.569134,97.4692126 42.164814,97.0299023 41.534814,96.8479828 C39.588254,96.2875805 37.295054,95.8786839 35.521534,97.1414195 C33.857214,98.326431 33.895854,100.889075 34.693294,102.626603 C34.716814,102.730236 34.760494,102.829925 34.838894,102.918351 C34.871934,102.979741 34.903294,103.043385 34.938574,103.101397 C35.210734,103.556477 35.685054,103.622937 36.093854,103.466925 C37.292254,103.794718 38.547214,103.848224 39.753454,104.193477 C40.103454,104.293167 40.590654,104.070695 40.793374,103.782891 C41.931854,102.166454 42.325534,100.102822 42.504734,98.1619713 L42.504734,98.1619713 Z" id="Fill-54"></path>
                    <path d="M38.6400927,107.64975 C38.6658527,108.376301 38.5695327,109.110738 38.3953727,109.820393 C37.7597727,109.702681 37.1040127,109.578773 36.4874527,109.379956 C36.5272127,109.316313 36.5736927,109.259428 36.5972127,109.18114 C36.7993727,108.526117 36.9147327,107.84575 37.0200127,107.165382 C37.5738527,107.238037 38.1220927,107.427278 38.6400927,107.64975 L38.6400927,107.64975 Z M40.8800927,106.740152 C40.7529727,105.797887 39.5377727,105.488681 38.7834527,105.220025 C37.8493727,104.88829 36.8559327,104.67314 35.8636127,104.791416 C35.3478527,104.852807 34.9037727,105.277474 34.8365727,105.80014 C34.7116927,106.773382 34.5364127,107.753945 34.5268927,108.736761 C34.1606527,108.929382 33.9904127,109.462186 34.3896927,109.859818 C35.5544927,111.021738 37.3319327,111.175497 38.7100927,111.986531 C39.0763327,112.202244 39.7119327,112.041163 39.9404127,111.68352 C40.8168127,110.313209 41.0951327,108.338002 40.8800927,106.740152 L40.8800927,106.740152 Z" id="Fill-55"></path>
                    <path d="M36.2276622,115.693214 C36.2377422,115.671249 36.2808622,115.595214 36.3066222,115.548467 C36.3452622,115.493272 36.3839022,115.438639 36.4253422,115.38626 C36.4393422,115.368237 36.4746222,115.332754 36.5054222,115.300651 C36.5530222,115.261789 36.6006222,115.222927 36.6504622,115.186881 C36.6566222,115.182938 36.6571822,115.182375 36.6616622,115.178433 C36.6627822,115.177869 36.6627822,115.177869 36.6633422,115.177869 C36.7131822,115.153651 36.8604622,115.111973 36.8839822,115.101835 C36.8991022,115.105214 36.9125422,115.10803 36.9388622,115.110846 C36.9763822,115.115352 37.0010222,115.116479 37.0172622,115.116479 C37.0379822,115.130559 37.0727022,115.151961 37.1466222,115.18857 C36.7630222,114.999329 37.4484622,115.497214 37.1998222,115.227996 C37.3857422,115.429065 37.4809422,115.620559 37.4943822,115.64872 C37.9082222,116.494111 37.8281422,117.514099 37.8063022,118.530145 C37.3168622,118.547042 36.8274222,118.538593 36.3357422,118.496915 C36.3161422,118.495226 36.2937422,118.49241 36.2735822,118.490157 C36.2080622,118.170812 36.1106222,117.851467 36.0551822,117.516915 C35.9611022,116.948628 35.9644622,116.678283 36.0764622,116.109433 C36.0826222,116.078456 36.0848622,116.062685 36.0882222,116.044099 C36.0938222,116.027766 36.0988622,116.014812 36.1083822,115.987777 C36.1414222,115.886961 36.1845422,115.789524 36.2276622,115.693214 L36.2276622,115.693214 Z M36.5082222,112.679433 C35.2353422,112.860789 34.2430222,113.91626 33.8605422,115.109157 C33.6085422,115.89372 33.5536622,116.69518 33.6348622,117.514099 C33.7306222,118.486214 33.9798222,119.742191 34.9407822,120.189387 C35.3243822,120.367927 35.7903022,120.234444 36.0596622,119.918479 C36.9108622,120.184318 37.7844622,120.387076 38.6737422,120.458042 C39.1329422,120.495214 39.5305422,120.295835 39.7338222,119.870042 C40.8773422,117.476364 40.1571822,112.157892 36.5082222,112.679433 L36.5082222,112.679433 Z" id="Fill-56"></path>
                    <path d="M36.5136773,126.430242 C36.5243173,126.40546 36.5416773,126.386874 36.5495173,126.360403 C36.7410373,125.756069 36.6727173,125.242977 36.6917573,124.621184 C36.7029573,124.273115 36.7354373,123.926173 36.7779973,123.580357 C37.4247973,123.589931 38.0805573,123.705954 38.6903973,123.905334 C38.7878373,124.763679 38.8287173,125.645679 38.8208773,126.512472 C38.2155173,126.494449 37.6101573,126.480368 37.0053573,126.457839 C36.8412773,126.451644 36.6777573,126.439816 36.5136773,126.430242 L36.5136773,126.430242 Z M41.1342373,125.36238 C41.1487973,124.502345 41.2803973,123.369713 40.9516773,122.549667 C40.5932773,121.655276 39.1949573,121.457023 38.3762373,121.287495 C37.4606373,121.09769 36.4649573,121.028414 35.5375973,121.159081 C34.9887973,121.236242 34.5452773,121.659219 34.4623973,122.214552 C34.2619173,123.553885 33.8200773,125.386035 34.6259173,126.577242 C34.6443973,126.604276 34.6718373,126.623426 34.6925573,126.64877 C34.4483973,128.075403 38.9832773,128.494437 39.6871973,128.656644 C40.2757573,128.791816 40.7702373,128.291115 40.8855973,127.761127 C41.0603173,126.955725 41.1202373,126.189748 41.1342373,125.36238 L41.1342373,125.36238 Z" id="Fill-57"></path>
                </g>
            </g>
        </g>
    </g>
</svg>