<?xml version="1.0" encoding="UTF-8"?>
<svg width="252px" height="60px" viewBox="0 0 252 60" version="1.1" xmlns="http://www.w3.org/2000/svg" xmlns:xlink="http://www.w3.org/1999/xlink">
    <!-- Generator: Sketch 40 (33762) - http://www.bohemiancoding.com/sketch -->
    <title>logo</title>
    <desc>Created with Sketch.</desc>
    <defs></defs>
    <g id="Page-1" stroke="none" stroke-width="1" fill="none" fill-rule="evenodd">
        <g id="login_driver" transform="translate(-834.000000, -50.000000)" fill="#FFFFFF">
            <g id="logo" transform="translate(834.000000, 50.000000)">
                <g id="logo_blue">
                    <path d="M30,60 C46.5685425,60 60,46.5685425 60,30 C60,13.4314575 46.5685425,0 30,0 C13.4314575,0 0,13.4314575 0,30 C0,46.5685425 13.4314575,60 30,60 L30,60 Z M30,57 C44.9116882,57 57,44.9116882 57,30 C57,15.0883118 44.9116882,3 30,3 C15.0883118,3 3,15.0883118 3,30 C3,44.9116882 15.0883118,57 30,57 L30,57 Z" id="Combined-Shape-Copy-2"></path>
                    <path d="M34.2857143,44.3788314 C40.481762,42.5347974 45,36.7950442 45,30 C45,21.7157288 38.2842712,15 30,15 C21.7157288,15 15,21.7157288 15,30 C15,36.7950442 19.518238,42.5347974 25.7142857,44.3788314 L25.7142857,47.1428571 L34.2857143,47.1428571 L34.2857143,44.3788314 L34.2857143,44.3788314 Z M34.2857143,34.7916568 C35.6008915,33.6145413 36.4285714,31.9039282 36.4285714,30 C36.4285714,26.449598 33.550402,23.5714286 30,23.5714286 C26.449598,23.5714286 23.5714286,26.449598 23.5714286,30 C23.5714286,31.9039282 24.3991085,33.6145413 25.7142857,34.7916568 L25.7142857,31.7142857 L34.2857143,31.7142857 L34.2857143,34.7916568 L34.2857143,34.7916568 Z" id="Combined-Shape-Copy"></path>
                </g>
                <g id="Group-5" transform="translate(72.857143, 4.714286)">
                    <path d="M2.87538917,43.7451574 C3.92402647,43.7451574 4.79231185,44.0847424 5.48027135,44.7639225 C6.16155164,45.4431027 6.50218667,46.3040707 6.50218667,47.3468523 C6.50218667,48.3896339 6.15821208,49.2506019 5.47025258,49.9297821 C4.78229307,50.6089622 3.90732858,50.9485472 2.84533284,50.9485472 L-1.53477231e-12,50.9485472 L-1.53477231e-12,43.7451574 L2.87538917,43.7451574 Z M1.18221576,49.8577482 L2.90544551,49.8577482 C3.59340501,49.8577482 4.16446962,49.6244979 4.61865648,49.1579903 C5.07952255,48.6846223 5.30995213,48.0843458 5.30995213,47.3571429 C5.30995213,46.6299399 5.07284343,46.0262332 4.59861892,45.5460048 C4.13107363,45.0726369 3.54999034,44.8359564 2.85535162,44.8359564 L1.18221576,44.8359564 L1.18221576,49.8577482 Z M11.2948056,48.7669492 C11.2280134,48.7738096 11.1211475,48.7772397 10.9742047,48.7772397 L9.3110876,48.7772397 L9.3110876,50.9485472 L8.12887184,50.9485472 L8.12887184,43.7451574 L10.9742047,43.7451574 C11.86922,43.7451574 12.5638483,43.9578268 13.0581104,44.3831719 C13.5523726,44.8153775 13.7995,45.4225142 13.7995,46.2046005 C13.7995,47.3777298 13.3152639,48.1563742 12.3467772,48.5405569 L13.9197253,50.9485472 L12.5772091,50.9485472 L11.2948056,48.7669492 Z M10.9742047,47.6864407 C12.1096718,47.6864407 12.6773969,47.2027893 12.6773969,46.2354722 C12.6773969,45.302457 12.1096718,44.8359564 10.9742047,44.8359564 L9.3110876,44.8359564 L9.3110876,47.6864407 L10.9742047,47.6864407 Z M15.7367672,50.9485472 L15.7367672,43.7451574 L16.918983,43.7451574 L16.918983,50.9485472 L15.7367672,50.9485472 Z M21.030325,50.9485472 L18.2350861,43.7451574 L19.5074708,43.7451574 L21.6715268,49.6004843 L23.8556203,43.7451574 L25.08793,43.7451574 L22.2526159,50.9485472 L21.030325,50.9485472 Z M26.404033,50.9485472 L26.404033,43.7451574 L27.5862488,43.7451574 L27.5862488,50.9485472 L26.404033,50.9485472 Z M34.7132429,50.9485472 L30.9762388,45.7826877 L30.9762388,50.9485472 L29.794023,50.9485472 L29.794023,43.7451574 L30.9562012,43.7451574 L34.7132429,48.9213075 L34.7132429,43.7451574 L35.8754211,43.7451574 L35.8754211,50.9485472 L34.7132429,50.9485472 Z M43.9241427,47.4085956 L43.9241427,50.0635593 C43.1226365,50.6878562 42.2142764,51 41.1990352,51 C40.1637563,51 39.2887918,50.6466944 38.5741154,49.9400726 C37.8661183,49.2403113 37.512125,48.3759131 37.512125,47.3468523 C37.512125,46.3177915 37.8727974,45.4533933 38.594153,44.753632 C39.3155086,44.060731 40.2071709,43.7142857 41.2691666,43.7142857 C42.3111247,43.7142857 43.2094661,44.0504405 43.9642178,44.7227603 L43.2929597,45.6180387 C42.7185469,45.0692063 42.0439559,44.7947942 41.2691666,44.7947942 C40.5544902,44.7947942 39.95003,45.0417651 39.4557679,45.5357143 C38.9615057,46.0296635 38.7143783,46.6333701 38.7143783,47.3468523 C38.7143783,48.0671949 38.9615057,48.6743317 39.4557679,49.1682809 C39.9567092,49.6622301 40.564509,49.909201 41.2791854,49.909201 C41.8202021,49.909201 42.3578711,49.7445537 42.8922086,49.4152542 L42.8922086,47.4085956 L43.9241427,47.4085956 Z M51.4755686,44.8359564 L51.4755686,50.9485472 L50.2933528,50.9485472 L50.2933528,44.8359564 L48.079203,44.8359564 L48.079203,43.7451574 L53.6997372,43.7451574 L53.6997372,44.8359564 L51.4755686,44.8359564 Z M59.9751352,50.9485472 L59.9751352,47.9642857 L56.2581687,47.9642857 L56.2581687,50.9485472 L55.075953,50.9485472 L55.075953,43.7451574 L56.2581687,43.7451574 L56.2581687,46.8734867 L59.9751352,46.8734867 L59.9751352,43.7451574 L61.157351,43.7451574 L61.157351,50.9485472 L59.9751352,50.9485472 Z M64.547341,44.8359564 L64.547341,46.7808717 L67.9737629,46.7808717 L67.9737629,47.8716707 L64.547341,47.8716707 L64.547341,49.8577482 L68.4947394,49.8577482 L68.4947394,50.9485472 L63.3651252,50.9485472 L63.3651252,43.7451574 L68.3745141,43.7451574 L68.3745141,44.8359564 L64.547341,44.8359564 Z M79.2521742,50.9485472 L77.5890571,45.3299031 L75.9059024,50.9485472 L74.6836116,50.9485472 L72.3592552,43.7451574 L73.6316399,43.7451574 L75.3348321,49.6004843 L77.0280055,43.7554479 L78.1901837,43.7451574 L79.8933759,49.6004843 L81.5865493,43.7451574 L82.8088402,43.7451574 L80.4644462,50.9485472 L79.2521742,50.9485472 Z M89.7354587,44.753632 C90.4501351,45.4533933 90.8074679,46.3177915 90.8074679,47.3468523 C90.8074679,48.3759131 90.4501351,49.2403113 89.7354587,49.9400726 C89.0207824,50.6466944 88.1391387,51 87.0905014,51 C86.0418641,51 85.1602205,50.6466944 84.4455442,49.9400726 C83.7308678,49.2403113 83.373535,48.3759131 83.373535,47.3468523 C83.373535,46.3177915 83.7308678,45.4533933 84.4455442,44.753632 C85.1602205,44.060731 86.0418641,43.7142857 87.0905014,43.7142857 C88.1391387,43.7142857 89.0207824,44.060731 89.7354587,44.753632 L89.7354587,44.753632 Z M85.3171778,45.5357143 C84.8229156,46.0296635 84.5757883,46.6333701 84.5757883,47.3468523 C84.5757883,48.0603345 84.8262552,48.6674713 85.3271966,49.1682809 C85.8214588,49.6622301 86.4125607,49.909201 87.1005202,49.909201 C87.7884797,49.909201 88.3762421,49.6622301 88.8638251,49.1682809 C89.351408,48.6674713 89.5951958,48.0603345 89.5951958,47.3468523 C89.5951958,46.6333701 89.351408,46.0296635 88.8638251,45.5357143 C88.3762421,45.0486255 87.7884797,44.8050847 87.1005202,44.8050847 C86.4058815,44.8050847 85.81144,45.0486255 85.3171778,45.5357143 L85.3171778,45.5357143 Z M95.6000868,48.7669492 C95.5332946,48.7738096 95.4264288,48.7772397 95.2794859,48.7772397 L93.6163689,48.7772397 L93.6163689,50.9485472 L92.4341531,50.9485472 L92.4341531,43.7451574 L95.2794859,43.7451574 C96.1745012,43.7451574 96.8691295,43.9578268 97.3633917,44.3831719 C97.8576539,44.8153775 98.1047812,45.4225142 98.1047812,46.2046005 C98.1047812,47.3777298 97.6205452,48.1563742 96.6520585,48.5405569 L98.2250066,50.9485472 L96.8824904,50.9485472 L95.6000868,48.7669492 Z M95.2794859,47.6864407 C96.4149531,47.6864407 96.9826781,47.2027893 96.9826781,46.2354722 C96.9826781,45.302457 96.4149531,44.8359564 95.2794859,44.8359564 L93.6163689,44.8359564 L93.6163689,47.6864407 L95.2794859,47.6864407 Z M104.259954,49.8474576 L104.259954,50.9485472 L100.042049,50.9485472 L100.042049,43.7451574 L101.224264,43.7451574 L101.224264,49.8474576 L104.259954,49.8474576 Z M108.631784,43.7451574 C109.680421,43.7451574 110.548707,44.0847424 111.236666,44.7639225 C111.917947,45.4431027 112.258582,46.3040707 112.258582,47.3468523 C112.258582,48.3896339 111.914607,49.2506019 111.226648,49.9297821 C110.538688,50.6089622 109.663724,50.9485472 108.601728,50.9485472 L105.756395,50.9485472 L105.756395,43.7451574 L108.631784,43.7451574 Z M106.938611,49.8577482 L108.66184,49.8577482 C109.3498,49.8577482 109.920865,49.6244979 110.375051,49.1579903 C110.835917,48.6846223 111.066347,48.0843458 111.066347,47.3571429 C111.066347,46.6299399 110.829238,46.0262332 110.355014,45.5460048 C109.887469,45.0726369 109.306385,44.8359564 108.611747,44.8359564 L106.938611,44.8359564 L106.938611,49.8577482 Z M118.016646,44.8359564 L118.016646,46.9146489 L121.202618,46.9146489 L121.202618,47.9951574 L118.016646,47.9951574 L118.016646,50.9485472 L116.834431,50.9485472 L116.834431,43.7451574 L121.543256,43.7451574 L121.533237,44.8359564 L118.016646,44.8359564 Z M128.740382,44.753632 C129.455058,45.4533933 129.812391,46.3177915 129.812391,47.3468523 C129.812391,48.3759131 129.455058,49.2403113 128.740382,49.9400726 C128.025705,50.6466944 127.144062,51 126.095424,51 C125.046787,51 124.165143,50.6466944 123.450467,49.9400726 C122.735791,49.2403113 122.378458,48.3759131 122.378458,47.3468523 C122.378458,46.3177915 122.735791,45.4533933 123.450467,44.753632 C124.165143,44.060731 125.046787,43.7142857 126.095424,43.7142857 C127.144062,43.7142857 128.025705,44.060731 128.740382,44.753632 L128.740382,44.753632 Z M124.322101,45.5357143 C123.827839,46.0296635 123.580711,46.6333701 123.580711,47.3468523 C123.580711,48.0603345 123.831178,48.6674713 124.332119,49.1682809 C124.826382,49.6622301 125.417484,49.909201 126.105443,49.909201 C126.793403,49.909201 127.381165,49.6622301 127.868748,49.1682809 C128.356331,48.6674713 128.600119,48.0603345 128.600119,47.3468523 C128.600119,46.6333701 128.356331,46.0296635 127.868748,45.5357143 C127.381165,45.0486255 126.793403,44.8050847 126.105443,44.8050847 C125.410804,44.8050847 124.816363,45.0486255 124.322101,45.5357143 L124.322101,45.5357143 Z M134.60501,48.7669492 C134.538218,48.7738096 134.431352,48.7772397 134.284409,48.7772397 L132.621292,48.7772397 L132.621292,50.9485472 L131.439076,50.9485472 L131.439076,43.7451574 L134.284409,43.7451574 C135.179424,43.7451574 135.874052,43.9578268 136.368315,44.3831719 C136.862577,44.8153775 137.109704,45.4225142 137.109704,46.2046005 C137.109704,47.3777298 136.625468,48.1563742 135.656981,48.5405569 L137.229929,50.9485472 L135.887413,50.9485472 L134.60501,48.7669492 Z M134.284409,47.6864407 C135.419876,47.6864407 135.987601,47.2027893 135.987601,46.2354722 C135.987601,45.302457 135.419876,44.8359564 134.284409,44.8359564 L132.621292,44.8359564 L132.621292,47.6864407 L134.284409,47.6864407 Z M144.968069,50.9485472 L143.304952,45.3299031 L141.621797,50.9485472 L140.399506,50.9485472 L138.07515,43.7451574 L139.347535,43.7451574 L141.050727,49.6004843 L142.7439,43.7554479 L143.906079,43.7451574 L145.609271,49.6004843 L147.302444,43.7451574 L148.524735,43.7451574 L146.180341,50.9485472 L144.968069,50.9485472 Z M150.211533,49.3226392 L149.540275,50.9485472 L148.307965,50.9485472 L151.403767,43.7451574 L152.616039,43.7451574 L155.681785,50.9485472 L154.419419,50.9485472 L153.748161,49.3226392 L150.211533,49.3226392 Z M151.974838,45.0417676 L150.652359,48.2421308 L153.297316,48.2421308 L151.974838,45.0417676 Z M160.143785,48.7669492 C160.076992,48.7738096 159.970127,48.7772397 159.823184,48.7772397 L158.160067,48.7772397 L158.160067,50.9485472 L156.977851,50.9485472 L156.977851,43.7451574 L159.823184,43.7451574 C160.718199,43.7451574 161.412827,43.9578268 161.90709,44.3831719 C162.401352,44.8153775 162.648479,45.4225142 162.648479,46.2046005 C162.648479,47.3777298 162.164243,48.1563742 161.195756,48.5405569 L162.768704,50.9485472 L161.426188,50.9485472 L160.143785,48.7669492 Z M159.823184,47.6864407 C160.958651,47.6864407 161.526376,47.2027893 161.526376,46.2354722 C161.526376,45.302457 160.958651,44.8359564 159.823184,44.8359564 L158.160067,44.8359564 L158.160067,47.6864407 L159.823184,47.6864407 Z M167.461135,43.7451574 C168.509773,43.7451574 169.378058,44.0847424 170.066018,44.7639225 C170.747298,45.4431027 171.087933,46.3040707 171.087933,47.3468523 C171.087933,48.3896339 170.743958,49.2506019 170.055999,49.9297821 C169.368039,50.6089622 168.493075,50.9485472 167.431079,50.9485472 L164.585746,50.9485472 L164.585746,43.7451574 L167.461135,43.7451574 Z M165.767962,49.8577482 L167.491192,49.8577482 C168.179151,49.8577482 168.750216,49.6244979 169.204403,49.1579903 C169.665269,48.6846223 169.895698,48.0843458 169.895698,47.3571429 C169.895698,46.6299399 169.65859,46.0262332 169.184365,45.5460048 C168.71682,45.0726369 168.135737,44.8359564 167.441098,44.8359564 L165.767962,44.8359564 L165.767962,49.8577482 Z" id="DRIVING-THE-WORLD-FO"></path>
                    <path d="M173.246709,42.1555102 L173.246709,45.4285714 L172.613847,45.4285714 L172.613847,42.1555102 L171.428571,42.1555102 L171.428571,41.5714286 L174.437348,41.5714286 L174.437348,42.1555102 L173.246709,42.1555102 Z M178.558264,45.4285714 L178.552901,42.5467347 L177.367626,45.0263265 L176.954656,45.0263265 L175.769381,42.5467347 L175.769381,45.4285714 L175.174061,45.4285714 L175.174061,41.5714286 L175.924915,41.5714286 L177.163823,44.1336735 L178.397367,41.5714286 L179.142857,41.5714286 L179.142857,45.4285714 L178.558264,45.4285714 Z" id="TM"></path>
                    <path d="M35.3451556,35.0649351 C32.8183145,37.4026091 30.093629,38.5714286 27.1710176,38.5714286 C23.5481971,38.5714286 20.1994217,36.4463022 17.1245909,32.1959858 L16.7592663,32.1959858 C12.0709104,32.1959858 8.11326676,30.6325 4.88621661,27.5054815 C1.62872258,24.378463 -1.53477231e-12,20.5684151 -1.53477231e-12,16.0752235 C-1.53477231e-12,11.5820318 1.62872258,7.7871634 4.88621661,4.6905043 C8.11326676,1.5938452 12.0709104,0.0455388767 16.7592663,0.0455388767 C21.4171783,0.0455388767 25.374822,1.5938452 28.632316,4.6905043 C31.8593662,7.7871634 33.472867,11.5820318 33.472867,16.0752235 C33.472867,19.80943 32.3007956,23.1185553 29.9566177,26.0026986 C27.6733275,28.8564825 24.7203165,30.7387372 21.097496,31.6495193 C23.3198985,34.0175527 25.4813808,35.2015517 27.5820078,35.2015517 C29.4390838,35.2015517 31.4940142,34.2452448 33.7468605,32.3326025 L35.3451556,35.0649351 Z M7.58048558,25.0008433 C10.1073267,27.459955 13.1668897,28.6894923 16.7592663,28.6894923 C20.321199,28.6894923 23.380762,27.459955 25.938047,25.0008433 C28.4648882,22.5417317 29.7282898,19.5665548 29.7282898,16.0752235 C29.7282898,12.5838921 28.4648882,9.60871528 25.938047,7.14960364 C23.380762,4.72085141 20.321199,3.50649351 16.7592663,3.50649351 C13.1668897,3.50649351 10.1073267,4.72085141 7.58048558,7.14960364 C4.99275668,9.60871528 3.69891164,12.5838921 3.69891164,16.0752235 C3.69891164,19.5665548 4.99275668,22.5417317 7.58048558,25.0008433 L7.58048558,25.0008433 Z M67.0370652,18.8986338 C67.0370652,23.057872 65.8497721,26.3062794 63.4751503,28.6439534 C61.1005285,31.0119869 57.8278616,32.1959858 53.6570515,32.1959858 C49.4557975,32.1959858 46.167909,31.0119869 43.7932872,28.6439534 C41.3882215,26.3062794 40.1857067,23.057872 40.1857067,18.8986338 L40.1857067,0.13661663 L43.8389527,0.13661663 L43.8389527,18.8986338 C43.8389527,21.9649335 44.7218117,24.3632904 46.4875561,26.0937764 C48.2228567,27.8242623 50.6126646,28.6894923 53.6570515,28.6894923 C56.7014385,28.6894923 59.0760247,27.8242623 60.7808813,26.0937764 C62.5161819,24.3936498 63.3838192,21.9952929 63.3838192,18.8986338 L63.3838192,5.8745151 C63.414263,3.26360644 64.555891,1.35099275 66.8087373,0.13661663 L68.681026,3.27879912 C67.6763783,4.0377842 67.1283968,5.31285999 67.0370652,7.10406477 L67.0370652,18.8986338 Z M88.910876,0.13661663 C93.568788,0.13661663 97.4807666,1.65456401 100.646929,4.6905043 C103.782648,7.756804 105.350483,11.5516724 105.350483,16.0752235 C105.350483,20.5987745 103.767426,24.393643 100.601263,27.4599427 C97.435101,30.4958829 93.492679,32.0138303 88.7738793,32.0138303 L75.9875181,32.0138303 L75.9875181,0.13661663 L88.910876,0.13661663 Z M79.6407641,28.5528757 L88.9565416,28.5528757 C92.5489182,28.5528757 95.562816,27.3688767 97.9983256,25.0008433 C100.433835,22.6328099 101.651572,19.6728125 101.651572,16.1207624 C101.651572,12.5687122 100.403392,9.59353535 97.9069944,7.19514252 C95.441041,4.82710909 92.4119215,3.64311014 88.8195449,3.64311014 L79.6407641,3.64311014 L79.6407641,28.5528757 Z M136.859731,4.6905043 C140.086781,7.7871634 141.700282,11.5820318 141.700282,16.0752235 C141.700282,20.5684151 140.086781,24.378463 136.859731,27.5054815 C133.602237,30.6325 129.644593,32.1959858 124.986681,32.1959858 C120.298325,32.1959858 116.340681,30.6325 113.113631,27.5054815 C109.856137,24.378463 108.227415,20.5684151 108.227415,16.0752235 C108.227415,11.5820318 109.856137,7.7871634 113.113631,4.6905043 C116.340681,1.5938452 120.298325,0.0455388767 124.986681,0.0455388767 C129.644593,0.0455388767 133.602237,1.5938452 136.859731,4.6905043 L136.859731,4.6905043 Z M115.8079,7.14960364 C113.220171,9.60871528 111.926326,12.5838921 111.926326,16.0752235 C111.926326,19.5665548 113.220171,22.5417317 115.8079,25.0008433 C118.334741,27.459955 121.394304,28.6894923 124.986681,28.6894923 C128.548614,28.6894923 131.608177,27.459955 134.165462,25.0008433 C136.692303,22.5417317 137.955704,19.5665548 137.955704,16.0752235 C137.955704,12.5838921 136.692303,9.60871528 134.165462,7.14960364 C131.608177,4.72085141 128.548614,3.50649351 124.986681,3.50649351 C121.394304,3.50649351 118.334741,4.72085141 115.8079,7.14960364 L115.8079,7.14960364 Z M168.003653,2.96002699 L166.451024,6.37544274 C163.771963,4.58423797 160.834174,3.68864901 157.637568,3.68864901 C155.567384,3.68864901 153.92344,4.05295638 152.705685,4.78158205 C151.457487,5.54056713 150.833397,6.58795082 150.833397,7.92376455 C150.833397,9.71496932 151.777143,11.1266604 153.664662,12.1588801 C154.486647,12.6142711 156.541577,13.3580653 159.829515,14.390285 C162.691239,15.3010671 164.746169,16.257374 165.994368,17.2592343 C167.851444,18.7772044 168.779968,20.8264334 168.779968,23.4069826 C168.779968,26.0482507 167.714449,28.173377 165.583378,29.7824254 C163.452307,31.3611143 160.666735,32.150447 157.226577,32.150447 C152.477334,32.150447 148.397916,30.5262433 144.988203,27.2777871 L146.632164,23.998988 C149.737438,27.0045689 153.284096,28.5073368 157.272243,28.5073368 C159.585977,28.5073368 161.412582,28.0671321 162.752112,27.1867094 C164.091642,26.3062867 164.761397,25.1071083 164.761397,23.5891381 C164.761397,21.7372146 163.832873,20.2951645 161.975797,19.2629448 C161.092925,18.7771944 159.037995,18.0485797 155.810945,17.0770788 C152.949221,16.1966561 150.89429,15.2707082 149.646092,14.2992073 C147.758572,12.8115965 146.814826,10.7927265 146.814826,8.24253668 C146.814826,5.75306564 147.83468,3.74937511 149.87442,2.23140496 C151.883715,0.743794215 154.547514,-3.90798505e-13 157.865895,-3.90798505e-13 C161.671379,-3.90798505e-13 165.050598,0.986665795 168.003653,2.96002699 L168.003653,2.96002699 Z" id="QUDOS"></path>
                </g>
            </g>
        </g>
    </g>
</svg>