<?xml version="1.0" encoding="UTF-8" standalone="no"?>
<svg width="45px" height="45px" viewBox="0 0 30 30" version="1.1" xmlns="http://www.w3.org/2000/svg" xmlns:xlink="http://www.w3.org/1999/xlink">
    <!-- Generator: Sketch 39.1 (31720) - http://www.bohemiancoding.com/sketch -->
    <title>my_trips</title>
    <desc>Created with Sketch.</desc>
    <defs></defs>
    <g id="Customer" stroke="none" stroke-width="1" fill="none" fill-rule="evenodd">
        <g id="my_trips">
            <g id="Group">
                <rect id="Rectangle-4-Copy-2" x="0" y="0" width="30" height="30"></rect>
                <path d="M5.44443568,3 C4.09669532,3 3,4.12940034 3,5.51760136 C3,7.22432629 5.20782396,10.1267298 5.30175881,10.2493324 C5.33867024,10.2971595 5.39474722,10.3255645 5.45366354,10.3255645 L5.45437337,10.3255645 C5.51376292,10.3250789 5.56960328,10.2969167 5.6062781,10.2488468 C5.69973973,10.1260015 7.88863475,7.22408352 7.88863475,5.51760136 C7.88863475,4.12940034 6.79193943,3 5.44443568,3 L5.44443568,3 Z M22.8081868,11.2544307 C20.4967269,11.2544307 18.6163735,13.1905802 18.6163735,15.5707696 C18.6163735,18.4976936 22.4021611,23.4748725 22.5635302,23.6856033 C22.6269422,23.7679048 22.7227699,23.815732 22.8242764,23.815732 L22.8252228,23.815732 C22.9274391,23.8152464 23.0235034,23.7669337 23.0864421,23.6843894 C23.2452086,23.4741442 27,18.4974508 27,15.5707696 C27,13.1903375 25.1196467,11.2544307 22.8081868,11.2544307 L22.8081868,11.2544307 Z M22.687988,24.7137655 L8.99526777,17.1624181 L12.1687042,15.4520515 C12.4770092,15.2692401 12.6589636,14.9235251 12.6397981,14.5576596 C12.6206325,14.1920369 12.4036596,13.8681719 12.0780819,13.7200777 C12.0780819,13.7200777 6.41336068,11.1539209 6.00733496,10.9932022 C5.71961511,10.8793396 5.32187081,10.8890507 5.20829718,10.9140568 C4.79328023,11.0060694 4.49585929,11.2520029 4.49585929,11.5401797 C4.49585929,11.9504734 5.244972,12.2282107 5.33606751,12.2694829 L10.7362568,14.6399612 L6.75313511,16.3199806 C6.45169177,16.4986647 6.26997397,16.8344258 6.28085811,17.1927652 C6.29174225,17.5515902 6.49309882,17.8744841 6.80518968,18.0337461 L20.6493414,26.4005827 C21.1216184,26.5979607 21.621579,27 22.4518495,27 C22.5237795,27 22.5935799,26.9958728 22.6629072,26.9910172 C22.6707154,26.9910172 22.6789968,26.9939306 22.6875148,26.9939306 C22.78003,26.9939306 22.8704156,26.9788784 22.9586718,26.9521729 C23.6403502,26.8188881 24.1351053,26.425346 24.1351053,25.9601845 C24.1346321,25.4309298 23.5158924,25.1087643 22.687988,24.7137655 L22.687988,24.7137655 Z M5.48134711,11.8441369 C5.20545784,11.8441369 4.98233299,11.7059966 4.98233299,11.5358097 C4.98233299,11.3653799 5.20569446,11.2272396 5.48134711,11.2272396 C5.75676315,11.2272396 5.98012462,11.3653799 5.98012462,11.5358097 C5.98012462,11.7059966 5.75676315,11.8441369 5.48134711,11.8441369 L5.48134711,11.8441369 Z M22.5254358,26.4826414 C22.0583642,26.4826414 21.6800221,26.248604 21.6800221,25.9604273 C21.6800221,25.6720078 22.0588374,25.4379704 22.5254358,25.4379704 C22.9929805,25.4379704 23.371086,25.6722505 23.371086,25.9604273 C23.3717959,26.248604 22.9929805,26.4826414 22.5254358,26.4826414 L22.5254358,26.4826414 Z" id="Combined-Shape" fill="#FFFFFF"></path>
            </g>
        </g>
    </g>
</svg>