<?xml version="1.0" encoding="UTF-8" standalone="no"?>
<svg width="30px" height="30px" viewBox="0 0 30 30" version="1.1" xmlns="http://www.w3.org/2000/svg" xmlns:xlink="http://www.w3.org/1999/xlink">
    <!-- Generator: Sketch 39.1 (31720) - http://www.bohemiancoding.com/sketch -->
    <title>payment</title>
    <desc>Created with Sketch.</desc>
    <defs></defs>
    <g id="Customer" stroke="none" stroke-width="1" fill="none" fill-rule="evenodd">
        <g id="payment">
            <g id="Group-2">
                <rect id="Rectangle-4-Copy" x="0" y="0" width="30" height="30"></rect>
                <path d="M25,10.4166667 L25,9.125 C25,8.5 24.4893617,8 23.8510638,8 L6.14893617,8 C5.5106383,8 5,8.5 5,9.125 L5,10.4166667 C5,10.625 5.17021277,10.7916667 5.38297872,10.7916667 L24.5744681,10.7916667 C24.8297872,10.8333333 25,10.625 25,10.4166667 Z M5,14.0416667 L5,20.875 C5,21.5 5.5106383,22 6.14893617,22 L23.8510638,22 C24.4893617,22 25,21.5 25,20.875 L25,14.0416667 C25,13.8333333 24.8297872,13.6666667 24.6170213,13.6666667 L5.38297872,13.6666667 C5.17021277,13.6666667 5,13.8333333 5,14.0416667 Z M14.6595745,19.2083333 L8.06382979,19.2083333 C7.72340426,19.2083333 7.42553191,18.9166667 7.42553191,18.5833333 C7.42553191,18.25 7.72340426,17.9583333 8.06382979,17.9583333 L14.6595745,17.9583333 C15,17.9583333 15.2978723,18.25 15.2978723,18.5833333 C15.2978723,18.9166667 15,19.2083333 14.6595745,19.2083333 Z" id="Combined-Shape" fill="#909090"></path>
            </g>
        </g>
    </g>
</svg>