<?xml version="1.0" encoding="UTF-8" standalone="no"?>
<svg width="45px" height="45px" viewBox="0 0 30 30" version="1.1" xmlns="http://www.w3.org/2000/svg" xmlns:xlink="http://www.w3.org/1999/xlink">
    <!-- Generator: Sketch 39.1 (31720) - http://www.bohemiancoding.com/sketch -->
    <title>rides</title>
    <desc>Created with Sketch.</desc>
    <defs></defs>
    <g id="Customer" stroke="none" stroke-width="1" fill="none" fill-rule="evenodd">
        <g id="rides">
            <g id="Group-3">
                <rect id="Rectangle-4" x="0" y="0" width="30" height="30"></rect>
                <path d="M26.9989768,10.6595008 C26.9656434,10.074221 25.9579063,9.83995234 24.8963025,9.85588365 C24.7461686,9.85823417 24.6315015,9.98437883 24.6395015,10.1316782 L24.6893684,11.0079004 L24.1842999,11.0353231 C23.0600291,9.17606059 21.9058915,7.69967191 21.5346902,7.53330722 C20.7402873,7.17759496 18.8117469,7 14.9999996,7 C11.1882524,7 9.25944531,7.17759496 8.46504241,7.53330722 C8.09384105,7.69967191 6.93997017,9.17632176 5.81569939,11.0353231 L5.31063088,11.0079004 L5.36049773,10.1316782 C5.36849776,9.98437883 5.25383067,9.85823417 5.10343012,9.85588365 C4.04235958,9.83995234 3.0343559,10.074221 3.00102244,10.6595008 C2.97888903,11.0449864 3.31409025,11.6558608 4.20342683,11.7041771 L5.38636449,11.7686858 C4.27062708,13.7329383 3.29195684,15.9667173 3.29195684,17.5110099 L3.29195684,22.3334966 C3.29195684,22.7014838 3.59675795,23 3.97275933,23 L6.23250092,23 C6.60850229,23 6.91330341,22.7014838 6.91330341,22.3334966 L6.91330341,20.8777402 L23.0877625,20.8777402 L23.0877625,22.3334966 C23.0877625,22.7014838 23.3925636,23 23.7682983,23 L26.0280399,23 C26.4040413,23 26.7088424,22.7014838 26.7088424,22.3334966 L26.7088424,17.5110099 C26.7088424,15.9667173 25.7301722,13.7329383 24.6144348,11.7686858 L25.7971058,11.7041771 C26.6861757,11.6558608 27.0211102,11.0449864 26.9989768,10.6595008 L26.9989768,10.6595008 Z M8.84264379,8.24473173 C9.92558108,7.79996082 13.7373283,7.79969966 15.0002663,7.79969966 C16.2629376,7.79969966 20.0746848,7.79969966 21.1578888,8.24447056 C21.4722899,8.49179766 22.571494,9.87938886 23.7130981,11.8329334 L6.28743445,11.8329334 C7.42930529,9.87965003 8.52770931,8.49179766 8.84264379,8.24473173 L8.84264379,8.24473173 Z M9.66024678,16.7324649 L5.8263661,16.2469517 C5.50583159,16.2067316 5.24636398,15.9173563 5.24636398,15.6010806 L5.24636398,15.0523644 C5.24636398,14.7360887 5.5082316,14.4629058 5.83116612,14.4710021 C6.86690324,14.4968578 9.00637772,14.7465354 9.98131462,16.2929174 C10.1511819,16.5621827 9.98051461,16.7732073 9.66024678,16.7324649 L9.66024678,16.7324649 Z M24.7539019,15.0521032 L24.7539019,15.6010806 C24.7539019,15.9173563 24.493901,16.2064705 24.1741665,16.2469517 L20.3397525,16.7324649 C20.020018,16.772685 19.849084,16.5621827 20.0189513,16.2929174 C20.9936215,14.7465354 23.133896,14.4968578 24.1688331,14.4707409 C24.4917676,14.4623835 24.7539019,14.7358275 24.7539019,15.0521032 L24.7539019,15.0521032 Z" id="Shape" fill="#FFFFFF"></path>
            </g>
        </g>
    </g>
</svg>