<?xml version="1.0" encoding="UTF-8" standalone="no"?>
<svg width="30px" height="30px" viewBox="0 0 30 30" version="1.1" xmlns="http://www.w3.org/2000/svg" xmlns:xlink="http://www.w3.org/1999/xlink">
    <!-- Generator: Sketch 39.1 (31720) - http://www.bohemiancoding.com/sketch -->
    <title>user</title>
    <desc>Created with Sketch.</desc>
    <defs></defs>
    <g id="Customer" stroke="none" stroke-width="1" fill="none" fill-rule="evenodd">
        <g id="user">
            <g id="Group">
                <polygon id="Shape" points="0 0 30 0 30 30 0 30"></polygon>
                <path d="M15,15 C17.7625,15 20,12.7625 20,10 C20,7.2375 17.7625,5 15,5 C12.2375,5 10,7.2375 10,10 C10,12.7625 12.2375,15 15,15 L15,15 Z M15,17.5 C11.6625,17.5 5,19.175 5,22.5 L5,25 L25,25 L25,22.5 C25,19.175 18.3375,17.5 15,17.5 L15,17.5 Z" id="Shape" fill="#FFFFFF"></path>
            </g>
        </g>
    </g>
</svg>